<?xml version="1.0" encoding="UTF-8" standalone="no"?>
<!-- Created for MapSVG plugin: http://mapsvg.com -->
<svg
   xmlns:mapsvg="http://mapsvg.com"
   xmlns:dc="http://purl.org/dc/elements/1.1/"
   xmlns:rdf="http://www.w3.org/1999/02/22-rdf-syntax-ns#"
   xmlns:svg="http://www.w3.org/2000/svg"
   xmlns="http://www.w3.org/2000/svg"
   mapsvg:geoViewBox="102.143498 23.393563 109.460943 8.562136"
   width="381.07504"
   height="800.61719"
>
  <path
     d="m 62.338471,33.343229 1.76,0.42 1.04,1 1.11,0.33 0.23,0.67 1.03,0.14 0.38,1.17 -0.86,0.35 -0.11,1.07 1.83,2.05 -0.25,0.96 0.44,0.4 0.03,0.33 0.87,0.68 0.36,0.93 1,0.22 -0.03,0.55 0.93,0.63 0.31,-0.04 0,0 0.27,0.54 1.07,-0.08 0.9,0.44 -0.27,0.59 0.74,1.97 0.61,0.27 -0.7,1.96 -0.7,0.44 -0.62,0.89 0.88,1.2 0.82,0.68 0.12,0.45 0.73,0.22 0.08,0.9 1.23,0.69 0.87,-0.42 2.57,-0.25 0.33,0.14 1.37,-0.53 1.02,0.43 0.93,0.92 0.07,2 0.67,0.34 -0.1,0.39 0.22,0.2 -0.65,0.36 0.12,0.44 -0.52,0.7 0.58,0.18 0.07,0.39 0.89,0.21 1.84,1.73 0.06,0.43 0.61,0.72 0.09,1.22 0.48,0.32 0.31,0.75 0.76,0.39 0,0.54 -0.33,0.34 0.15,0.31 1.18,0.37 1.18,1.44 1.31,0.34 -0.12,1 0.43,0.79 -0.34,1.39 0.75,1.04 0.21,0.75 -0.18,1.31 0.63,0.75 -0.43,0.7 1.4,1.8 0,0 -0.75,0.42 -0.47,0.75 -0.07,0.57 -0.91,0.99 -0.73,-0.31 -0.49,-0.5 -0.68,0.6 -0.66,0.03 -0.4,0.77 0.16,2.32 1.57,1.51 -0.07,0.53 1.38,1.03 0.43,0.7 -0.05,0.51 0.86,1.05 -0.24,0.75 -0.61,0.11 0.12,0.72 -0.27,-0.15 -0.56,0.26 -0.31,-0.2 -0.87,0.15 0.15,0.67 -0.37,0.68 0.53,0.39 0.11,0.53 0,0 -0.89,0.33 -0.81,-0.39 -0.44,-0.42 -0.15,1.27 -1.32,-0.28 -0.27,-0.51 -0.52,-0.29 -0.24,-2.08 -0.37,0.46 -0.71,-0.3 -0.31,0.17 -0.91,-1.43 -0.36,0 -0.22,-0.87 -1.23,0.01 -0.08,-0.47 0.31,-1.17 -1.47,-0.13 -0.34,0.24 -0.68,-0.82 -0.79,-0.25 -0.01,-0.7 0.47,-0.21 0.89,-2.04 -0.34,-0.08 -0.05,-0.27 -0.49,0 0.04,-1.03 -1.17,-0.99 0.28,-1.03 -1.22,-0.59 -0.28,-1.47 -0.44,-0.69 -1.14,-0.04 -0.91,-0.68 -0.29,-0.56 -2.7,-0.59 -0.53,-0.38 -1,0.28 -0.67,0.76 0.09,1.01 -0.23,0.44 -0.47,0.26 -0.2,0.54 0,0 -1.21,-0.6 -0.4,-0.85 -0.66,-0.72 0.05,-0.35 0,0 0.73,-0.61 0,0 -0.72,-1.54 -0.49,-0.23 -0.43,0.17 -0.25,-0.58 -0.46,-0.38 -0.85,-3.15 -0.73,-0.77 0.01,-0.72 -0.19,-0.12 -2.92,0.17 -0.67,0.56 -0.14,0.57 -0.53,0.44 0.07,0.64 -1.08,0.32 -0.15,1.24 -0.55,0.65 0.1,0.46 0.83,0.98 -0.03,0.38 -0.39,0.24 -2.07,-0.59 -1.6,-1.13 -0.79,0.09 -1.38,-0.64 -0.99,0.21 -0.08,0.32 -0.28,0.07 -0.92,-0.82 -0.25,-0.69 -0.99,-0.4 -0.71,1.72 0.34,0.26 -0.05,0.48 -1.64,-0.32 -0.94,0.77 -0.49,-0.02 -0.68,-0.39 -0.57,0.32 -0.53,-0.1 -0.23,0.85 -0.51,0.59 -0.96,-0.26 -0.3,-0.36 0.14,-0.23 -0.21,-0.47 -0.86,-0.88 -0.72,-0.19 -0.08,-0.42 0.38,-0.52 -0.11,-0.53 -1.12,0.27 -1.26,0.88 -0.54,-0.32 -0.55,0.14 -0.38,1 -0.47,-0.35 -1.61,0.04 -0.53,-0.47 -1.72,-0.72 -0.1,-0.19 0.28,-0.56 -0.64,-0.88 -0.24,0.04 -0.93,-0.79 -0.31,-0.81 0.17,-0.42 -0.16,-1 0.48,-0.4 0.34,-1.73 -1.43,-1.69 -0.92,-0.04 -0.87,-0.42 -0.8,-0.87 -0.7,0.49 1.27,0.93 0.53,1.58 -0.09,0.56 -0.34,0.29 -0.61,1.42 -1.21,-0.46 0,0 -0.55,0.05 0,0 -0.39,-0.67 -0.42,-0.13 -0.49,-0.53 0.01,-2 -0.8,-0.29 -1.36,-1.16 -0.8,0.05 -0.51,0.91 -0.53,0.05 -0.96,-0.56 -0.52,-0.43 -0.29,-1.06 -0.94,-0.99 -0.91,-1.7 -0.89,-0.83 0.05,-0.41 -0.42,-0.61 -1.17,-0.56 -0.21,-0.82 -0.64,-0.15 -1.22,-1.24 0.27,-0.75 0.33,0.27 -0.08,-0.79 -0.28,-0.46 0.12,-1.06 -0.35,-0.45 -1.22,-0.4 -0.23,-0.82 -0.55,-0.04 0.01,-0.83 -0.47,-0.82 0.19,-0.48 -0.65,-0.36 -0.4,-0.55 -0.04,-0.77 0,0 1.44,-0.47 -0.44,-1.24 1.36,-0.31 1.51,-2.09 0.88,-0.26 -0.15,-0.35 -0.63,-0.11 -0.85,-1.49 -0.07,-0.74 0.57,-0.31 0.75,0.29 1.36,-0.94 0.44,-1.29 0.65,-0.44 -0.29,-0.56 0.05,-0.58 0.32,-0.52 0.48,-0.44 0.53,0 0.2,-0.52 0.93,-0.04 0.59,0.16 1.42,1.2 0.69,1.18 0.62,0.5 0.28,1.18 0.81,-0.14 0.18,-0.92 0.63,-0.53 0.32,-0.01 2.55,2.39 1.62,-0.66 1.03,0.45 0.2,0.74 0.73,0.1 0.61,0.69 0.79,-0.05 0.71,1.13 0.92,0.66 0.3,0.52 1.47,0.22 0.45,-0.26 1.03,0.41 0.92,0.47 0.13,0.51 0.73,0.63 -0.32,0.8 0.54,0.45 0.69,1.3 0.66,1.15 0.13,0.8 0.53,0.16 0.94,1.24 0.52,0.19 0.78,0.23 1.19,-0.07 0.47,0.99 1.75,0.98 1.2,-0.15 0.99,-0.03 0.41,-0.28 -0.07,-0.96 -0.41,-0.4 0.05,-0.78 0.4,-0.91 0.95,-0.51 1.06,-0.15 1.07,-1.23 0.49,-0.14 0.41,0.26 1.31,-0.99 -1.23,-2.02 0.6,-1.52 0.34,-0.56 0.37,-0.56 0.55,-0.54 0.73,0.23 1,-0.09 0.58,-1.01 0.69,-0.41 0.54,0.14 0.92,-0.48 0.1,-1.19 0.35,-0.58 -0.17,-1.4 1.22,-1.51 0.47,-1.07 0.13,-2.04 0.92,0.61 z"
     title="Lai Châu"
     id="VN-01"
 />
</svg>
