<?xml version="1.0" encoding="UTF-8" standalone="no"?>
<!-- Created for MapSVG plugin: http://mapsvg.com -->
<svg
   xmlns:mapsvg="http://mapsvg.com"
   xmlns:dc="http://purl.org/dc/elements/1.1/"
   xmlns:rdf="http://www.w3.org/1999/02/22-rdf-syntax-ns#"
   xmlns:svg="http://www.w3.org/2000/svg"
   xmlns="http://www.w3.org/2000/svg"
   mapsvg:geoViewBox="102.143498 23.393563 109.460943 8.562136"
   width="381.07504"
   height="800.61719"
>
  <path
     d="m 109.74847,31.493229 0.39,-0.28 0.65,0.37 -0.2,1 -0.6,2.41 0.14,0.64 0.56,0.75 0.06,0.66 0.46,0.01 1.2,0.67 1,-0.11 0.84,0.52 0.26,0.66 0,0 -0.3,1.15 1.31,0.87 1.89,-0.35 0.61,0.85 0.02,0.64 0.65,1.25 0.72,0.61 1.37,0.39 0.13,2.19 -0.47,0.19 -0.68,-0.3 -0.87,0.1 -0.21,1.71 -0.39,0.77 0.99,0.42 0.52,1.04 1.56,1.03 -0.46,0.84 -0.84,0.61 0.27,0.82 0.77,1.14 1.15,0.24 0.4,0.87 0.51,-0.03 2.1,1.26 0.34,0.52 -0.34,0.7 0.35,0.36 0.8,-0.07 0.59,0.36 -0.83,0.95 0.71,0.87 0.01,0.72 -1.03,1.06 -0.7,0.25 -0.13,0.34 0.45,1.55 0.56,0.2 0.61,-0.14 0.24,-0.39 0.38,0.12 0,0 -0.17,1.01 0.39,0.67 0.31,0.09 0.86,-0.43 0.76,0.35 -0.64,0.41 -0.06,0.45 0.58,1.77 -0.39,-0.34 -0.8,0.17 -0.21,-0.43 -0.47,0.02 -0.35,0.31 0,0.55 0.29,0.4 -0.43,0.28 0.23,0.62 -0.24,0.26 -0.1,0.98 0.22,0.49 -0.42,0.15 -0.15,0.66 -0.5,0.67 -0.67,-0.32 -0.21,-0.45 -0.92,-0.57 -0.61,-0.88 0,0 -0.58,-0.33 0,0 -1.03,-0.71 -0.67,-0.96 -0.69,-0.32 -0.29,-1.01 -0.69,0.01 -0.8,-0.76 -0.43,-0.06 -0.61,0.51 0.09,0.23 -0.34,0.15 -0.17,0.41 -0.64,0.07 0.4,0.89 0.39,0.16 0.13,0.53 -0.2,0.66 0.42,1.05 -0.26,-0.12 -0.54,0.84 -0.05,0.48 -0.54,0.22 0,1.11 -0.2,0.15 0.49,0.22 0.39,0.91 0.26,0.03 0.89,1.11 0.38,2.04 0.41,0.97 -0.16,1.04 0.27,0.55 -0.27,0.58 -2.07,1.3 -0.09,0.7 -1.64,1.35 -0.76,-0.58 -0.08,-0.4 -0.39,-0.34 -0.24,-1.09 -1.68,-0.51 -0.49,-0.7 -0.51,0.34 -0.94,0.12 -1.72,-0.91 -0.57,-0.05 -0.12,0.48 1.11,0.96 -0.18,0.74 0.18,0.42 -0.91,0.61 -0.95,0.22 -2.86,-0.49 -0.68,-0.58 -1.74,-0.53 -0.87,0.66 -1.819999,-0.69 -0.3,0.16 -1.35,-0.24 -0.68,-0.49 -0.35,-0.6 0.31,-0.42 -0.03,-0.51 -0.54,-0.69 0,0 -1.4,-1.8 0.44,-0.7 -0.63,-0.75 0.18,-1.31 -0.2,-0.75 -0.76,-1.05 0.34,-1.39 -0.43,-0.79 0.12,-1 -1.31,-0.34 -1.18,-1.44 -1.18,-0.37 -0.14,-0.31 0.33,-0.34 0,-0.53 -0.76,-0.39 -0.3,-0.76 -0.49,-0.32 -0.09,-1.22 -0.61,-0.72 -0.07,-0.43 -1.84,-1.73 -0.89,-0.21 -0.07,-0.39 -0.58,-0.19 0.53,-0.7 -0.12,-0.44 0.65,-0.36 -0.22,-0.2 0.1,-0.39 -0.67,-0.34 -0.07,-2 -0.93,-0.92 -1.02,-0.43 -1.37,0.53 -0.34,-0.13 -2.57,0.24 -0.86,0.42 -1.23,-0.69 -0.08,-0.9 -0.73,-0.22 -0.12,-0.45 -0.82,-0.68 -0.88,-1.2 0.62,-0.88 0.7,-0.45 0.7,-1.95 -0.61,-0.27 -0.73,-1.97 0.26,-0.59 -0.9,-0.44 -1.07,0.08 -0.27,-0.54 0,0 0.81,-1.03 0.3,-1.23 0.98,-0.39 0.43,-1.14 -0.78,-1.33 0.07,-1.04 1.66,-2.08 0.31,-0.71 0.32,-0.73 0.5,-0.32 -0.1,-0.62 0.25,-0.23 0.57,-0.08 0.35,-0.35 0.99,0.48 0.46,1.15 0.64,0.28 0.32,0.68 0.76,0.31 1.92,1.84 -0.11,0.55 0.58,0.38 0.1,0.34 0.93,0 2.34,2.8 0.59,1.27 0.78,0.6 0.52,0.75 0.71,0.42 0.73,1.11 0.35,0.13 0.41,-0.25 1.22,1.34 0.63,0.3 0.32,0.58 0.8,0.29 0.33,0.62 0.4,0.25 0.87,0.01 0.64,-0.69 0.66,0.11 0.39,-0.22 -0.31,-0.97 0.21,-0.31 0.04,-0.85 0.19,-1.14 0.89,-3.54 0.02,-0.62 -0.55,-0.32 -0.01,-0.86 0.51,-0.51 0.42,-2.18 0.39,-0.66 0.969999,-1.22 1.22,-0.81 0.31,-1.01 1.04,-1.27 0.67,-0.07 0.32,0.39 0.31,-0.01 0.74,-0.26 0.55,-0.58 0.54,0.06 0.94,-0.51 1.23,-0.12 1.31,-0.77 z"
     title="Lào Cai"
     id="VN-02"
 />
</svg>
