<?xml version="1.0" encoding="UTF-8" standalone="no"?>
<!-- Created for MapSVG plugin: http://mapsvg.com -->
<svg
   xmlns:mapsvg="http://mapsvg.com"
   xmlns:dc="http://purl.org/dc/elements/1.1/"
   xmlns:rdf="http://www.w3.org/1999/02/22-rdf-syntax-ns#"
   xmlns:svg="http://www.w3.org/2000/svg"
   xmlns="http://www.w3.org/2000/svg"
   mapsvg:geoViewBox="102.143498 23.393563 109.460943 8.562136"
   width="381.07504"
   height="800.61719"
>
  <path
     d="m 140.87847,68.103229 0.42,-0.75 0.19,0.09 0.19,-0.31 0.57,0.07 0.2,0.85 0.75,0.17 0.5,-1.58 0.11,-0.15 0.28,0.15 0.17,-0.27 -0.13,-0.88 0.35,-0.47 -0.05,-0.33 -0.45,-0.29 -0.09,-0.41 -0.77,-0.77 0.21,-0.22 0.51,0.06 0.35,-0.76 0.49,-0.11 -0.33,-0.32 0.13,-0.4 -0.36,-0.49 -0.72,-0.18 -0.29,-0.43 0.29,-0.38 0.14,-1.07 0.39,-0.08 0.57,0.95 1.05,0.03 0.63,0.69 0.97,0.08 0.72,-0.26 0.53,0.53 0.14,0.7 0.56,0.18 -0.11,0.79 0.3,0.97 0.26,-0.03 0.77,-0.84 0.94,-0.35 -0.17,-1.24 0.77,-0.08 0.05,-0.98 -0.48,-0.31 -0.55,-0.94 0.32,-0.26 1.87,0.19 0.18,-0.42 -0.72,-1.17 0.04,-0.28 0.18,-0.46 0.74,-0.04 0.5,-1.02 -0.25,-0.83 -0.48,-0.55 1.59,-0.94 -0.32,-0.51 0.05,-1.04 -0.26,-0.41 1.05,-2.53 -0.38,-1.74 -0.33,-0.43 1,-0.78 -0.33,-0.89 0.65,-0.47 0.2,-0.69 0.48,0.39 0.38,-0.19 -0.62,-1.59 -0.4,-0.32 -0.02,-0.44 -0.48,-0.31 0.26,-0.14 0.2,-0.89 0.47,-0.46 1.14,0.4 0.2,0.31 1.64,0.32 0.31,0.66 0.42,0.26 0.58,-0.16 0.58,0.44 0.12,0.41 0.36,-0.26 1.13,0.33 0.59,0.51 -0.1,0.22 0.32,0.52 -0.09,0.48 0.18,0.19 1.12,0.02 -0.01,0.28 0.29,0.22 0.06,-1.03 0.27,-0.13 0.09,-0.68 0.28,-0.18 1.63,0.05 1.21,0.67 0.52,-0.16 0.78,1.02 1.01,0.16 0.41,0.27 -0.02,-0.26 0.29,-0.05 0,0.29 0.22,-0.44 0.22,0.29 1.33,-0.73 0.54,0.12 0.61,-0.88 0,0 0.8,-0.13 0.91,0.17 0,0 -0.14,0.78 1.04,1.12 -0.13,0.61 0.28,0.69 0.36,0.18 0.23,0.62 0.77,0.15 0.68,0.89 0.36,1.15 -0.33,0.81 0.35,1.07 -2,1.49 -0.19,1.36 -0.39,0.03 0.29,0.53 -0.21,0.42 0.14,0.49 0.34,0.1 0.61,-0.51 -0.4,0.86 -1.45,-0.21 -0.9,0.4 0.08,0.6 -0.33,0.76 0.18,0.54 -0.15,1 -0.93,0.41 0.07,1.18 -0.78,0.18 -0.19,0.48 0.68,0.83 -1.66,0.54 0.66,0.58 -0.5,0.48 -0.49,-0.19 -0.94,0.52 0.16,0.24 -0.14,0.85 0.27,0.51 -0.29,0.14 -0.05,0.59 -0.19,0.05 1,1.43 0.31,0.22 0.2,-0.15 0.21,0.46 -0.09,0.67 0.35,0.46 0.37,-0.15 0.89,0.34 0.01,0.39 -0.6,0.25 -0.38,0.51 0.03,0.59 -0.3,0.09 -0.34,0.54 0.1,0.63 0.52,0.37 -0.35,0.44 0.07,0.47 -0.34,0.37 0.56,0.36 0.07,0.54 0.65,0.6 0.35,2.02 0.6,0.2 -0.04,0.86 0.32,0.14 0.05,0.3 0.22,-0.15 0.44,0.31 0.4,0.77 0.98,0.28 0.22,0.29 0,0 -0.34,0.55 0.19,2.19 -0.4,0.24 -0.07,0.71 -1,0.2 -0.32,0.62 0.53,1.35 -0.02,0.95 -0.59,0.48 -0.54,-0.34 -0.5,0.05 -0.15,0.23 -0.04,1.3 0.25,0.63 -0.18,1.02 0.3,0.24 0.82,-0.21 0.51,0.36 -0.42,0.69 -0.45,0.28 0.36,0.76 -0.62,0.39 -0.74,1.47 -0.63,0.32 0.53,0.49 -0.06,0.45 -0.39,0.37 0.57,1.69 0.51,0.64 -0.18,0.76 0.94,0.910001 0.63,1.08 0.48,0.07 0.34,0.42 0,0 -0.63,0.87 -0.47,1.29 -0.49,-0.08 -0.7,0.62 -0.25,-0.16 -0.34,0.59 -0.69,-0.35 -0.27,0.35 -0.53,-0.05 -0.16,0.42 -1.3,0.27 -0.36,0.47 -0.6,-0.84 -1.12,0.07 -0.2,-0.46 -0.8,-0.27 -0.61,0.32 -0.8,0.02 -0.38,0.55 0.19,0.27 -0.81,-0.18 0,0 -0.13,-0.23 -0.71,0.22 -0.38,-0.12 -0.26,-0.67 0.12,-0.55 -1.58,-0.83 0.29,-0.82 -0.63,-0.37 -0.59,-0.94 -0.25,-0.75 0.41,-0.25 -0.13,-0.48 -0.87,-0.350001 -0.42,-0.68 0.68,-0.82 -0.2,-0.8 -1.58,-0.21 -0.54,-0.39 -0.13,-0.41 -0.67,-0.3 -0.09,-0.27 -0.63,-0.07 -0.52,0.39 0.05,-0.34 -0.44,-0.68 -0.78,0.16 -0.49,-0.43 -0.75,-0.08 -0.39,-0.65 -0.8,-0.03 0,0 -0.13,-0.31 -0.38,0.06 -0.02,-0.72 -1.02,-0.67 0.68,-0.23 0.23,-0.32 0.36,-0.77 -0.5,-0.51 0.47,-0.35 0.4,-1.1 0.6,-0.43 -0.57,-0.78 -0.65,-0.17 -0.93,-1.51 -0.73,-0.35 -0.1,-1.01 -0.28,-0.47 -0.58,-0.03 -0.59,-0.35 -0.01,-0.51 0.41,-0.56 -0.15,-1.03 -0.49,-0.08 -0.64,0.48 -0.57,-0.44 0.15,-0.49 0,0 0.21,-0.39 0,0 -0.05,-1.1 0.38,-0.89 -0.47,-0.32 -0.06,-0.5 0.35,-0.68 -0.21,-0.31 0.28,-1.25 -0.4,-0.13 -0.86,0.24 -0.31,0.53 -0.3,0.11 -0.3,-0.31 -0.49,-0.04 -0.31,-0.48 0.05,-0.45 -0.36,-0.35 -0.37,-0.18 -0.49,0.17 -0.29,-0.37 -0.5,0.09 -0.34,-0.41 -0.76,-0.07 -0.89,-1.38 -0.27,-1.75 0.21,-0.78 -0.5,-0.83 0.08,-0.72 z"
     title="Tuyên Quang"
     id="VN-07"
 />
</svg>
