<?xml version="1.0" encoding="UTF-8" standalone="no"?>
<!-- Created for MapSVG plugin: http://mapsvg.com -->
<svg
   xmlns:mapsvg="http://mapsvg.com"
   xmlns:dc="http://purl.org/dc/elements/1.1/"
   xmlns:rdf="http://www.w3.org/1999/02/22-rdf-syntax-ns#"
   xmlns:svg="http://www.w3.org/2000/svg"
   xmlns="http://www.w3.org/2000/svg"
   mapsvg:geoViewBox="102.143498 23.393563 109.460943 8.562136"
   width="381.07504"
   height="800.61719"
>
  <path
     d="m 127.26847,64.503229 -0.08,-0.8 1.08,-1.5 0.39,-0.04 0.18,0.24 0.63,0.01 0.65,0.56 0.44,-0.19 0.51,0.38 0.51,-0.18 0.34,0.66 0.47,0.19 0.97,-0.14 0.93,0.37 0.39,1.25 0,0.53 -0.48,0.6 0.2,0.84 0.51,0.11 0.39,0.69 0.7,0 0.05,0.65 0.35,0.35 0.88,0.1 -0.01,-0.29 0.2,-0.09 0.85,0.14 0.69,-0.15 0.31,-0.4 -0.09,-0.33 0.67,0.47 0.98,-0.43 0,0 0.34,0.83 -0.08,0.72 0.5,0.83 -0.21,0.78 0.27,1.75 0.89,1.38 0.76,0.07 0.34,0.41 0.5,-0.09 0.29,0.37 0.49,-0.17 0.37,0.18 0.36,0.35 -0.05,0.45 0.31,0.48 0.49,0.04 0.3,0.31 0.3,-0.11 0.31,-0.53 0.86,-0.24 0.4,0.13 -0.28,1.25 0.21,0.31 -0.35,0.68 0.06,0.5 0.47,0.32 -0.38,0.89 0.05,1.1 0,0 -0.21,0.39 0,0 -0.15,0.49 0.57,0.44 0.64,-0.48 0.49,0.08 0.15,1.03 -0.41,0.56 0.01,0.51 0.59,0.35 0.58,0.03 0.28,0.47 0.1,1.01 0.73,0.35 0.93,1.51 0.65,0.17 0.57,0.78 -0.6,0.43 -0.4,1.1 -0.47,0.35 0.5,0.51 -0.36,0.77 -0.23,0.32 -0.68,0.23 1.02,0.67 0.02,0.72 0.38,-0.06 0.13,0.31 0,0 0.29,0.33 -0.27,0.56 0.5,0.11 0.19,0.59 -0.28,0.64 -0.37,-0.27 -0.78,0.05 -0.58,-0.42 -0.17,0.23 -0.44,-0.14 -0.99,-0.74 -0.25,0.33 -0.26,-0.04 -0.08,0.46 -1.02,0.02 0.06,0.44 -1.08,0.4 0.33,0.24 -0.04,0.34 -0.65,0.29 -0.07,0.59 -0.79,-0.82 -0.96,0.5 -0.18,0.54 -0.77,0.09 -0.5,0.35 -0.31,0.57 0.1,0.860001 -0.97,-0.2 0.32,0.43 0.26,2.22 -0.62,0.41 -0.72,0.06 -0.26,0.44 0.03,0.34 0.51,0.38 0.36,0.7 -0.02,1.25 0.64,1.75 0.77,1.26 0,0.68 -0.32,0.34 0.11,0.74 -0.67,1.19 -0.61,0.11 -0.07,0.46 0.13,0.6 0.47,0.38 0.37,0.79 -0.23,0.37 -0.69,0.12 -0.74,-0.64 -0.26,-0.62 -0.26,-0.02 -0.27,0.31 0.03,0.43 -0.49,0.01 0.25,0.7 -1.44,0.02 -0.28,0.21 0,0 -0.68,0.22 -0.5,-0.22 -0.78,0.49 -0.52,-0.24 -0.02,-0.87 -0.59,-0.11 -0.01,-0.28 -0.38,0.08 -0.09,-0.88 -0.69,-0.8 -0.06,-1.38 -0.66,0.38 -0.54,0 -0.29,-0.32 -0.39,0.31 -0.36,-0.02 -0.14,1.04 -0.54,0.35 -1.29,-0.56 -0.39,0.09 -1.53,-1.02 -0.47,-0.74 -0.92,-0.41 -0.34,0.25 -0.17,0.54 -0.49,-0.25 -0.5,0.22 -1.61,-0.23 -1.31,2.04 -1.43,1.32 -0.39,0.08 -1.28,-0.36 -0.67,0.22 -0.61,-0.5 -0.1,-0.99 -1.08,-0.65 -0.3,-0.43 -0.47,-0.14 -0.79,0.17 -1.01,-1.04 -0.29,0.15 0.08,0.31 -0.64,0.11 -0.61,-1.14 -1.07,-0.59 0.16,-0.87 -0.75,-0.48 -0.25,-0.47 0.1,-1.11 0.53,-1.05 -0.08,-0.82 -0.86,-1.43 0.62,-0.96 0.47,-0.16 -0.54,-1.57 0.95,-0.48 1.3,-1.630001 0.49,-0.22 -0.06,-0.64 -1.23,-0.19 -0.96,0.19 -0.45,-0.48 -1.44,-0.1 -0.32,-0.4 -1.8,-0.12 -0.35,0.14 -0.47,0.81 -0.56,0.46 -0.98,-0.07 -0.84,-0.38 -1.69,0.18 -0.58,0.32 -0.65,-0.05 -0.64,0.26 -0.65,-0.44 -1.479999,-0.38 -1.1,-0.83 -0.05,0.19 -0.58,-0.07 -0.39,0.24 -0.13,-0.35 -0.51,-0.19 -0.43,0.1 -0.15,-0.23 -0.82,0.79 -0.36,-0.32 -1.27,0 0.03,-1.18 -0.77,-0.47 0,0 -0.11,-0.53 -0.53,-0.39 0.37,-0.68 -0.15,-0.67 0.87,-0.16 0.31,0.21 0.56,-0.27 0.27,0.15 -0.11,-0.72 0.61,-0.1 0.25,-0.75 -0.86,-1.05 0.05,-0.51 -0.43,-0.7 -1.37,-1.04 0.07,-0.53 -1.57,-1.51 -0.16,-2.32 0.4,-0.77 0.66,-0.04 0.68,-0.6 0.49,0.5 0.73,0.31 0.91,-0.99 0.08,-0.57 0.47,-0.75 0.75,-0.43 0,0 0.54,0.69 0.03,0.51 -0.31,0.42 0.35,0.6 0.68,0.49 1.35,0.24 0.3,-0.16 1.819999,0.69 0.87,-0.66 1.74,0.53 0.68,0.58 2.86,0.49 0.95,-0.22 0.91,-0.61 -0.18,-0.42 0.18,-0.74 -1.11,-0.96 0.12,-0.48 0.57,0.05 1.72,0.91 0.94,-0.12 0.51,-0.34 0.49,0.7 1.68,0.51 0.24,1.09 0.39,0.34 0.08,0.4 0.76,0.58 1.64,-1.35 0.09,-0.7 2.07,-1.3 0.27,-0.58 -0.27,-0.55 0.16,-1.04 -0.41,-0.97 -0.38,-2.04 -0.89,-1.11 -0.26,-0.03 -0.39,-0.91 -0.49,-0.22 0.2,-0.15 0,-1.11 0.54,-0.22 0.05,-0.48 0.54,-0.84 0.26,0.12 -0.42,-1.05 0.2,-0.66 -0.13,-0.53 -0.39,-0.16 -0.4,-0.89 0.64,-0.07 0.17,-0.41 0.34,-0.15 -0.09,-0.23 0.61,-0.51 0.43,0.06 0.8,0.76 0.69,-0.01 0.29,1.01 0.69,0.32 0.67,0.96 1.03,0.71 0,0 0.58,0.33 0,0 0.61,0.88 0.92,0.57 0.21,0.45 0.67,0.32 0.5,-0.67 0.15,-0.66 0.42,-0.15 -0.22,-0.49 0.1,-0.98 0.24,-0.26 -0.23,-0.62 0.43,-0.28 -0.29,-0.4 0,-0.55 0.35,-0.31 0.47,-0.02 0.21,0.43 0.8,-0.17 0.39,0.34 -0.58,-1.77 0.06,-0.45 0.64,-0.41 -0.76,-0.35 -0.86,0.43 -0.31,-0.09 -0.39,-0.67 z"
     title="Yên Bái"
     id="VN-06"
 />
</svg>
