<?xml version="1.0" encoding="UTF-8" standalone="no"?>
<!-- Created for MapSVG plugin: http://mapsvg.com -->
<svg
   xmlns:mapsvg="http://mapsvg.com"
   xmlns:dc="http://purl.org/dc/elements/1.1/"
   xmlns:rdf="http://www.w3.org/1999/02/22-rdf-syntax-ns#"
   xmlns:svg="http://www.w3.org/2000/svg"
   xmlns="http://www.w3.org/2000/svg"
   mapsvg:geoViewBox="102.143498 23.393563 109.460943 8.562136"
   width="381.07504"
   height="800.61719"
>
  <path
     d="m 166.03847,0.9232294 0.91,0.8 0.14,1.33 0.97,1.47 0.76,0.15 1.28,1.48 0.78,-0.26 0.25,-0.44 0.45,0.02 0.43,0.52 0.29,0.91 0.79,0.89 0.75,0.1 -0.09,0.72 0.64,0.74 -0.05,0.6899996 0.51,0.78 0.01,0.37 1.09,0.51 1.08,-0.12 0.64,0.45 0.13,0.63 0.63,0.67 0.67,0.22 0.12,0.46 0.35,0.26 -1.43,1.53 0,0 -0.7,0.51 -1.19,0.1 -0.57,1.37 0.12,0.47 -0.62,0.87 -0.24,1.02 -0.45,0.5 -0.33,1.33 -1.06,0.12 -0.95,0.47 -1.65,-0.12 -0.27,0.35 -0.69,0.22 -1.27,0.07 -0.71,0.69 -0.04,0.34 0.3,0.41 -0.3,0.88 0.21,0.46 -0.3,0.24 -1.16,0.21 -0.65,0.95 -0.64,0.12 -0.3,0.79 0.04,1.39 -1.82,-0.12 0.07,0.86 0.57,0.31 1.27,0.21 0.54,0.73 1.25,0.64 0.17,0.61 0.79,-0.05 1.33,0.37 0.69,0.95 1.11,0.51 0.21,0.41 0.9,0.28 0.46,0.79 1.12,0.23 0.73,2.63 0.63,0.69 -0.54,0.39 -0.14,0.66 0.48,1.02 0.14,1.31 0,0 -0.61,0.88 -0.54,-0.12 -1.33,0.73 -0.22,-0.29 -0.22,0.44 0,-0.29 -0.29,0.05 0.02,0.26 -0.41,-0.27 -1.01,-0.16 -0.78,-1.02 -0.52,0.16 -1.21,-0.67 -1.63,-0.05 -0.28,0.18 -0.09,0.68 -0.27,0.13 -0.06,1.03 -0.29,-0.22 0.01,-0.28 -1.12,-0.02 -0.18,-0.19 0.09,-0.48 -0.32,-0.52 0.1,-0.22 -0.59,-0.51 -1.13,-0.33 -0.36,0.26 -0.12,-0.41 -0.58,-0.44 -0.58,0.16 -0.42,-0.26 -0.31,-0.66 -1.64,-0.32 -0.2,-0.31 -1.14,-0.4 -0.47,0.46 -0.2,0.89 -0.26,0.14 0.48,0.31 0.02,0.44 0.4,0.32 0.62,1.59 -0.38,0.19 -0.48,-0.39 -0.2,0.69 -0.65,0.47 0.33,0.89 -1,0.78 0.33,0.43 0.38,1.74 -1.05,2.53 0.26,0.41 -0.05,1.04 0.32,0.51 -1.59,0.94 0.48,0.55 0.25,0.83 -0.5,1.02 -0.74,0.04 -0.18,0.46 -0.04,0.28 0.72,1.17 -0.18,0.42 -1.87,-0.19 -0.32,0.26 0.55,0.94 0.48,0.31 -0.05,0.98 -0.77,0.08 0.17,1.24 -0.94,0.35 -0.77,0.84 -0.26,0.03 -0.3,-0.97 0.11,-0.79 -0.56,-0.18 -0.14,-0.7 -0.53,-0.53 -0.72,0.26 -0.97,-0.08 -0.63,-0.69 -1.05,-0.03 -0.57,-0.95 -0.39,0.08 -0.14,1.07 -0.29,0.38 0.29,0.43 0.72,0.18 0.36,0.49 -0.13,0.4 0.33,0.32 -0.49,0.11 -0.35,0.76 -0.51,-0.06 -0.21,0.22 0.77,0.77 0.09,0.41 0.45,0.29 0.05,0.33 -0.35,0.47 0.13,0.88 -0.17,0.27 -0.28,-0.15 -0.11,0.15 -0.5,1.58 -0.75,-0.17 -0.2,-0.85 -0.57,-0.07 -0.19,0.31 -0.19,-0.09 -0.42,0.75 0,0 0,0 0,0 0,0 0,0 -0.98,0.43 -0.67,-0.47 0.09,0.33 -0.31,0.4 -0.69,0.15 -0.85,-0.14 -0.2,0.09 0.01,0.29 -0.88,-0.1 -0.35,-0.35 -0.05,-0.65 -0.7,0 -0.39,-0.69 -0.51,-0.11 -0.2,-0.84 0.48,-0.6 0,-0.53 -0.39,-1.25 -0.93,-0.37 -0.97,0.14 -0.47,-0.19 -0.34,-0.66 -0.51,0.18 -0.51,-0.38 -0.44,0.19 -0.65,-0.56 -0.63,-0.01 -0.18,-0.24 -0.39,0.04 -1.08,1.5 0.08,0.8 0,0 -0.38,-0.12 -0.24,0.39 -0.61,0.14 -0.56,-0.2 -0.45,-1.55 0.13,-0.34 0.7,-0.25 1.03,-1.06 -0.01,-0.72 -0.71,-0.87 0.83,-0.95 -0.59,-0.36 -0.8,0.07 -0.35,-0.36 0.34,-0.7 -0.34,-0.52 -2.1,-1.26 -0.51,0.03 -0.4,-0.87 -1.15,-0.24 -0.77,-1.14 -0.27,-0.82 0.84,-0.61 0.46,-0.84 -1.56,-1.03 -0.52,-1.04 -0.99,-0.42 0.39,-0.77 0.21,-1.71 0.87,-0.1 0.68,0.3 0.47,-0.19 -0.13,-2.19 -1.37,-0.39 -0.72,-0.61 -0.65,-1.25 -0.02,-0.64 -0.61,-0.85 -1.89,0.35 -1.31,-0.87 0.3,-1.15 0,0 0.79,0.97 1.13,-0.1 0.48,-0.6 0.57,0.15 0.59,-1.39 0.76,-0.66 2.43,-1.08 1.45,-1.6 0.95,-0.57 0.59,-1.26 0.44,-0.44 0.49,-0.71 1.61,-0.77 0.64,0.02 0.35,0.33 0.38,1.02 -0.33,0.28 0.06,0.39 0.9,-0.14 0.38,-0.63 -0.3,-0.33 0.31,-0.59 0.38,0.59 1.31,0.15 0.86,0.88 1.48,-0.48 1.17,0.34 0.44,-0.16 0.19,-0.48 -0.55,-1.06 0.67,-0.48 0.96,0.02 1.1,-2.58 0.72,-0.06 1.55,-1 1,0.09 1.12,-1.43 -0.58,-0.94 -0.65,-0.51 -0.46,-0.52 0.02,-0.93 -0.06,-1.5 -0.43,-0.63 -0.33,-1.22 -0.09,-0.74 -0.31,-0.63 -0.24,-2.16 -0.32,-0.41 1.74,-0.35 0.56,0.28 0.73,-0.15 0.35,0.17 0.65,0.12 0.47,-0.98 -0.06,-1.15 0.53,-0.59 1.33,-0.53 1.72,0.71 0.37,-0.57 0.14,-1.26 1.34,-0.33 0.14,0.39 0.5,-0.01 0.39,-0.8 1.09,-0.17 0.96,-0.8599996 0.47,-0.77 0.75,-0.41 0.91,-0.71 0.72,0.27 0.28,0.52 -0.16,0.37 0.63,0.15 0.69,-0.43 0.4,-0.21 1.14,-0.5 0.59,-0.88 0.26,-0.32 0.47,0.08 0.88,0.4 0.12,0.4 0.59,0.32 0.68,-0.2 0.22,-0.28 0.28,-0.58 0.81,-0.69 -0.02,-0.6 0.4,-0.28 -0.39,-1.02 0.16,-0.32 0.27,-0.3 0.75,0.19 0.54,-0.16 0.21,-0.86 0.56,-0.59 -0.04,-0.56 -0.46,0.06 -0.15,-0.31 0.7,-0.2 0.57,0.24 0.7,-0.61 z"
     title="Hà Giang"
     id="VN-03"
 />
</svg>
