<?xml version="1.0" encoding="UTF-8" standalone="no"?>
<!-- Created for MapSVG plugin: http://mapsvg.com -->
<svg
   xmlns:mapsvg="http://mapsvg.com"
   xmlns:dc="http://purl.org/dc/elements/1.1/"
   xmlns:rdf="http://www.w3.org/1999/02/22-rdf-syntax-ns#"
   xmlns:svg="http://www.w3.org/2000/svg"
   xmlns="http://www.w3.org/2000/svg"
   mapsvg:geoViewBox="102.143498 23.393563 109.460943 8.562136"
   width="381.07504"
   height="800.61719"
>
  <path
     d="m 210.42847,56.703229 0.36,-1.49 0.66,-1.27 0.26,-0.14 0,0 0.31,-0.62 0,0 0.76,-0.18 0.43,-0.35 1.01,0.61 0.28,-0.16 0.65,0.31 0.57,1.17 0.43,0.06 0.88,0.89 0.39,0.11 0.42,-0.27 0.26,0.15 0,0.46 0.57,0.56 -0.17,0.92 1.08,1.03 0.84,-0.14 0.94,-0.8 0.23,0.2 0.71,0.01 0.57,0.6 0.57,-0.25 0.79,0.38 0.8,-0.13 1.08,-0.54 0.07,-0.39 -0.5,-0.19 0.58,-0.28 -0.35,-0.34 0.51,-0.26 -0.14,-0.37 0.72,-0.2 0.78,0.39 0.66,-0.54 -0.21,-0.28 0.38,-0.35 1.36,-0.15 0,0 0.54,1.02 0.71,0.52 0.18,0.74 -0.89,0.69 0.17,0.53 -0.78,0.55 0.58,0.44 0.91,-0.15 0.76,0.38 0.53,-0.14 1.18,-0.02 0.88,0.02 0.38,0.31 -0.15,0.37 0.57,0.93 -0.08,0.58 0.74,0.61 0.58,0.75 -0.37,0.63 0.31,0.38 0.08,0.87 0.55,0.9 0,0.37 -0.32,0.78 -0.25,0.21 -0.55,-0.06 -0.17,0.63 -0.43,0.37 0.85,1.16 0.43,0.18 0.43,-0.11 0.16,0.19 0,0.3 -0.44,0.07 -0.33,0.81 0.37,1.78 0.56,0.21 0.22,0.42 -0.3,1.26 0.21,0.46 -0.72,0.69 -0.02,0.48 0.43,0.34 0.12,0.78 -1.18,1.09 -0.08,0.47 0.08,0.88 0.35,0.41 0.57,0.36 0.88,-0.41 0.94,-1.88 1.48,-0.3 0.99,0.37 0.16,0.73 0.77,0.3 0.1,0.64 0.34,0.17 1.09,-0.04 0.74,-0.29 0.85,-0.07 1.16,0.05 0.99,0.48 0.66,-0.2 0.32,0.59 -0.07,0.6 0.38,0.68 -0.01,0.54 1.2,-0.11 0.05,0.48 0.42,0.31 0.95,-0.42 0.74,-1.47 0.36,0.53 0.91,-0.09 1.12,0.84 1.04,-0.08 0.29,1.16 -0.34,0.49 0.21,0.5 -0.58,0.66 -0.63,0.18 -0.84,0.78 0.2,0.29 0.68,0.23 -1,1.56 0.2,0.38 1.93,0.59 1.21,-0.01 0.28,0.53 1.17,0.4 0.47,0.72 0.59,0.24 0.36,0.72 1.03,0.34 0.64,0.24 0.64,0.33 0.44,0.64 0.87,0.74 1.18,0.83 0.77,0.17 0.15,-0.71 0.72,-0.69 0.82,-0.28 0.42,-0.15 0.75,-0.27 0.33,0.63 0.74,0.29 -0.15,0.55 0.21,0.54 0.53,0.36 0.57,1.24 0.66,0.39 0.31,1.68 -0.46,0.75 0.29,0.49 -0.19,0.600001 0.26,0.38 0,0 -1.26,0.63 -0.42,0.03 -0.42,-0.36 -0.44,0.22 -0.21,-0.36 -0.64,0.14 -0.25,0.11 -0.17,0.58 -0.31,0.2 0.01,0.47 -0.34,0.33 -0.98,0.02 -0.62,0.78 -0.68,-0.34 -0.38,0.18 -0.24,-0.12 -0.88,0.65 0.37,0.6 0.27,-0.04 0.26,0.3 0.07,0.39 0.42,-0.13 0.14,0.15 0.24,0.72 -0.1,0.57 0.52,0.77 -0.35,0.52 0.12,0.4 -0.19,0.36 0.11,0.69 0.26,0.19 -0.19,0.5 0.74,0.88 0.1,0.83 0.36,0.19 -0.63,1.87 -0.63,0.13 -0.27,-0.52 -0.99,-0.86 -0.66,0.56 -0.92,0.18 -0.93,0.7 -0.57,-0.29 -0.53,0.22 -0.27,-0.1 0.07,-0.18 -0.85,0.01 -1.29,-0.42 -0.27,0.18 -0.11,0.8 -0.52,0.23 -0.31,0.48 -0.81,-0.11 -0.59,0.72 0,0.32 -1.02,0.24 0,0 -0.52,-0.35 -0.22,-0.73 -1.59,-0.82 0.29,-0.98 -0.4,-1.33 0.31,-0.37 -0.03,-0.33 0.68,-0.43 -0.63,-0.47 -0.28,-0.54 -0.91,0.2 -0.81,0.72 -0.46,-0.64 -0.83,0.51 0.07,-0.61 -0.19,-0.23 -0.5,0.58 -0.28,-0.01 -1.04,-1.18 0.05,-0.45 0.5,-0.6 -0.52,-0.36 -0.14,-0.74 -1.08,-0.39 -0.78,0.1 -0.07,-0.24 -0.34,0.28 -0.29,-0.97 0.54,-0.25 0.12,-0.48 0.36,0.17 0.3,-0.6 -0.76,-0.47 -0.37,-1.01 -1.13,-0.16 -0.81,0.18 -0.68,-0.39 -0.34,-0.59 -1.39,0.37 -0.21,0.48 0.3,0.42 -0.16,0.06 0,0.48 -0.15,0.2 -0.67,-0.06 -0.48,-0.18 -0.37,-0.57 -0.84,-0.3 -0.54,-0.59 0.15,-1.21 -1.69,-0.88 -0.75,0.31 -0.57,-0.17 -0.48,0.32 -1.05,-0.4 -1.29,0.52 -1.02,-0.22 -0.33,0.41 -0.4,0.09 -0.77,1.29 -0.75,0.65 -0.3,1.26 -0.74,0.63 0.71,1.37 -0.61,0.73 -0.79,0.24 -0.62,1.87 -0.49,0.06 -0.48,0.6 -0.57,-0.13 -0.45,0.17 -0.31,-0.41 -0.31,0.32 -0.75,0.03 -0.68,0.6 0.53,0.59 -0.04,0.47 -0.74,0.12 0,0 -0.25,-0.01 -0.42,0.45 0,0 -0.52,0.2 -0.55,-0.3 -0.25,0.18 0,0 -0.35,-0.08 0,0 -0.2,0.09 -0.27,-0.3 -0.29,0.21 -0.29,-0.39 0,0 -0.3,-0.2 0,0 -0.27,-0.31 0.44,-1.23 -0.22,-0.63 -0.64,0.14 -0.29,-0.41 -0.33,0.21 0.09,0.31 -0.39,-0.22 -0.16,0.18 -0.35,-0.34 0.07,-0.36 -0.32,0.19 0.14,-0.87 -0.21,-0.27 0.29,-1.02 -0.72,-0.13 -0.68,0.17 0,0 -0.23,0.2 0,0 -0.37,-0.03 -0.26,0.31 -0.38,-0.72 -1.4,-0.12 -2.19,-0.87 0.05,-4.56 0.82,-0.52 0,0 0.66,-0.900001 -0.13,-0.36 0.16,-0.34 -0.3,-0.24 -0.05,-0.49 1.78,-1.88 -0.07,-0.65 0.43,-0.41 0.05,-0.52 0,0 0.22,-0.43 -0.15,-0.65 -0.51,-0.31 -0.36,0.34 -0.36,-0.1 0,0 -0.75,-0.38 -0.12,-0.33 -0.67,-0.1 0,0 -0.68,-0.36 0,0 -0.04,-0.26 -0.97,-0.37 -0.63,-1.32 -0.92,0.2 0,0 -0.38,-0.01 -0.04,-0.31 0,0 -0.25,-0.19 0.06,-0.7 -0.63,-0.99 0.3,-0.54 0.35,-0.09 -0.03,-0.48 0.55,-0.14 -0.32,-0.35 -0.06,-0.61 0.25,-0.57 -0.12,-1.1 0.74,-0.51 0.22,-1.16 -1.72,-0.96 0,0 0.69,-0.69 -0.68,-0.07 0,-0.44 0,0 0.29,-0.1 0,0 0.41,-0.09 0.17,-0.86 -0.06,-0.87 -0.35,-0.23 0.18,-0.93 -0.81,-1.22 0.38,-0.49 -0.13,-1.48 0.41,-0.26 0.32,0.19 0.47,-0.69 1.76,0.2 0.29,-1.17 0.34,-0.5 0.38,0.06 0.45,-0.4 -0.22,-0.64 0.54,-0.83 0.27,0.05 1.04,-1.3 0.48,-0.18 0.41,-0.51 -0.65,-1.04 0,-0.56 0.55,-0.73 0.3,-0.08 0.49,-1.94 -0.1,-0.59 -0.53,-0.66 -0.53,-0.21 -0.2,-0.43 -0.21,0.14 -0.25,-0.15 -0.37,-0.63 -0.27,-0.65 0.32,-1.04 0,0 0.16,-0.31 0,0 0.54,-0.55 -0.07,-0.51 -0.48,-0.65 -1.11,-0.64 z"
     title="Lạng Sơn"
     id="VN-09"
 />
</svg>
