<?xml version="1.0" encoding="UTF-8" standalone="no"?>
<!-- Created for MapSVG plugin: http://mapsvg.com -->
<svg
   xmlns:mapsvg="http://mapsvg.com"
   xmlns:dc="http://purl.org/dc/elements/1.1/"
   xmlns:rdf="http://www.w3.org/1999/02/22-rdf-syntax-ns#"
   xmlns:svg="http://www.w3.org/2000/svg"
   xmlns="http://www.w3.org/2000/svg"
   mapsvg:geoViewBox="102.143498 23.393563 109.460943 8.562136"
   width="381.07504"
   height="800.61719"
>
  <path
     d="m 70.638471,80.133229 0.2,-0.54 0.47,-0.26 0.23,-0.43 -0.09,-1.01 0.67,-0.75 1,-0.28 0.53,0.38 2.7,0.59 0.29,0.56 0.91,0.68 1.14,0.05 0.44,0.69 0.28,1.47 1.22,0.59 -0.28,1.03 1.17,1 -0.04,1.03 0.49,0 0.05,0.27 0.34,0.08 -0.89,2.04 -0.47,0.22 0.01,0.71 0.79,0.26 0.68,0.82 0.34,-0.24 1.47,0.14 -0.31,1.17 0.08,0.47 1.23,-0.01 0.22,0.87 0.36,0 0.92,1.43 0.31,-0.17 0.71,0.29 0.37,-0.46 0.24,2.08 0.52,0.29 0.27,0.51 1.32,0.28 0.15,-1.27 0.37,0.44 0.82,0.39 0.89,-0.33 0,0 0.77,0.47 -0.03,1.18 1.26,-0.01 0.37,0.33 0.81,-0.79 0.16,0.23 0.43,-0.1 0.52,0.19 0.12,0.35 0.39,-0.25 0.59,0.07 0.05,-0.18 1.1,0.83 1.479999,0.38 0.65,0.45 0.64,-0.27 0.65,0.05 0.58,-0.31 1.68,-0.19 0.84,0.39 0.98,0.06 0.55,-0.45 0.47,-0.81 0.35,-0.14 1.8,0.12 0.33,0.41 1.43,0.1 0.45,0.48 0.96,-0.19 1.23,0.18 0.06,0.65 -0.49,0.22 -1.3,1.630001 -0.95,0.48 0.54,1.57 -0.47,0.15 -0.62,0.96 0.86,1.43 0.08,0.82 -0.53,1.05 -0.1,1.11 0.25,0.47 0.76,0.48 -0.16,0.88 1.07,0.58 0.62,1.15 0.64,-0.11 -0.08,-0.31 0.3,-0.15 1.01,1.04 0.78,-0.16 0.47,0.14 0.3,0.43 1.08,0.65 0.1,0.99 0.62,0.51 0.67,-0.22 1.28,0.36 0.38,-0.08 1.44,-1.32 1.3,-2.03 1.61,0.23 0.5,-0.22 0.49,0.25 0.17,-0.53 0.34,-0.25 0.92,0.41 0.47,0.74 1.53,1.02 0.39,-0.09 1.29,0.56 0.54,-0.35 0.13,-1.03 0.36,0.01 0.39,-0.31 0.29,0.32 0.54,0.01 0.66,-0.38 0.06,1.38 0.69,0.8 0.09,0.88 0.38,-0.07 0.01,0.27 0.6,0.11 0.02,0.87 0.51,0.24 0.78,-0.48 0.5,0.22 0.68,-0.23 0,0 0.15,0.71 1.27,0.75 -0.1,2.6 0.46,0.37 -0.04,0.55 0.33,0.74 -0.29,0 -0.27,0.43 0.6,0.33 0.41,0.65 -0.65,1.53 0.39,0.35 -0.33,1.21 0.2,0.27 0.64,0.13 0.6,0.6 0.77,0.24 0.42,0.54 0.44,0.11 0.09,0.3 -0.15,0.01 0,0 -1,0.21 -0.82,0.49 -0.46,1.26 -0.54,-0.21 -0.23,0.16 0.28,1.29 0.49,1.27 0.71,0.43 0.45,0.73 0.28,1.22 1.38,1.24 0.93,1.8 2.02,1.46 0.07,0.77 1.13,2 -0.22,0.53 0.48,0.09 -0.1,1.02 -0.94,0.68 0.38,0.15 0.43,-0.15 1.22,0.65 -0.66,0.94 -0.37,-0.22 -0.36,1.33 -0.35,0.36 0.11,0.44 1.02,0.53 -0.01,0.43 -0.5,0.23 -0.91,0.1 -0.33,-0.18 -0.35,0.21 -0.99,-0.72 -0.4,0.2 -0.37,-0.44 -0.8,0.02 -0.35,-0.52 -0.7,-0.03 -1.12,-0.76 -0.4,0 -0.78,0.77 -1.06,0.22 -0.12,0.83 0.42,0.2 -0.32,0.86 0.55,0.68 -0.67,0.34 0.27,0.62 -0.24,1.41 0.49,0.44 0,0 0.06,0.14 -1.4,0.77 -0.2,0.31 -0.2,-0.13 -0.71,0.79 0.12,2.01 0,0 -0.93,0.02 0,0 -0.37,0.47 -0.69,-0.51 -0.39,0.4 -0.67,0.11 -0.69,-0.75 -0.32,-0.88 -0.38,-0.11 -0.92,0.14 -0.15,0.31 -0.45,0.11 -0.08,-0.92 -0.62,-0.56 -0.48,-0.11 -0.31,-0.74 -0.37,-0.14 -0.57,-0.75 0,0 -0.12,-1.03 -1.77,0.05 -0.9,-0.49 -0.08,-0.98 -1.04,-1.03 -0.69,-0.19 -1.07,0.55 -0.37,0.58 -0.83,-0.53 -0.47,-0.22 -0.52,-0.88 -0.29,-2.11 -0.62,-0.37 -0.96,-0.4 -0.23,-0.93 -0.82,0.09 -0.29,0.31 -1.75,-1.75 -0.68,0.14 -0.34,-0.12 -1.72,-1.64 -0.63,-0.29 0.33,-0.82 -0.11,-0.55 -1.09,-1.28 -0.85,-0.32 -0.21,-0.72 -0.57,-0.12 -0.76,0.42 -0.47,1.06 -0.9,-0.71 0.12,-1.22 -2.38,-0.66 -0.3,-0.62 -1.86,0.11 -0.87,0.38 -0.37,-0.05 -0.31,-0.99 -0.95,-0.59 -0.76,0.72 -1.02,0.2 -1.039999,0.58 0.3,0.57 -0.47,0.65 0.04,0.71 -0.97,0.7 -1.77,-0.07 -0.39,-0.33 -0.53,0.07 -0.97,0.58 -0.71,0.22 -0.5,-0.42 -1.99,-0.12 -1.31,1.05 -1.15,1.39 -0.96,-0.59 -1.06,0.32 0.09,0.58 -0.72,0.27 0.45,1.09 -0.05,0.35 -0.6,0.27 -0.9,0.9 0.04,0.68 0.48,0.55 -0.35,0.81 0.38,1 -1,0.71 -0.78,0.18 -1.17,-0.09 -0.22,0.66 0.34,0.51 -0.05,1.01 0.38,0.32 0.11,0.62 -0.52,0.46 -0.94,0 -1.31,0.38 -0.46,0.01 -0.37,-0.36 -0.05,-0.86 -0.36,-0.89 -0.58,0.23 -0.97,-1.32 -1.45,-0.64 -0.43,-0.72 -1.96,-0.31 -0.65,0.27 -0.73,-0.49 -0.78,0.23 -0.67,-0.28 -0.41,-1.14 -0.96,-1.15 0.09,-0.88 -0.92,-0.87 -0.79,0.28 -0.41,0.68 -0.18,0.85 -1.39,-0.14 -0.71,0.73 -0.81,-0.17 -1,-1.12 -0.77,0.21 -1.45,-0.87 -1.15,-0.17 -0.07,-0.4 -0.45,-0.5 -1.14,0.82 -1.64,-0.6 -0.46,-0.53 -0.09,-0.46 0.44,-1.21 -1.08,-0.96 0.38,-0.28 0,0 1.39,0.09 1.3,-0.47 0.46,0.27 0.46,-0.55 -0.49,-0.74 -0.17,-0.76 0.45,-0.59 0.78,-0.11 0.02,-1 -0.63,-1.51 -0.32,-0.24 0.08,-0.14 -0.28,0 0.42,-0.6 -0.08,-0.33 0.41,-0.23 -0.48,-1.04 0,0 -0.3,-0.36 0,0 -0.06,-0.92 0.27,0.05 0.02,-0.2 1,0.2 -0.62,-0.93 0.13,-0.32 -0.2,-0.54 0.3,-0.17 2.15,0.37 1.93,1.51 1.65,0.15 1.2,-0.46 -0.89,-1.04 -0.39,-1.01 -0.35,-2.3 0.63,-0.4 0.33,-0.62 0.75,0.13 0.24,-0.27 0.21,-1.33 -0.25,-0.95 0.14,-1.75 -0.22,-0.6 0.39,-0.75 0.08,-1.14 -0.59,-1.48 -1.81,-0.32 -1.4,-0.82 1.09,-1.72 -0.2,-0.24 -1.21,-0.21 -0.17,-0.84 -0.86,-0.71 -0.49,-0.8 0.66,-0.82 0.54,0.26 1.17,-0.26 0.08,-0.34 0.75,-0.04 1.25,0.53 0.28,-0.2 1,-0.03 0.37,-0.31 -0.12,-0.38 0.48,-0.98 -0.4,-1.45 0.19,-0.78 0.46,-0.6 -0.04,-0.34 1.25,-0.19 0.87,-0.62 0.88,-0.01 0.2,-0.7 -0.08,-0.95 0.67,-0.28 -0.15,-1.03 0.39,-0.32 0.1,-0.47 0.46,-0.17 0.56,-1.270001 -0.92,-1.15 0.73,-0.47 0.34,-0.78 0.75,-0.79 0.33,-0.08 0.55,0.46 0.2,-0.25 -1.31,-3.29 -0.56,-0.57 -0.17,-0.66 -0.87,-0.85 0.27,-1.1 -0.5,-0.99 0.19,-0.53 -0.59,-0.57 -0.38,-1.43 -0.83,-0.63 -0.75,-0.14 -0.14,-0.84 -0.27,-0.31 0.16,-0.46 -0.4,-0.33 0.16,-1.01 0.35,-0.3 -0.24,-0.23 0.63,-0.38 0.04,-0.35 0.36,-0.3 -0.44,-0.93 z"
     title="Sơn La"
     id="VN-05"
 />
</svg>
