<?xml version="1.0" encoding="UTF-8" standalone="no"?>
<!-- Created for MapSVG plugin: http://mapsvg.com -->
<svg
   xmlns:mapsvg="http://mapsvg.com"
   xmlns:dc="http://purl.org/dc/elements/1.1/"
   xmlns:rdf="http://www.w3.org/1999/02/22-rdf-syntax-ns#"
   xmlns:svg="http://www.w3.org/2000/svg"
   xmlns="http://www.w3.org/2000/svg"
   mapsvg:geoViewBox="102.143498 23.393563 109.460943 8.562136"
   width="381.07504"
   height="800.61719"
>
  <path
     d="m 178.29847,16.363229 0.18,0.87 -0.08,0.61 -0.01,0.38 0.42,0.37 1.24,-0.47 0.88,0.49 0.67,-0.63 0.61,-0.13 0.52,0.41 0.79,0.19 0.46,0.43 2.04,-0.05 0.9,0.09 0.09,0.3 -0.29,0.56 0.45,0.82 1.21,0.06 0.11,0.29 0.86,0.25 0.52,0.97 0.62,0.57 1.23,-0.08 0.6,0.52 0.6,0.53 0.35,0.49 0.46,0.91 -0.12,0.69 0.54,0.44 0.32,0.18 0.55,-0.44 1.59,-1.04 0.46,0.28 0.56,0.68 0.85,-0.03 0.02,-0.46 0.42,-0.14 0.85,0.19 0.61,0.42 0.32,-0.12 0.19,-0.3 -0.1,-0.75 0.02,-1.04 0.13,-0.76 1.89,-0.1 0.49,-0.08 1.85,-0.29 0.41,0.1 0.65,0.7 0.79,-0.05 0.61,-0.15 0.17,-0.33 0.52,-0.05 1.11,0.65 0.71,0.11 0.94,-0.37 0.68,1.03 0.7,0.41 0.6,0.6 0.51,0.7 0.34,1.08 0.37,0.12 0.55,0.48 0.33,0.77 0.09,0.63 -0.32,0.52 0.78,0.5 0.36,-0.39 0.9,0.6 0.69,-0.74 1.07,1.14 0.34,0.05 0.62,-0.61 0.05,-0.71 0.31,-0.29 1.73,0.23 0.27,-0.34 0.55,-0.32 0.47,0.33 0.69,-0.22 0.31,-0.74 0.36,-0.02 0.53,0.15 0.35,0 0.53,-0.14 0.65,-0.24 0.5,-0.36 0.15,-0.95 0.3,-0.85 0.62,-0.09 0.95,0.32 0.1,0.76 1.09,0.56 1.13,-0.73 0.54,-0.07 0.4,0.38 0.43,1.23 0.61,0.37 0.32,0.4 0.35,0.25 -0.06,0.53 0.98,0.47 0.54,-0.4 -0.05,-0.66 0.24,-0.3 0.32,0.02 0.9,-0.05 0.24,0.24 0.71,0.11 0.39,0.77 -0.48,0.23 -0.03,0.24 1.69,1.18 0.62,0.72 0.71,0.28 0.3,0.54 0.59,0.28 1.13,-0.48 0.82,0.17 0.84,0.82 -0.08,0.51 -0.65,0.42 -0.01,0.41 -0.32,0.38 -0.7,0.24 -0.47,-0.08 -0.38,0.9 -1.2,0.65 -0.02,0.56 0.3,0.5 0.55,0.9 -0.77,0.28 -0.33,0.36 0.07,0.52 -0.17,0.6 -0.38,0.29 -0.43,-0.04 -0.26,0.42 -0.17,0.52 -0.51,1.92 0.37,0.47 -0.12,0.78 0.24,0.36 -1.27,0.7 -0.63,-0.29 -0.81,0.66 -0.75,-0.35 -0.95,0.02 -0.76,-0.75 -0.23,-0.8 -1.11,0.21 -0.22,0.65 -0.13,0.78 0.12,0.65 -0.18,0.68 -0.47,0.13 -0.04,0.84 -0.43,0.84 0.1,2.42 -0.55,0.26 -0.39,0.16 -0.18,0.34 -0.19,0.7 0.52,0.98 -0.42,0.6 0,0 -1.36,0.15 -0.38,0.35 0.21,0.28 -0.66,0.54 -0.78,-0.39 -0.72,0.2 0.14,0.37 -0.51,0.26 0.35,0.34 -0.58,0.28 0.5,0.19 -0.07,0.39 -1.08,0.54 -0.8,0.13 -0.79,-0.38 -0.57,0.25 -0.57,-0.6 -0.71,-0.01 -0.23,-0.2 -0.94,0.8 -0.84,0.14 -1.08,-1.03 0.17,-0.92 -0.57,-0.56 0,-0.46 -0.26,-0.15 -0.42,0.27 -0.39,-0.11 -0.88,-0.89 -0.43,-0.06 -0.57,-1.17 -0.65,-0.31 -0.28,0.16 -1.01,-0.61 -0.43,0.35 -0.76,0.18 0,0 -0.31,0.62 0,0 -0.26,0.14 -0.66,1.27 -0.36,1.49 0,0 -0.38,-0.12 0.04,-0.5 -0.51,-0.06 -0.03,-0.3 -0.48,-0.13 -0.97,0.86 -0.92,-0.43 -0.61,0.18 -0.23,-0.14 -0.29,-0.7 0.07,-1.16 -0.38,-0.52 1.32,-1.57 -0.21,-0.61 0.23,-1.48 -0.97,-0.36 0.07,-0.34 -0.37,-0.41 0.31,-0.31 -0.42,-0.13 0.12,-0.55 -0.44,-0.31 -0.66,-0.03 0.01,-0.43 0.42,-0.38 -0.05,-0.32 -0.79,0.2 -0.95,-0.46 -0.45,0.84 -1.71,0.46 -0.21,0.36 -1.7,0.69 -0.25,0.46 -0.52,0.27 -0.47,-0.29 -0.73,0.04 -0.4,0.36 -0.74,1.43 -0.37,0.01 -0.33,-0.65 -1.18,-0.41 -0.3,-0.38 -1.52,0.31 -0.38,-0.03 -0.07,-0.59 -0.54,0.37 -0.89,-0.25 -0.9,-1.5 -0.75,0.07 0.1,-0.22 -0.3,-0.09 0.28,-0.22 -0.14,-0.33 0.43,-0.4 -0.08,-0.28 -0.59,-0.59 -0.76,0.09 -0.31,-0.44 0.43,-0.77 -0.63,-0.69 -0.05,-0.39 -0.61,-0.22 -0.01,-0.38 0.58,-0.25 0.58,-1.26 1.2,-1.08 0.2,-0.43 -0.96,-0.36 -0.37,-0.79 0.37,-0.45 -0.05,-0.34 -0.4,-0.02 -0.56,-0.77 -0.65,0.14 -0.29,0.44 -0.54,-0.1 -0.5,0.67 -0.29,-0.5 -0.25,0.63 -0.98,-0.41 -0.48,0.09 -0.82,1.41 -1.46,-0.08 -0.08,0.23 -0.45,0.08 -0.4,0.33 0.16,0.97 -0.45,0.01 -0.53,-0.35 -0.31,0.66 -0.6,-0.09 -1.21,0.49 -0.3,0.34 0.01,0.8 -0.49,0.19 0,0 -0.91,-0.17 -0.8,0.13 0,0 -0.14,-1.31 -0.48,-1.02 0.14,-0.66 0.54,-0.39 -0.63,-0.69 -0.73,-2.63 -1.12,-0.23 -0.46,-0.79 -0.9,-0.28 -0.21,-0.41 -1.11,-0.51 -0.69,-0.95 -1.33,-0.37 -0.79,0.05 -0.17,-0.61 -1.25,-0.64 -0.54,-0.73 -1.27,-0.21 -0.57,-0.31 -0.07,-0.86 1.82,0.12 -0.04,-1.39 0.3,-0.79 0.64,-0.12 0.65,-0.95 1.16,-0.21 0.3,-0.24 -0.21,-0.46 0.3,-0.88 -0.3,-0.41 0.04,-0.34 0.71,-0.69 1.27,-0.07 0.69,-0.22 0.27,-0.35 1.65,0.12 0.95,-0.47 1.06,-0.12 0.33,-1.33 0.45,-0.5 0.24,-1.02 0.62,-0.87 -0.12,-0.47 0.57,-1.37 1.19,-0.1 0.7,-0.51 0,0 z"
     title="Cao Bằng"
     id="VN-04"
 />
</svg>
