<?xml version="1.0" encoding="UTF-8" standalone="no"?>
<!-- Created for MapSVG plugin: http://mapsvg.com -->
<svg
   xmlns:mapsvg="http://mapsvg.com"
   xmlns:dc="http://purl.org/dc/elements/1.1/"
   xmlns:rdf="http://www.w3.org/1999/02/22-rdf-syntax-ns#"
   xmlns:svg="http://www.w3.org/2000/svg"
   xmlns="http://www.w3.org/2000/svg"
   mapsvg:geoViewBox="102.143498 23.393563 109.460943 8.562136"
   width="381.07504"
   height="800.61719"
>
  <path
     d="m 188.71847,158.05323 -0.2,-0.58 -1.13,-1.27 -0.53,-0.04 -0.29,-0.32 -0.37,0.49 -0.62,-0.12 -0.22,-0.22 -0.15,-1.03 -0.55,0 -0.22,0.29 -0.81,0 0,0 -0.28,-0.29 0,0 0.02,-0.49 0.28,-0.11 0.38,0.21 0.43,-0.52 -0.41,-0.48 0.02,-1.25 -0.47,-0.42 0,0 -0.06,-0.18 0.17,0 0,0 0.26,-0.18 0,0 0.15,-0.23 0,0 0.1,-0.59 -2.06,-2.75 0.01,-0.57 0.15,0.31 0.29,-0.1 -0.12,-2.09 -0.76,-0.02 0,0 -0.04,-0.18 0,0 -0.21,-1.14 0.22,-0.27 0,0 -0.12,-0.11 0.32,0.1 0,0 0.26,-0.25 0,0 -0.08,-0.17 0,0 -0.27,-0.23 0.06,-0.31 -0.21,0.04 -0.05,0.49 -0.75,-0.12 -0.39,-0.38 -0.66,-0.21 -0.02,0.6 -0.85,0.19 0.04,-0.46 0.41,-0.48 -0.17,-0.74 -0.25,0.01 -0.24,-0.34 0,0 -0.06,-0.18 0,0 -0.77,-0.74 -0.34,-0.11 -0.4,0.31 -0.09,-0.24 0.86,-0.47 -0.23,-0.5 0.23,-0.16 -0.25,-0.16 1.31,-0.63 -0.07,-0.23 0.3,-0.08 -0.16,-0.33 -1.09,0.21 -0.43,-0.14 -0.32,0.28 -0.39,-0.29 -0.7,0.5 -0.64,-0.22 -0.57,-0.46 0.67,-0.45 0.05,-0.54 0.36,-0.24 0,0 0.22,-0.04 0,0 0.09,-0.61 -0.91,-0.72 0.04,-0.16 -0.62,-0.05 -0.24,-0.65 -0.34,0.07 -1.58,-1.2 -1.25,-0.21 -0.91,0.32 -0.35,-0.36 -0.91,0.21 -0.32,-0.19 0.03,-0.36 -0.68,0.59 -1,0.34 -0.36,-0.35 -0.46,0.02 -0.27,0.31 -0.41,-0.06 0.14,-0.48 -0.2,-0.22 -0.38,0.52 0,0 -0.66,-0.55 -0.56,-1.74 1.18,-2.22 0.16,-1.11 -1.54,-2.3 -0.16,-0.59 0.86,-1.43 1.4,-0.65 0,0 0.34,0.08 0.35,-0.32 0,0 -0.25,-0.11 0.81,-2.33 0.18,-2.07 -0.15,-0.74 0.45,-0.47 0.26,-0.14 0.25,1.05 1.2,-0.54 1.94,0.88 0.5,1.28 0,0 0.13,1.08 0.79,1.4 0.44,2.41 1.18,0.87 1.52,0.29 1.9,-0.12 3.37,-0.96 0.44,0.36 0.03,0.56 1.61,0.58 2.06,0.4 1.17,0.48 0.38,0.55 0,0 0.16,0.57 0.34,0.27 -0.8,0.5 0.09,0.92 -0.56,0.56 0.6,0.59 -0.06,0.72 0.28,0.16 0.05,0.42 0.26,0.07 0,0.74 -0.42,0.31 0.26,0.52 0,0.68 1.08,0.39 0.08,0.43 0.25,0.11 0.19,-0.29 0.62,0 0.14,-0.23 0.82,0.13 -0.07,0.34 0.25,0.29 -0.51,0.32 0.12,0.3 0.61,0.27 -0.49,0.19 -0.18,0.75 -0.16,-0.01 0.69,0.37 -0.52,0.49 0,0.62 0.59,0.16 0.68,0.55 0.46,-0.04 0.14,0.34 0.28,-0.26 0.02,-0.39 0.3,-0.07 0.05,0.41 0.82,0.4 -0.09,-0.32 0.3,-0.32 0.8,0.04 0.2,-0.32 0.48,0.34 0.2,-0.16 0.36,0.2 0,0 -0.19,0.35 0.09,0.34 1.73,1.01 0.29,0.52 -0.14,0.75 -0.85,0.52 -0.3,0.67 0.41,1.77 0.54,0.64 1.61,0.41 0.34,0.33 0.14,2.15 -0.27,0.51 0.46,1.35 1.55,-0.21 0,0 -0.38,0.39 0.13,0.28 -0.33,0.15 0.31,0.65 -0.31,-0.01 0.07,-0.22 -0.43,0.09 -0.33,0.37 -0.06,0.46 -0.97,0.33 -0.01,0.51 -0.7,-0.25 0.09,-1.19 -0.18,-0.31 -1.23,0.34 -0.73,0.59 -0.48,-0.23 0,0.97 -0.91,0.49 -1.07,-0.1 -0.93,-0.8 -0.91,-0.28 -0.14,0.23 0.76,0.7 -1.01,0.74 -0.16,0.36 0.18,0.54 -0.49,0.45 0.31,0.3 -0.54,0.62 -0.27,1.36 -1.59,0.08 z"
     title="Hà Tây"
     id="VN-15"
 />
</svg>
