<?xml version="1.0" encoding="UTF-8" standalone="no"?>
<!-- Created for MapSVG plugin: http://mapsvg.com -->
<svg
   xmlns:mapsvg="http://mapsvg.com"
   xmlns:dc="http://purl.org/dc/elements/1.1/"
   xmlns:rdf="http://www.w3.org/1999/02/22-rdf-syntax-ns#"
   xmlns:svg="http://www.w3.org/2000/svg"
   xmlns="http://www.w3.org/2000/svg"
   mapsvg:geoViewBox="102.143498 23.393563 109.460943 8.562136"
   width="381.07504"
   height="800.61719"
>
  <path
     d="m 176.96847,169.26323 1.43,0.16 0.56,-0.58 0.93,0.31 0.99,0.83 0.38,0.01 0.89,0.58 1.45,1.6 0.85,0.22 0.74,-0.85 1.23,-0.48 0.26,-0.53 -1.04,-1.17 0.13,-0.33 -1.04,-1.44 0.33,-0.28 -0.22,-0.3 -0.35,-0.02 -0.12,-0.39 1.08,-0.09 0.67,0.22 0.68,0.51 -0.08,0.7 0.78,0.2 0.03,0.88 0.55,-0.04 0.16,-0.64 -0.4,-1.55 0.03,-0.36 0.34,-0.16 -0.4,-1.26 0.2,-0.16 0.92,-0.04 0.08,0.38 0.4,-0.05 0.31,-0.94 0.23,-0.06 0.46,1.01 1.17,1.03 0.5,0.18 0.25,-0.31 0.57,-0.11 0.48,0.23 0.22,-0.08 -0.22,-0.36 0,0 2.31,2.92 0.36,0.05 0.13,-0.25 0.57,0.76 0.64,-0.27 0,0 0.17,0.65 0.85,0.15 -0.28,0.81 -0.67,0.56 0.36,0.26 0,0 1.16,0.56 0,0 1.02,1.28 -0.16,1.53 1.26,0.65 1.04,0.06 0.81,-0.29 0.3,0.21 0.02,0.55 -0.94,0.2 0.14,0.46 0.62,0.56 0.61,0.11 0.67,-0.36 0.59,-0.61 0.54,-1.08 0.33,0.09 0.52,2 2,-0.58 0.39,0.2 0.48,1.88 0.31,3.26 -0.99,1.52 -0.45,2.13 -1.34,0.96 -0.14,1.48 -0.85,2.69 0.37,2.04 -0.38,1.19 0,0 -0.7,-0.24 -0.39,0.18 -0.68,-0.36 -0.97,-1.05 0.14,-0.63 -1.02,-0.5 0,0 0,-1.72 0.45,-0.53 0.88,-0.19 0.39,-0.6 0.81,-2.3 0.06,-0.37 -0.21,-0.2 -2.53,0.43 -1.37,-0.5 -1.86,0.13 -1.61,-1.35 -0.31,-0.65 -0.86,-0.23 -0.81,-0.72 -1.19,-0.28 -0.87,-0.78 -0.88,-0.25 -0.18,-0.42 -1.2,-0.45 -0.81,-0.62 -0.85,-0.11 -0.19,-0.26 -1.69,-0.47 -0.16,-0.49 -2.32,-1.51 0.05,-0.51 -0.56,-0.23 -0.23,-0.65 -0.46,-0.1 0.03,-0.27 -1.07,-1.12 -1.55,-0.47 -1.1,-1.65 -1.01,0.02 -0.41,-0.3 -0.42,0.04 0.03,-0.49 -0.54,-0.14 -0.27,-0.35 0.06,-0.69 -0.4,-0.85 z"
     title="Ninh Bình"
     id="VN-18"
 />
</svg>
