<?xml version="1.0" encoding="UTF-8" standalone="no"?>
<!-- Created for MapSVG plugin: http://mapsvg.com -->
<svg
   xmlns:mapsvg="http://mapsvg.com"
   xmlns:dc="http://purl.org/dc/elements/1.1/"
   xmlns:rdf="http://www.w3.org/1999/02/22-rdf-syntax-ns#"
   xmlns:svg="http://www.w3.org/2000/svg"
   xmlns="http://www.w3.org/2000/svg"
   mapsvg:geoViewBox="102.143498 23.393563 109.460943 8.562136"
   width="381.07504"
   height="800.61719"
>
  <path
     d="m 143.93847,189.64323 0,0 -0.01,-0.03 0.01,0.03 z m -3.19,-36.39 0.34,-0.65 0.74,0.14 1.16,-0.49 0.71,0.1 1.54,1.1 0.84,0.26 0.73,1.19 0.01,0.8 1.12,1.04 -0.21,0.75 0.8,-0.15 0.92,0.49 0.51,0.55 0.95,-0.07 0.21,0.18 0.38,-0.21 0.04,-0.52 1.32,-0.46 0.4,0.08 0.4,0.51 0.58,-0.28 0.39,0.56 0.96,0.34 0.42,0.62 0.7,0.13 0.47,0.48 -0.01,0.65 0.47,0.41 0.51,-0.04 0.19,-0.32 0.36,0.22 0.64,-0.04 0.99,0.7 0.42,0.07 0.03,0.39 0.73,0.5 -0.2,0.68 1.08,0.55 0.04,0.53 0.27,0.07 -0.47,1.17 0.69,0.28 0.29,-0.14 0.95,0.8 0.28,0.03 0.13,-0.26 1.37,1.07 0,0 0.19,0.05 0,0 0.5,0.24 0.16,0.33 1.07,0.07 0.2,0.26 1.89,0.67 1.48,-0.68 1.34,0.55 0.84,-0.01 1.53,0.84 0.84,0 0.17,-0.48 0.29,-0.15 0.48,0.19 0.13,0.35 0,0 0.38,0.84 -0.06,0.69 0.27,0.36 0.54,0.14 -0.03,0.49 0.42,-0.04 0.41,0.3 1.01,-0.02 1.1,1.65 1.55,0.47 1.07,1.12 -0.03,0.27 0.46,0.1 0.23,0.65 0.56,0.23 -0.05,0.51 2.32,1.51 0.16,0.49 1.69,0.47 0.19,0.26 0.85,0.11 0.81,0.62 1.2,0.45 0.18,0.42 0.88,0.25 0.87,0.78 1.19,0.28 0.81,0.72 0.86,0.24 0.31,0.66 1.61,1.35 1.86,-0.13 1.37,0.51 2.53,-0.42 0.21,0.2 -0.06,0.38 -0.81,2.3 -0.39,0.6 -0.88,0.19 -0.45,0.53 0,1.72 0,0 -1.05,0.5 -0.07,0.29 -0.37,0.03 -0.59,0.08 -1.63,1.28 -0.21,1.74 0.71,-0.03 -0.84,1.16 -0.73,2.03 -0.12,0.99 0.1,0.64 0.32,0.4 -0.18,0.53 -1.36,1.94 -0.62,1.5 -0.19,0.09 -0.5,-0.5 -0.33,0 -0.84,0.78 -1.23,2.61 -1.36,5.89 -0.26,2.07 0.03,3.7 0.36,1.54 -0.78,-0.06 -0.5,1.42 -0.04,2.11 0.61,1.28 0.84,0.96 0.06,0.49 -0.09,0.23 -0.51,0.61 -0.06,0.63 0,0 -0.27,-0.78 -1.74,0.53 -0.6,-0.87 -0.24,0.28 -0.23,-0.08 -0.17,-1.05 -1.53,1.06 -1.06,-0.03 -0.12,0.18 -0.75,-0.73 -0.11,-0.46 -0.49,0.47 -0.01,-1.45 -0.44,-0.04 -0.19,-0.64 -0.47,-0.03 -0.24,-0.74 -0.42,-0.05 -0.16,-0.67 -0.36,-0.2 -0.54,0.73 -1.12,-0.11 -0.31,-0.44 -0.03,-0.58 -1.01,-1.05 -1.59,-2.61 -0.4,-0.19 -1.29,-0.05 -0.94,0.75 -0.66,-0.46 -1.26,0.91 -0.58,-0.78 -0.82,-0.24 -0.78,0.56 -0.62,-0.3 0.04,-0.64 -0.46,-1.02 -0.8,-0.74 0.2,-0.21 -0.13,-0.97 -0.82,-1.01 -0.48,-0.02 -0.18,0.4 -0.33,-0.04 -0.55,1.21 -0.73,0.57 -0.07,0.54 -0.5,0.25 -0.23,0.49 -0.24,-0.81 -0.59,-0.1 0.09,-0.64 -0.39,-0.22 0.08,-0.75 -0.22,-0.43 0.23,-0.96 -0.14,-0.55 0.61,-0.55 -0.3,-1.2 0.24,-0.28 0.04,-0.66 -0.64,-0.04 0.11,-0.29 -0.52,-1.46 -0.7,-1.01 -0.48,0.18 -0.16,0.47 -0.61,-0.18 -0.87,-0.96 -1.31,-0.89 -0.41,0.19 -0.37,-0.28 -0.13,-0.79 -0.56,-0.61 0.44,-0.5 -0.01,-0.34 -0.44,-0.13 -0.94,-0.9 0.11,-1.4 -0.51,-1.75 0.22,-1.43 0.56,-0.31 0.46,-1.26 1.54,0.15 0.38,-0.66 -0.5,-0.97 -0.08,-0.66 -0.38,-0.36 -0.15,-0.77 -0.7,-0.42 -1.32,0.04 -0.68,-0.65 -1.14,-0.27 -2.38,0.44 0.02,-0.47 -0.21,-0.19 -0.28,0.21 -1.28,-0.76 -0.99,0.01 0.07,-0.41 -1.22,-0.71 -0.5,-0.01 -0.36,-0.92 -1.77,0.12 -0.35,-0.45 -0.51,-0.14 0,0 0.5,-0.32 0.19,-0.33 -0.11,-0.32 0.79,-1.01 2,-1.5 0.21,-0.99 0.92,-0.84 -1.5,-0.28 -0.24,-0.29 0.04,-0.38 -1.4,-0.78 -0.65,-0.88 0.42,-0.44 -0.14,-0.47 -1.54,0.65 -1.85,0.3 -1.03,-0.4 -0.5,-0.36 -0.44,-0.25 -0.19,-0.59 -2.34,-1.52 -2.89,-0.15 -1.33,-0.78 -1.34,-0.17 -0.37,-0.82 -0.87,-0.09 -0.73,0.31 -0.88,-0.78 -0.24,-0.7 0.07,-1.05 0.35,-0.92 -0.08,-0.73 0.32,-2.03 -0.32,-0.28 0.09,-0.77 0.7,-0.5 0.83,-0.51 1.2,-0.44 0.59,-0.46 0.12,-0.43 1.59,0.32 0.3,-0.48 -0.53,-0.2 -0.68,-1.09 -0.56,-0.67 -1.09,-0.53 -0.06,-0.44 0.37,-0.23 -0.13,-0.28 -0.45,-0.33 -1.79,0.75 -0.18,0.54 -0.46,0.28 0.31,0.29 -0.2,0.74 -0.83,0.63 -1.8,0.02 -1.04,0.45 -0.37,-0.39 -0.49,0.11 -0.11,1.06 -0.74,0.49 -0.78,0.11 -1.14,0.79 -0.97,-0.21 -0.93,-0.16 -0.88,-0.03 -0.35,-0.26 -0.33,-0.4 -0.17,-0.78 0.46,-1.19 -1.12,-0.9 -0.78,-0.12 0.22,-0.47 -0.25,-0.92 0.84,-0.67 -0.25,-0.54 1.39,0.03 1.19,-1.06 1.93,-0.42 1.24,-1.51 0.51,-0.01 0.96,-0.48 -0.13,-0.54 0.55,-0.79 0.36,-1.21 1.13,-0.53 0.77,0.07 0.36,-0.19 0.87,0.26 0.54,-0.82 0.73,-0.29 0.52,-1.43 0.22,-0.05 0,0 0.57,0.75 0.37,0.14 0.31,0.74 0.48,0.11 0.62,0.56 0.08,0.92 0.45,-0.11 0.15,-0.31 0.92,-0.14 0.38,0.11 0.32,0.88 0.69,0.75 0.68,-0.11 0.39,-0.4 0.69,0.51 0.37,-0.47 0,0 0.93,-0.02 0,0 -0.12,-2.01 0.71,-0.79 0.2,0.14 0.2,-0.31 1.4,-0.77 -0.2,-0.37 z"
     title="Thanh Hóa"
     id="VN-21"
 />
</svg>
