<?xml version="1.0" encoding="UTF-8" standalone="no"?>
<!-- Created for MapSVG plugin: http://mapsvg.com -->
<svg
   xmlns:mapsvg="http://mapsvg.com"
   xmlns:dc="http://purl.org/dc/elements/1.1/"
   xmlns:rdf="http://www.w3.org/1999/02/22-rdf-syntax-ns#"
   xmlns:svg="http://www.w3.org/2000/svg"
   xmlns="http://www.w3.org/2000/svg"
   mapsvg:geoViewBox="102.143498 23.393563 109.460943 8.562136"
   width="381.07504"
   height="800.61719"
>
  <path
     d="m 143.90847,189.31323 0.51,0.14 0.35,0.45 1.77,-0.12 0.36,0.92 0.5,0.01 1.22,0.71 -0.07,0.42 0.99,-0.01 1.28,0.76 0.28,-0.21 0.21,0.19 -0.02,0.47 2.38,-0.44 1.14,0.27 0.68,0.65 1.32,-0.04 0.7,0.42 0.15,0.77 0.38,0.36 0.08,0.66 0.5,0.97 -0.38,0.66 -1.54,-0.15 -0.46,1.26 -0.56,0.32 -0.22,1.43 0.51,1.75 -0.11,1.4 0.94,0.9 0.44,0.13 0.01,0.34 -0.44,0.5 0.56,0.61 0.13,0.79 0.37,0.28 0.41,-0.18 1.31,0.89 0.87,0.96 0.61,0.18 0.16,-0.47 0.48,-0.17 0.7,1.01 0.52,1.46 -0.11,0.29 0.64,0.04 -0.04,0.67 -0.24,0.28 0.3,1.2 -0.61,0.55 0.14,0.55 -0.23,0.97 0.23,0.43 -0.08,0.76 0.39,0.22 -0.09,0.64 0.59,0.1 0.24,0.81 0.23,-0.49 0.5,-0.25 0.07,-0.54 0.73,-0.57 0.55,-1.21 0.33,0.04 0.18,-0.4 0.49,0.03 0.82,1.01 0.13,0.97 -0.2,0.21 0.8,0.74 0.46,1.02 -0.04,0.64 0.62,0.3 0.79,-0.56 0.82,0.24 0.58,0.78 1.26,-0.91 0.66,0.46 0.94,-0.75 1.29,0.05 0.4,0.19 1.59,2.61 1.01,1.05 0.03,0.58 0.32,0.44 1.12,0.12 0.54,-0.72 0.36,0.2 0.16,0.67 0.42,0.05 0.25,0.74 0.47,0.03 0.19,0.64 0.45,0.04 0.01,1.45 0.49,-0.47 0.11,0.46 0.75,0.73 0.12,-0.18 1.06,0.03 1.53,-1.06 0.17,1.05 0.23,0.08 0.24,-0.28 0.6,0.87 1.74,-0.53 0.27,0.78 0,0 -0.4,0.83 -0.65,-0.23 -0.3,0.29 -0.47,1.75 0.12,0.21 -0.35,0.42 -0.46,0.13 -0.27,-0.41 -0.74,0.72 -0.35,1.72 0.17,1.16 -0.17,0.14 -0.07,2.19 0.49,1.06 -1.09,0.4 -1.33,0.84 -0.26,-0.08 0,-0.29 -0.42,-0.38 -0.46,-0.03 -0.56,0.35 -0.91,1.11 -0.84,1.76 -0.4,2.67 0.01,0.53 0.2,1.75 0.72,2.64 0.77,0.32 0.55,0.12 0.61,0.44 0.61,0.24 0.32,0.18 0.9,1.37 0.36,0.29 0.25,0.61 -0.29,0.14 0.79,1.72 1.76,1.94 0,0 -0.97,0.8 -0.13,0.43 1.26,2.92 0.12,0.55 -0.3,0.4 0,0 -1.1,0.13 0,0 -0.82,-0.23 -0.57,0.34 -0.67,1.83 -0.62,0.26 -0.04,1.74 -0.64,1.02 -0.69,-0.39 -2,0.9 -0.48,-0.51 -0.88,0.01 -0.5,0.24 -0.32,0.76 -1.19,-0.04 -0.76,0.4 -0.79,-0.48 -0.23,-0.82 -0.43,-0.44 -0.16,-0.82 -0.56,-0.61 -0.64,-0.01 0,0 -0.52,-0.14 0,0 -0.29,-0.05 0,0.35 -0.89,0.36 -0.96,0.14 -0.31,0.6 -0.7,0.11 -0.18,-0.29 -1.06,0.6 -1.06,0.08 -2,-0.65 -0.44,-0.62 -1.32,-0.3 -0.54,-0.82 -0.32,0.14 -0.35,-0.22 -1.21,0.44 -0.9,0.61 -0.63,0.91 -0.57,-0.53 -1.49,-0.16 0,0 -0.1,-0.21 0.26,-0.34 -0.16,-0.83 0.41,-0.99 -0.81,-0.89 -0.69,0.18 -0.84,-1.19 -0.79,-0.42 -0.06,-0.19 0.51,-0.72 -0.61,-0.73 -0.95,0.09 -0.57,0.52 -1.04,-0.22 -0.56,0.2 -0.35,-0.19 -0.8,0.04 0.46,-0.87 -0.46,-0.31 -0.68,0.23 -0.11,-0.39 -0.69,0.09 -0.26,-0.44 -1.08,0.12 -0.82,-0.03 -0.94,-0.15 -1.12,0.14 -0.11,-0.64 -0.3,-0.36 0.3,-0.37 -0.09,-0.37 -1.26,-0.89 -2.08,0.12 -0.78,0.62 -0.88,-0.58 -2.17,0.23 -0.54,-0.43 -0.34,-0.71 -1.14,0.47 -1.12,-0.46 -0.15,-0.73 -0.78,-0.16 -0.43,-1.01 -0.77,-0.15 -0.33,0.26 -0.71,-0.15 -0.43,-0.35 -0.07,-0.57 -2.08,-1.31 -0.01,-0.53 -1.86,-0.82 -0.63,0.04 -0.99,-2.03 -0.71,-0.75 -0.31,-1.18 -0.63,-0.49 -0.86,0.13 -0.94,-1.32 -0.73,-0.04 -0.53,1.03 -1.36,0.11 -1.36,-1.2 -0.01,-0.6 -1.12,-1.28 0.06,-0.7 -0.31,-0.3 -0.77,-0.2 -0.63,-0.65 -1.01,0.08 -1.97,-0.98 -0.27,-0.24 -0.23,-1.01 -0.56,-0.26 -0.85,-0.18 -1.3,0.52 -1.5,-0.37 -0.3,-0.58 0.6,-1.17 -0.06,-0.32 -1.29,-0.33 -0.4,-1.09 -0.59,-0.82 -2.72,-0.4 -0.83,-1.02 -0.52,0.46 -0.47,-0.76 -1.18,-1.03 -3.619999,0.85 -0.56,-0.52 -1.51,-0.61 -1.87,-1.76 -0.45,-0.98 -1.05,-0.34 -0.51,0.39 -0.64,-0.42 0.09,-0.57 0.6,-0.49 1.14,-0.14 0.56,-0.55 0.6,-0.15 1.09,-0.73 0.38,-0.6 -0.16,-0.77 1.04,-0.85 0.61,-0.08 0.39,-0.35 0.83,0.16 0.52,-0.75 0.43,0.06 0.98,-0.57 0.23,0.4 0.919999,0.16 0.19,-1.82 -0.54,-0.22 0.99,-0.85 0.48,-1.61 0.39,0.38 0.46,0.09 0.62,-0.63 -0.95,-1.13 0.26,-0.61 -0.07,-2 -0.26,-0.34 -0.83,-0.37 -1.329999,-2.05 0.389999,-0.9 -0.519999,-0.88 0.519999,-0.61 0.14,-1.04 1.92,1.14 1.33,0.06 1.16,-0.51 0,-0.95 0.24,-0.53 1.1,0.19 0.68,-0.08 0.78,-0.42 1.31,-0.23 1.45,0.18 0.45,0.35 0.81,0.18 0.96,-0.15 0.91,0.7 -0.17,0.76 0.21,0.11 0.87,-0.53 0.61,-0.76 1.64,-0.17 1.12,-0.48 0.53,-0.08 0.55,0.22 -0.14,1.09 0.31,0.42 0.96,0.01 0.22,0.82 0.24,0.14 1.88,0.01 0.46,0.39 0.39,1.25 1.09,0.57 0.56,0.04 1.2,-0.07 0.98,-0.76 1.46,-0.32 1.26,0.7 0.55,0 0.45,-0.77 -0.28,-0.92 0.84,-0.45 -0.16,-0.57 0.61,-0.73 0.06,-0.84 0.18,-0.53 0.8,-0.91 0.69,-0.37 0.49,-1.14 0.55,-0.22 0.51,0.35 1.03,0.11 0.65,-0.81 -0.25,-0.5 0.66,-0.13 1.15,-0.77 1.1,0.34 0.72,-0.39 0.22,-0.72 -0.19,-0.54 0.12,-0.7 0.55,-0.81 -0.58,-0.34 -0.05,-0.28 0.76,-0.92 -0.34,-1.07 0.03,-1.31 0.15,-0.74 0.79,-0.77 1.44,-0.7 0.84,-0.79 0.25,-1.35 0,0 -0.01,-0.03 0,0 -0.16,-0.55 z"
     title="Nghệ An"
     id="VN-22"
 />
</svg>
