<?xml version="1.0" encoding="UTF-8" standalone="no"?>
<!-- Created for MapSVG plugin: http://mapsvg.com -->
<svg
   xmlns:mapsvg="http://mapsvg.com"
   xmlns:dc="http://purl.org/dc/elements/1.1/"
   xmlns:rdf="http://www.w3.org/1999/02/22-rdf-syntax-ns#"
   xmlns:svg="http://www.w3.org/2000/svg"
   xmlns="http://www.w3.org/2000/svg"
   mapsvg:geoViewBox="102.143498 23.393563 109.460943 8.562136"
   width="381.07504"
   height="800.61719"
>
  <path
     d="m 346.88847,438.25323 0.31,0.04 0.51,-0.42 0.19,0.15 -0.28,0.38 0.29,0.67 0,1.1 0.98,1.36 0.47,0.27 0.5,-0.38 0.34,0.16 -0.45,0.39 0,0.28 0.19,0.33 0.74,0.15 0.09,0.24 -0.75,1.32 1.09,1.78 1.02,1.03 0.54,0.2 0.32,-0.25 0.5,0.03 0.28,0.26 0,0.88 -0.6,0.85 -0.77,-0.09 0.41,0.48 -0.3,0.21 -0.13,-0.28 -0.36,-0.03 -0.63,0.58 -0.06,1.6 0.19,0.87 -0.32,-0.04 -0.06,0.53 0.2,0.06 -0.29,0.73 -0.02,0.22 0.22,0.59 -0.14,0.61 0.42,0.16 0.28,0.25 -0.04,0.62 0.63,2.73 2.02,5.75 2.65,5.56 1.94,3.39 1.81,2.61 0.04,0.42 0.25,1.07 0.02,0.52 -0.33,0.16 -0.6,0.78 0.5,1.69 -0.21,0.09 0.13,0.86 0.42,1.2 0,0 -1.11,-0.73 -0.29,-0.63 -0.32,-0.04 -0.31,-1.13 0.15,-0.3 -0.56,-0.94 -0.39,0.12 -0.52,-1.04 -0.45,-0.26 -0.41,0.1 -0.34,-0.28 -0.85,0.16 -1.26,-1.09 -0.33,0.19 -0.39,-0.38 -0.52,-0.12 -0.08,-0.31 -1.22,0.85 -0.65,0.06 -0.15,0.21 -1.07,-0.52 -0.49,-0.02 -0.3,0.04 -0.08,0.44 -0.27,0.03 -0.4,-0.61 -0.62,0.93 -0.72,0.35 -1.63,0.01 -0.67,-0.41 -0.51,0.63 0.37,2.02 -0.26,0.51 0.11,1.02 -0.28,0.31 -0.53,0.11 -0.36,-0.17 -0.23,0.35 -1.4,-0.84 -0.22,-0.23 0.11,-0.26 -0.25,0 -0.27,0.93 -0.5,0.31 -0.36,-0.35 -0.42,0.9 -1.69,0.8 0.18,0.41 -0.1,0.54 -0.55,-0.19 -0.17,0.36 0,0 -0.51,0.07 -0.24,0.56 -0.34,-0.09 -0.56,-0.7 0.02,-0.82 -1.19,-0.53 0.03,-0.18 -0.73,-0.54 -0.61,0.03 -0.07,-0.21 0,0 -0.68,-0.81 -0.37,-1.01 -1.04,0.16 -0.2,-0.24 -0.54,0.21 -0.61,-0.38 0.19,-0.83 0.37,-0.07 0.21,-0.65 0.58,-0.5 0.32,-0.93 -0.55,-0.63 0,0 -0.26,-0.07 0.09,-0.29 0,0 1.02,-0.99 0.14,-0.96 0.4,-0.33 -0.07,-0.48 -0.24,-0.16 0,0 -0.34,-0.87 -0.6,-0.21 -0.25,-0.41 0,0 0.1,-0.18 -0.41,-0.64 -1.91,0.55 -0.27,-0.63 -0.86,-0.19 -0.43,-0.64 0,0 -1.19,-0.16 0,0 -0.52,-0.32 0,0 -0.9,-1 -0.24,-0.61 0,0 -0.32,-1.2 -0.19,-0.16 -0.55,0.13 -0.13,-0.95 -0.56,-0.56 -0.9,-0.27 -0.12,-0.64 0.16,-0.18 -0.18,0.04 -0.22,-0.37 0.11,-0.2 -0.21,-0.42 -1.5,-1.01 0.01,-0.47 0,0 -0.28,-0.15 0,0 -0.29,-0.35 -0.21,0.04 -0.29,-0.83 -0.47,-0.42 -0.21,-1.09 -0.57,-0.26 0,0 0.22,-0.52 -0.3,-0.34 0.24,-0.93 -0.34,-0.73 1.12,-0.65 0.05,-1.38 0.91,-0.81 -0.04,-0.29 0.22,-0.17 -0.14,-0.16 0.27,-0.07 0.1,-0.48 0.6,-0.78 0.58,-0.32 -0.31,-0.43 0.14,-0.55 -0.44,-0.12 -0.28,-0.38 0.79,-0.4 0.13,-0.9 0,0 -0.56,-0.14 0,0 -0.48,0.09 0.18,-0.32 -0.44,-0.56 1.12,-0.79 0.17,-0.54 -0.3,-0.83 0.98,-0.92 2.35,0.35 0.85,-0.48 0.63,0.29 0.55,-0.14 0.01,-0.46 0.69,0.14 0.72,-1.02 0.41,0.72 2.38,0.25 1.03,-1 1.1,0.33 0.97,-0.8 0.79,0.06 1.12,-0.57 0.31,0.15 0.74,-0.19 0.06,-0.37 1.42,-0.28 0.63,-0.56 0.89,0.13 0.16,-0.22 0.51,0.29 0.27,-0.22 2.13,-0.22 0.48,-0.25 0.6,-1.13 0,0 1.89,0.78 0.13,-0.31 0.48,0.06 0.75,-0.34 0.38,-0.7 -0.3,-0.04 -0.35,-0.47 0.07,-0.37 0.57,0.45 z"
     title="Quảng Ngãi"
     id="VN-29"
 />
</svg>
