<?xml version="1.0" encoding="UTF-8" standalone="no"?>
<!-- Created for MapSVG plugin: http://mapsvg.com -->
<svg
   xmlns:mapsvg="http://mapsvg.com"
   xmlns:dc="http://purl.org/dc/elements/1.1/"
   xmlns:rdf="http://www.w3.org/1999/02/22-rdf-syntax-ns#"
   xmlns:svg="http://www.w3.org/2000/svg"
   xmlns="http://www.w3.org/2000/svg"
   mapsvg:geoViewBox="102.143498 23.393563 109.460943 8.562136"
   width="381.07504"
   height="800.61719"
>
  <path
     d="m 331.28847,408.12323 0.12,0.5 1.36,0.47 -0.07,1.4 0.16,0.37 -0.33,0.02 -0.24,-0.44 -0.82,-0.42 -0.35,-1 -0.4,-0.15 -0.3,0.21 -0.18,-0.39 -0.3,-0.1 0.99,-0.73 0.36,0.26 z m -54.23,-2.76 0.46,-0.52 0.77,-0.34 0.67,0.5 0.43,0.82 1.88,0.3 0.63,-0.58 0.03,-0.47 -0.36,-0.76 0.95,-0.57 1.22,-0.06 1.27,-0.4 0.31,0.76 -0.27,0.9 0.69,0.12 0.91,0.6 0.66,0.06 0.42,0.35 0.31,0.69 0.99,0.24 0.58,-0.09 0.85,-0.67 0.21,-0.55 -0.07,-0.61 2.21,-1.18 0.32,-0.41 -0.07,-0.41 0.4,0.26 0.47,-0.17 0.98,0.67 0.33,-0.02 0.16,-0.27 0,0 0.69,0.22 0.42,-0.31 1.17,-0.09 0.61,0.51 0.94,0.26 0.07,0.38 0.44,0.36 1.93,-1.27 1.13,-0.37 -0.15,1.5 0.55,0.46 0.05,0.43 0.73,0.44 -0.15,1.27 -1.25,1.09 -0.04,0.52 -0.34,0.5 1.91,1.62 1.01,-0.14 0.76,-0.47 1.09,-0.26 1.01,0.06 0.4,0.38 0.67,0.07 1.49,-1.22 1.48,0.94 0.46,-0.16 0.36,-1.06 0.6,0.09 0.18,0.52 0.52,0.11 0.28,-1.37 0.34,0.21 0.33,-0.18 0.47,0.17 -0.18,0.29 0.42,0.73 0.31,-0.29 0.32,0.06 0.11,-0.51 0.3,-0.05 0.01,-0.25 0.85,-0.67 0.52,0 0.24,0.48 0.37,-0.07 0.08,0.38 1,-0.39 0,0 0.63,0.99 1.4,1.42 3.23,1.99 -0.04,0.52 -0.25,-0.12 -0.62,0.45 0.22,0.42 1.28,-0.53 0.45,2.5 0.48,1.34 3.96,6.83 4.16,6.06 2.15,2.38 1.7,1.05 -0.5,0.04 -2.25,-1.58 -0.35,-0.02 -0.54,-0.35 -0.12,0.14 0.66,0.56 -0.72,0.58 0.58,1.51 0.59,0.47 0.59,-0.64 0.35,0.34 0.62,0.09 0.03,0.69 -0.31,0.06 0.02,0.4 0.96,0.77 0.44,-0.1 0.62,0.39 0.41,-0.49 0.35,-0.11 -0.04,-0.91 -0.42,0.03 0.86,-0.64 -0.03,-0.53 0.28,-0.12 0.18,0.21 -0.13,0.3 0.37,0.33 0.22,0.66 -0.26,0.91 2.15,2.28 0,0 -0.6,1.13 -0.48,0.25 -2.13,0.22 -0.27,0.22 -0.5,-0.29 -0.16,0.22 -0.89,-0.12 -0.63,0.56 -1.42,0.28 -0.06,0.37 -0.74,0.19 -0.3,-0.15 -1.12,0.57 -0.79,-0.06 -0.97,0.8 -1.1,-0.33 -1.03,1 -2.38,-0.25 -0.41,-0.71 -0.72,1.02 -0.69,-0.14 0,0.46 -0.55,0.14 -0.63,-0.29 -0.85,0.48 -2.35,-0.35 -0.98,0.92 0.3,0.83 -0.17,0.54 -1.12,0.79 0.45,0.56 -0.17,0.32 0.48,-0.09 0,0 0.56,0.14 0,0 -0.13,0.9 -0.79,0.4 0.28,0.38 0.44,0.12 -0.14,0.55 0.31,0.43 -0.58,0.33 -0.6,0.78 -0.1,0.48 -0.26,0.07 0.14,0.16 -0.22,0.17 0.04,0.3 -0.91,0.81 -0.05,1.38 -1.12,0.65 0.34,0.73 -0.24,0.93 0.3,0.34 -0.22,0.52 0,0 -1.37,-0.05 -0.69,-0.65 -0.26,0.2 -0.13,-0.44 -0.78,-0.62 -0.76,-0.05 -0.83,0.83 0.34,0.96 -0.19,0.3 0.05,1.09 0.28,0.23 0.39,1.23 -0.7,0.64 -1.57,0.16 -0.64,0.44 -0.99,0 -0.05,-0.6 -0.55,-0.31 -0.69,-0.01 -0.85,-1.27 -1.54,-0.51 -0.45,0.25 -0.28,-0.25 -0.69,0.18 -0.37,-0.58 -0.57,-0.14 -1.06,-2.22 0.67,-0.64 0.6,-0.19 0.14,-0.56 -0.16,-0.31 0,0 0.42,-0.09 0,0 0.5,-1.25 0.38,-0.41 -0.12,-0.51 0.28,-0.67 -0.21,-0.86 -0.6,-0.1 -0.34,-0.45 -1.62,-0.45 -0.08,-0.6 -0.61,-0.24 -0.32,-0.86 -0.86,-0.28 -0.07,0.15 0,0 -0.62,0.18 0,0 -0.51,0.69 -0.46,-0.19 -0.6,-0.75 -2.01,0.14 -0.7,-0.44 -0.51,0.23 -1.1,-0.36 -0.47,0.05 -0.41,-0.27 0.01,-0.37 -0.82,-0.37 -0.64,0.32 0,0 -0.39,0.02 0,0 -0.12,-0.25 0.31,-0.11 -0.35,-1.31 -0.31,-0.36 0.19,-0.13 -0.14,-1.74 0.22,-0.16 -0.86,-0.09 -0.39,0.23 -1.49,-1.67 -0.1,-0.48 -0.41,-0.1 -0.32,-0.48 0.08,-0.39 0,0 -0.02,-0.19 0,0 -0.23,-0.42 0.11,-0.6 -0.35,-0.68 -0.66,-0.5 -0.24,-0.5 -0.68,0.06 0,0 -1.11,-0.33 -0.77,0.46 -0.9,0.79 -0.57,0.18 -0.78,-0.59 -1.25,-0.39 -0.18,-0.3 0.48,-1.29 -0.6,-0.97 -0.07,-0.65 -1.09,-0.35 -0.53,-0.46 -0.6,-0.48 -0.87,-0.36 -1,-0.02 -0.26,0.22 0.02,0.52 -0.69,-0.01 -1.81,-0.18 -0.35,-1.96 -0.53,-0.92 -0.01,-1.21 -0.63,0.04 -0.51,-0.36 0.29,-0.63 -0.31,-0.86 0.05,-0.56 -0.43,-0.43 -0.96,-0.23 -1.35,0.13 -0.69,-0.49 -0.16,-0.6 -0.47,-0.53 -0.08,-0.24 0.62,-1.26 0.06,-0.74 -0.08,-0.44 -0.42,-0.34 -0.64,-0.59 -0.31,-0.3 0.28,-0.59 -0.26,-0.36 -1.89,0.31 -0.09,-0.99 0.4,-1.07 0.53,-0.37 -0.06,-1.04 -0.9,-1.22 0.56,-0.53 0.63,-0.43 0.74,0.34 0.45,-0.57 0.67,-0.25 0.61,-0.26 0.89,-0.57 0.78,0.03 0.23,-0.68 0.6,-0.35 0.94,-0.36 1.21,0.15 0.62,0.34 0.77,-0.28 0.61,-1.02 0.52,-0.92 0.46,-0.26 0.32,-1.59 0.67,-1.12 0.25,-0.46 0.17,-0.8 0.44,-1.19 z"
     title="Quảng Nam"
     id="VN-27"
 />
</svg>
