<?xml version="1.0" encoding="UTF-8" standalone="no"?>
<!-- Created for MapSVG plugin: http://mapsvg.com -->
<svg
   xmlns:mapsvg="http://mapsvg.com"
   xmlns:dc="http://purl.org/dc/elements/1.1/"
   xmlns:rdf="http://www.w3.org/1999/02/22-rdf-syntax-ns#"
   xmlns:svg="http://www.w3.org/2000/svg"
   xmlns="http://www.w3.org/2000/svg"
   mapsvg:geoViewBox="102.143498 23.393563 109.460943 8.562136"
   width="381.07504"
   height="800.61719"
>
  <path
     d="m 252.54847,344.00323 2.1,1.62 4.29,2.57 0,0.51 -0.3,0.29 0.27,1.48 -0.4,0.26 0.21,0.65 -0.11,0.64 1.8,3.12 2.34,2.79 0.38,0.12 2.69,2.85 3.22,2.82 3.89,3.01 0,0 -0.91,0.44 -0.72,1.29 -0.27,0.11 0.37,0.51 -0.46,0.12 -0.83,1.15 -0.49,0.3 0.33,0.2 -0.62,0.24 0.54,0.65 0,0.38 -0.35,-0.56 -0.8,0.69 0.2,0.28 0.29,-0.21 -0.29,0.77 0.49,0.21 0.45,0.7 -0.69,0.72 -2.29,1.55 -1,-0.59 -0.3,-0.55 -1.49,0.51 -0.85,-0.31 -2.45,0.45 0,0 -0.68,0.16 0,0 -0.73,0.39 -0.26,0.68 -1.05,-0.03 -0.75,0.36 -0.55,-0.02 -0.12,0.21 -0.74,-0.23 0.09,0.72 -0.37,0.66 0.69,0.58 0.63,0.14 0.17,0.3 0.63,-0.13 0.21,0.79 0.27,-0.28 0.99,0.65 0.63,1.5 -0.64,0.71 -0.9,0.11 -0.93,-0.48 -1.49,0.03 -0.52,1.24 0.47,0.67 0.06,1.37 -0.31,0.33 -0.44,0.06 -0.31,0.58 -0.48,-0.03 -0.73,0.49 0.39,0.32 -0.07,1.88 0.28,0.53 0,0 -0.4,0.41 -0.81,-0.56 -1.76,0.62 -0.52,-0.11 0.37,-1.71 -0.15,-0.98 -2.1,-0.78 -1.37,-1.18 -0.33,-1.04 0.36,-0.87 -0.37,-0.05 -0.25,0.28 -0.69,-0.27 -0.1,-0.29 0.87,-1.04 -0.07,-0.58 -0.49,-0.4 -0.04,-0.33 0.1,-0.47 0.42,-0.36 0.03,-0.99 0.17,-0.12 -0.2,-0.56 -1.24,-1.03 -1.66,-0.42 -0.35,1.04 0.23,0.4 -1.37,3.15 -0.29,-0.63 -1.33,0.41 0.23,0.47 -0.18,1.46 -0.47,0.38 -0.89,0.07 0.01,0.37 -0.32,0.33 -0.3,-0.73 -0.41,-0.03 -0.56,-0.44 -1.42,-0.32 -0.07,-0.25 0.32,-0.33 -0.49,-0.45 -0.39,0.31 -0.1,-1.26 -0.68,0.13 0.16,-0.72 -0.22,-0.34 0.29,-0.58 -0.57,-0.34 -0.35,-0.64 0,-0.92 0.65,-0.83 0.65,-0.33 -0.53,-0.71 -0.32,-0.44 -0.5,-0.67 -0.74,0.16 -0.42,-0.15 0.11,-0.42 -0.84,-0.29 -1.26,0.32 -0.19,-0.45 0.44,-0.38 -0.01,-0.37 -1.26,-0.87 0.03,-1 -0.8,-1.95 0,-9.22 -0.66,-0.33 -0.4,-0.82 -0.61,-0.18 -0.26,-0.33 0.1,-0.77 0.18,-0.64 0.24,-0.2 1.21,-0.01 0.14,-3.87 0,0 0.65,0.55 1.15,-0.14 0.42,0.14 0.06,0.31 -0.36,0.23 -0.07,0.25 0.35,0.68 0.34,0.14 0,0.52 0.38,0.4 1.19,-0.11 1.58,0.26 0.37,-0.59 1,-0.47 0.38,0.08 0.42,0.75 0.73,-0.04 0.39,0.62 1.06,0.47 0.76,-0.39 0.74,0.21 0.31,-0.3 -0.2,-1.27 0.37,-0.84 -0.12,-0.42 0.27,-0.51 0.4,0.03 0.65,-0.36 0.23,-0.51 -0.3,-1 0.39,-0.4 -0.03,-0.33 0.49,-0.37 0.78,0.37 0.93,-0.28 0.63,-0.67 -0.29,-1.27 0.35,-0.21 0.81,0.01 1.68,-1.26 1.77,-0.73 2.5,-2.58 0,0 -0.04,0.03 z"
     title="Quảng Trị"
     id="VN-25"
 />
</svg>
