<?xml version="1.0" encoding="UTF-8" standalone="no"?>
<!-- Created for MapSVG plugin: http://mapsvg.com -->
<svg
   xmlns:mapsvg="http://mapsvg.com"
   xmlns:dc="http://purl.org/dc/elements/1.1/"
   xmlns:rdf="http://www.w3.org/1999/02/22-rdf-syntax-ns#"
   xmlns:svg="http://www.w3.org/2000/svg"
   xmlns="http://www.w3.org/2000/svg"
   mapsvg:geoViewBox="102.143498 23.393563 109.460943 8.562136"
   width="381.07504"
   height="800.61719"
>
  <path
     d="m 342.87847,611.29323 0.81,0.33 0.88,-0.11 0.29,0.26 0.39,-0.62 0.83,0.28 -0.37,1.87 0.45,0.69 0.24,0.77 -0.17,0.43 0.27,0.17 0.08,0.77 0.37,0.63 -0.43,0.76 1,0.26 0.19,0.44 0.65,0.47 1.02,0.25 0.15,1.17 -0.65,0.82 0.28,0.82 0.74,-0.17 0.38,0.48 0.39,-0.07 0.57,0.67 1.23,-0.28 0.58,0.62 0.42,0.23 0.62,-0.06 0.5,0.67 1.28,0.53 0.44,0 0.8,-0.46 0.79,0.69 0.87,0.08 0.59,0.56 0.59,1.98 0.87,1.35 0.72,0.48 0.2,0.52 0.78,0.48 1.34,0.13 3.17,-0.36 0,0 -0.51,0.95 1.33,1.15 0.16,0.39 -0.18,0.25 0.41,0.27 0.41,-0.09 0.23,0.46 0.11,1.1 -0.59,0.64 -0.39,-0.28 -0.4,0.31 -0.16,0.38 -0.8,0.85 -0.57,0.75 -0.58,2.91 -0.41,-0.13 -0.42,0.41 -0.55,1.67 -0.55,0.4 0.07,0.65 -0.14,0.08 -0.21,-0.51 -1.69,-0.8 -1.34,0.38 -1.16,-0.47 -0.45,0.15 -0.42,0.56 -0.08,0.7 0.48,0.76 -0.49,0.45 -0.38,0.6 -0.22,0.65 0.09,2.46 -0.35,1.36 0.29,1.04 -0.38,0.63 0.07,1.55 0.25,0.49 0.48,0.23 -0.1,0.51 -0.68,0.23 -0.62,0.32 -0.36,0.79 -1.28,0.98 -1.29,0.23 -0.74,0.06 -0.27,-0.19 -1.56,-1.14 -0.82,0.17 -0.33,-0.04 0,0 0.42,-0.3 0.07,-0.77 -0.49,0.09 -0.49,-0.25 -0.54,-0.51 -0.13,-0.58 -3.03,-0.59 -0.13,-0.31 -1.35,-0.92 0.18,-3.08 -1.83,0.03 -0.64,0.38 -1.8,-0.59 -1.01,-1.62 -0.81,-2.4 -3.2,-0.31 0,0 -0.44,-1.09 -1.14,-1.33 0.1,-1.61 0.49,-0.55 0.23,0.04 0,0 0.63,0.04 0,0 0.85,-0.39 1.44,-0.06 0.14,-0.24 1.51,-0.54 0,0 0.48,-0.16 0,0 0.19,0.19 0,0 0.35,-0.16 0,0 0.45,-0.42 0,0 0.47,-0.99 0,0 0.03,-0.19 0.45,-0.1 -0.23,-0.35 0,0 -0.31,-1.38 0,0 -1.25,-0.85 -0.12,-0.91 0,0 0.45,-0.84 -0.18,-0.36 -1.7,-0.31 -0.86,-0.47 0,0 -0.07,-0.27 0.36,-0.34 0.19,-0.81 0.58,-0.09 0.63,-0.61 -0.14,-1.1 0.18,-1.64 0.53,-1.08 -0.22,-0.62 0.3,-0.58 -0.03,-0.5 -0.28,-0.27 0.09,-0.47 1,-1.24 0.17,-0.83 -0.18,-0.64 0.24,-0.62 0.49,-0.86 0.6,-0.21 0.29,-0.64 -0.17,-1.19 -0.31,-0.34 0.09,-0.36 -1.6,-1.54 0.23,0.02 0.43,-0.44 0.35,0.03 0.19,-0.57 -0.15,-0.32 0.54,-0.19 0.1,-0.24 0.8,0.05 0.46,-0.53 z"
     title="Ninh Thuận"
     id="VN-36"
 />
</svg>
