<?xml version="1.0" encoding="UTF-8" standalone="no"?>
<!-- Created for MapSVG plugin: http://mapsvg.com -->
<svg
   xmlns:mapsvg="http://mapsvg.com"
   xmlns:dc="http://purl.org/dc/elements/1.1/"
   xmlns:rdf="http://www.w3.org/1999/02/22-rdf-syntax-ns#"
   xmlns:svg="http://www.w3.org/2000/svg"
   xmlns="http://www.w3.org/2000/svg"
   mapsvg:geoViewBox="102.143498 23.393563 109.460943 8.562136"
   width="381.07504"
   height="800.61719"
>
  <path
     d="m 340.26847,603.15323 0.27,-0.07 0.18,0.34 0.61,0.11 0.33,0.5 -0.31,0.64 0.28,1.68 -0.33,0.55 0.27,0.56 0.7,0.47 0.19,0.4 -0.61,1.42 1.03,1.54 0,0 -0.56,0.45 -0.8,-0.05 -0.1,0.25 -0.54,0.19 0.16,0.32 -0.2,0.57 -0.35,-0.03 -0.42,0.44 -0.24,-0.03 1.6,1.55 -0.09,0.36 0.31,0.34 0.17,1.19 -0.29,0.63 -0.6,0.21 -0.49,0.86 -0.24,0.63 0.18,0.63 -0.17,0.83 -1,1.24 -0.09,0.48 0.28,0.26 0.03,0.51 -0.29,0.57 0.22,0.62 -0.53,1.09 -0.18,1.63 0.14,1.1 -0.63,0.61 -0.58,0.1 -0.19,0.81 -0.36,0.34 0.07,0.27 0,0 0.9,0.48 1.63,0.27 0.21,0.38 -0.45,0.84 0,0 0.12,0.91 1.25,0.85 0,0 0.32,1.38 0,0 0.23,0.35 -0.46,0.1 -0.03,0.19 0,0 -0.47,0.99 0,0 -0.45,0.42 0,0 -0.35,0.17 0,0 -0.19,-0.19 0,0 -0.48,0.16 0,0 -1.5,0.54 -0.14,0.24 -1.44,0.06 -0.85,0.39 0,0 -0.63,-0.04 0,0 -0.23,-0.04 -0.49,0.55 -0.09,1.62 1.14,1.32 0.44,1.09 0,0 -0.5,0.24 0.08,0.29 -0.43,0.47 -0.49,1.16 -0.81,0.46 -0.73,-0.14 -0.11,-0.25 -1.59,-0.87 -1.13,0.3 -0.18,0.35 -1.23,-0.08 -0.72,0.25 -0.69,-0.67 -1.16,0.46 -0.67,-0.37 -0.49,0.85 -1.04,0.22 -0.12,-0.86 -0.23,-0.02 -0.14,-0.35 -0.71,0.3 -0.31,-0.5 -1.51,0.87 -0.88,-0.01 -0.66,0.94 0.27,0.49 -0.68,0.76 0.87,1.89 0.51,-0.47 0.5,0.36 0.27,0.68 0.36,0.26 0.01,0.51 -1.43,1 -0.06,0.51 -1.16,1.25 -1.43,0.78 -0.53,0.78 -1.12,0.47 -0.58,0.86 -1.76,0.33 -1.13,0.49 -0.34,0.48 -0.38,-0.62 -0.47,1.28 -0.3,0.17 -0.66,-0.13 -1.58,1.33 -0.03,1.24 -0.58,0.2 0.01,-1.05 0.33,-0.25 -0.01,-0.29 -0.55,-0.75 0.13,-0.87 -0.72,-1.19 -0.11,-1.45 -1.28,-0.32 -0.47,-0.43 -0.97,-0.16 -0.79,-0.39 -1.06,0.18 -0.37,-0.53 -1.33,-0.29 -5.78,-0.45 -3.05,0.29 -0.42,0.47 -0.26,-0.18 0.03,-0.34 -0.25,1.11 -0.34,0.49 -1.75,0.74 -0.72,-0.11 -1.05,-0.66 -0.76,0.01 -1.18,-0.36 -1.73,-1.96 -0.46,-0.01 -1.25,1.02 0,0 -0.34,0.36 -0.62,-0.35 -0.01,-0.39 -0.35,-0.06 -0.24,-0.71 0,0 -0.5,0.06 0,0 -0.31,-0.64 -0.53,-0.06 0.05,-1.59 -0.69,-0.51 -0.79,0.27 -0.29,-0.14 -0.02,0.7 -0.52,0.05 0.15,-0.42 -0.21,-0.24 -0.64,0.33 -0.01,-0.76 0.71,-0.54 0.15,0.1 0.23,-0.55 0.58,-0.22 -0.01,-0.57 0.51,-0.16 -0.89,-0.82 -0.1,-0.51 -0.61,-0.43 0.02,-0.34 -0.43,0.23 -0.2,-0.36 -0.49,0.41 -0.4,-0.36 -0.14,-0.54 -0.41,-0.08 -0.8,0.2 -0.05,0.27 -0.6,0.31 -0.33,-0.14 0.45,-0.32 0.13,-1.01 -0.36,-0.79 -0.19,0.01 0.14,0.47 -0.54,-0.33 0.33,-0.32 -0.3,-0.37 0.27,-0.26 -0.25,-0.47 -0.2,0.08 -0.03,1.07 -0.47,0.35 -0.06,0.5 -0.52,-0.1 0,0 -0.21,-0.42 -1.16,-0.05 -0.42,-0.84 0.4,0.13 0.1,-0.16 -0.6,-0.34 -0.17,-0.38 0.48,-0.74 -0.3,-0.4 0.19,-0.59 -0.88,-0.71 -0.83,-0.28 -0.15,-0.33 0.24,-0.36 -0.38,-0.61 1,-1.34 -0.34,-0.3 0.28,-0.33 0.09,-1.39 0.19,-0.25 0.36,0 0.26,-0.53 0.72,-0.06 0.58,-0.46 1.37,-0.17 0.19,-0.48 0.33,0.05 0.48,-0.47 0.78,-0.16 0.19,0.31 0,0 1.37,0.95 0.84,-0.89 0.83,0.41 0.76,-0.16 0.72,-0.87 0.16,-0.73 1.1,-0.36 0.24,-0.29 0.15,0.3 1.21,0.04 0,0 0.55,0.26 0,0 0.49,0.04 1.32,-1.57 0.73,-0.26 0.72,-0.64 0.66,-0.03 0.57,-1.39 0.49,-0.02 0.48,-0.47 0.55,-0.06 0.26,-0.62 0.57,0.06 0.16,-0.2 -0.32,-0.26 0.21,-0.42 -0.16,-0.44 0.88,-0.46 0.65,0.21 0.37,-0.34 1.01,0.38 0.29,0.63 -0.58,0.24 0.51,0.94 -0.36,0.26 0.06,0.3 0.41,-0.24 0.86,0.42 1.06,0.93 0.89,-0.56 1,-0.06 0.28,-0.36 0.5,0.25 0.41,-0.75 0.28,-0.01 0.39,0.45 0.53,-0.3 2.07,0.19 0.21,0.15 0.19,0.87 -0.54,0.4 -0.01,0.76 0.43,0.23 -0.43,-0.04 -0.13,0.28 0.55,0.65 1.34,0.6 0.29,-0.85 0.15,0.19 0.28,-0.12 0.05,-0.31 0.43,-0.31 0.06,0.34 0.46,-0.09 0.03,0.4 0.42,0.24 0.4,0.86 0.27,-0.04 0.33,-0.46 0.62,-0.06 0.36,-0.31 0.69,0.02 0.32,-0.63 1.76,-1 0.54,0.14 1.69,-2.25 0.51,-1.04 0,0 -0.16,-0.43 -0.39,-0.06 0,0 -0.85,-0.27 -0.08,-0.93 -0.74,-1 -0.39,0.29 -0.75,-0.38 0.18,-0.34 -0.22,-1.08 -0.94,-0.73 0.01,-0.42 -0.25,-0.25 0.16,-0.54 -0.45,-0.49 -0.52,-0.08 0.25,-0.4 -0.16,-0.14 0.15,-0.07 -0.14,-0.27 0.19,0.02 -0.07,-0.61 -0.58,0.16 -0.27,-0.23 -0.2,0.11 -0.03,-0.19 -0.6,0.1 -0.54,-0.54 -0.22,0.06 -0.09,-0.28 0.37,-0.41 0.26,0 -0.14,-0.26 0.56,0 -0.02,-1.28 0.13,-0.32 0.27,0.02 -0.05,-0.62 0.52,-0.08 -0.06,-0.27 0.48,0.65 0.21,-0.43 0.43,-0.2 -0.04,-0.71 0.27,0.27 0.55,-0.46 0.44,0.32 0.41,0 0.19,-0.27 0.08,0.37 0.55,-0.06 0.23,0.3 0.42,-0.04 -0.05,-0.28 0.65,0.23 0.25,-0.52 0.33,0.39 0.04,-0.65 0.2,0.21 0.13,-0.28 0.3,0.12 -0.12,-0.25 0.22,-0.46 -0.4,-0.19 0.24,-0.16 -0.03,-0.86 0,0 0.57,0.48 2.21,-1.13 0.35,0.53 -0.02,0.36 0.3,-0.31 0.24,0.12 0.1,0.47 0.64,-0.16 0,0 0,0.18 0,0 0.16,0.16 0.48,-0.08 0.01,-0.29 0.39,-0.31 0.35,0.63 0.24,-0.55 0.18,0.3 0.33,0.05 0.15,0.79 0.74,-0.72 -0.01,-0.22 -0.3,0.11 -0.02,-0.22 0.19,-0.43 0.39,-0.14 -0.03,-0.47 0.65,-0.22 0.32,-0.52 0.86,0.3 0.08,0.32 0.8,-0.82 0.56,-0.08 -0.05,-0.22 0.49,-0.35 0.48,0.12 -0.05,-0.32 -0.31,-0.06 0.08,-0.6 0.39,0.08 0.7,-0.5 0.72,0.02 0.94,0.71 1.3,-0.14 0.76,-0.43 0.11,-0.4 0.52,0.47 -0.15,-0.37 0.37,-0.32 -0.06,-0.75 0.41,0.23 0.41,-0.52 -0.07,0.37 0.17,0.01 0.33,-0.39 -0.06,-0.73 0.35,0.47 0.14,-0.64 0.46,0.03 -0.16,-0.25 0.15,-0.27 0.11,0.25 0.34,-0.03 0.41,0.72 -0.05,0.36 0.56,0.41 1.48,-0.3 -0.12,-0.38 0.34,-0.39 0.4,0.28 0.12,-0.19 0.65,0.19 0.24,-0.17 0.54,0.51 0.5,-0.13 -0.18,0.33 0.53,0.3 0.62,-0.36 0.58,0.08 0.31,-0.45 2.14,-0.48 z"
     title="Lâm Đồng"
     id="VN-35"
 />
</svg>
