<?xml version="1.0" encoding="UTF-8" standalone="no"?>
<!-- Created for MapSVG plugin: http://mapsvg.com -->
<svg
   xmlns:mapsvg="http://mapsvg.com"
   xmlns:dc="http://purl.org/dc/elements/1.1/"
   xmlns:rdf="http://www.w3.org/1999/02/22-rdf-syntax-ns#"
   xmlns:svg="http://www.w3.org/2000/svg"
   xmlns="http://www.w3.org/2000/svg"
   mapsvg:geoViewBox="102.143498 23.393563 109.460943 8.562136"
   width="381.07504"
   height="800.61719"
>
  <path
     d="m 248.74847,693.04323 -0.53,0.06 -0.35,-0.79 -1.16,-1.26 -0.52,-0.09 -0.7,0.47 -1.02,0.14 -0.15,0.48 -0.58,-0.03 -0.95,-1.58 -1.26,-0.82 -0.17,0.13 0,0 -1.34,-1.25 -0.08,-1.28 1.03,-1.3 1.49,-0.72 0.28,-0.57 0.66,-0.51 0,0 0.31,0.19 0,0 -0.02,0.93 1.05,-0.82 0.42,0.03 0.64,0.52 0.28,-0.04 0.16,-0.36 -0.49,-0.89 0.89,-0.91 -0.23,-0.7 -1.19,-1.31 -0.38,-0.93 0.22,-0.72 -0.38,-0.44 -0.18,-0.75 0,0 -0.43,-0.43 -0.79,0.19 -0.36,-0.86 -1.11,-0.12 0.19,-0.4 -1.09,-0.69 0.01,-0.47 -0.42,-0.07 0.03,-0.62 0.4,-0.03 0.22,0.32 1.08,-0.66 -0.72,-0.79 -0.39,-0.99 0.54,-0.65 1.21,-0.42 0.24,-0.29 -0.21,-0.7 -0.51,-0.62 1.46,-0.43 0.66,1.33 0.96,0.39 0.53,0.57 0.26,0.09 1.09,-0.41 0.72,0.27 0.22,-0.96 0.57,-0.39 -0.04,-0.42 0.49,-0.45 0.48,0.39 0.35,-0.13 0.23,-0.65 -0.39,-0.33 0.1,-0.56 0.65,-0.62 -0.08,-0.33 0,0 0.38,-0.06 0,0 -0.59,-1.11 0.19,-0.28 -0.15,-0.35 0.6,-0.1 0.02,-0.26 -0.52,-0.26 -0.15,-0.59 -0.63,-0.2 0.23,-0.47 -0.33,-0.14 -0.31,-0.55 -0.52,0.11 -0.19,-0.32 -0.67,0.04 0,-0.58 -0.29,-0.28 0.72,-0.29 0.15,-0.29 -0.24,-0.62 0.27,-0.2 -0.35,-0.02 -0.05,-0.28 1.09,-0.17 -0.26,-0.13 0.04,-0.71 -0.17,-0.18 0.21,-0.03 -0.17,-0.33 0.31,-0.09 0.13,-0.75 0.44,-0.32 -0.23,-0.17 0.14,-0.01 -0.1,-0.56 0,0 0.56,0.04 0.49,0.33 0.01,-0.46 0.52,-0.22 -0.05,-0.17 0.85,0.25 0.1,-0.53 -0.37,-0.47 0.4,0.01 -0.01,0.19 0.39,-0.19 0.09,0.3 0.14,-0.2 0.18,0.09 -0.08,-0.24 0.21,0.03 0.02,-0.33 0.55,-0.11 -0.16,-0.42 0.33,0.05 0.43,-0.38 0.3,0.11 -0.02,-0.2 0.21,0.03 0.21,-0.26 -0.13,-0.27 0.3,-0.04 -0.31,-0.2 0.36,-0.08 -0.05,-0.2 0.61,0.17 0.41,-0.22 -0.2,-0.18 0.21,-0.44 -0.27,-0.32 0.67,-0.47 -0.02,-0.44 0.41,-0.29 -0.28,-0.51 -0.24,-0.03 0,-0.66 0.41,-0.75 1.04,-0.7 0.06,-0.62 1.24,-0.15 0.85,-1.01 9.65,-2.07 0.75,-0.34 0.52,0.11 0.06,-0.5 0.47,-0.35 0.03,-1.07 0.2,-0.08 0.25,0.47 -0.27,0.26 0.29,0.37 -0.32,0.32 0.54,0.33 -0.13,-0.47 0.19,-0.01 0.37,0.8 -0.13,1 -0.46,0.32 0.34,0.14 0.59,-0.3 0.06,-0.27 0.79,-0.2 0.42,0.08 0.14,0.54 0.4,0.36 0.49,-0.41 0.21,0.36 0.42,-0.23 -0.01,0.35 0.61,0.43 0.1,0.51 0.89,0.82 -0.51,0.16 0.01,0.58 -0.58,0.22 -0.23,0.55 -0.15,-0.1 -0.7,0.54 0.01,0.76 0.64,-0.34 0.21,0.24 -0.15,0.42 0.52,-0.04 0.02,-0.71 0.28,0.14 0.8,-0.27 0.69,0.51 -0.04,1.6 0.53,0.06 0.31,0.64 0,0 0.5,-0.06 0,0 0.24,0.72 0.36,0.05 0.01,0.39 0.62,0.35 0.34,-0.36 0,0 -0.4,1.95 -0.91,0.79 0.32,0.54 -0.28,0.79 0.32,1.72 -0.27,0.21 -0.13,-0.19 -0.47,0.77 -0.31,0.08 -0.23,-0.36 0.14,0.7 -0.32,0.22 0.27,0.23 -0.43,-0.24 -0.42,0.21 0.31,0.24 -0.52,0.37 0.27,0.37 -0.18,0.22 -0.1,-0.22 -0.25,0.12 0.35,0.52 -0.42,-0.15 0,0.4 -0.23,0.11 0.17,0.27 -0.24,-0.1 -0.29,0.2 0.08,0.5 -0.38,0.42 0.16,0.44 -0.43,0.23 -0.23,-0.11 -0.14,0.51 -0.41,0.11 0.05,0.38 0,0 0.47,0.28 0,0 0.48,0.78 -0.56,1.37 -0.25,-0.29 -0.4,0.14 0.08,0.23 -0.49,0.36 0.14,0.66 -0.47,0.67 -0.84,-0.16 -0.3,0.21 0.44,0.06 0.16,0.28 0.33,-0.16 0.02,0.2 0.51,0.03 -0.05,0.26 1.17,0.32 0.31,0.52 0.79,0.25 0.48,0.48 1.17,-0.39 0.52,0.06 0.56,0.77 0.92,0.61 0.11,0.5 0.28,-0.07 0.92,2.31 -0.01,3.5 0.72,1.1 0.17,0.65 -0.18,1.09 -2.07,1.78 -0.62,0.37 -0.78,0.08 0,0 -0.47,0.3 -0.61,-0.09 -0.67,-1.29 -0.71,0.13 -0.22,-0.6 -0.26,-0.1 -0.55,0.22 -0.39,0.63 0,0 -0.21,0.08 0,0 -0.32,0.56 0,0 -0.07,0.11 0,0 -0.07,0.09 0,0 -0.21,-0.04 0,0 -0.67,0.21 -0.47,0.7 -0.45,0.23 -0.62,1.04 -0.56,0.2 -0.15,0.69 -0.52,0.46 0.29,0.48 -0.22,0.44 0.25,0.14 -0.27,0.45 0,0 -0.24,0.14 0,0 -0.65,-0.14 -0.73,0.47 -0.93,-0.81 0.41,-0.51 -0.34,-0.41 0.24,-0.67 -0.26,-0.22 0.04,-0.6 0.17,0.06 -0.22,-1.36 -2.91,-0.09 0.01,-0.16 -0.7,-0.21 -0.52,0.36 -0.77,-0.09 0.01,-0.85 -0.16,0.01 -1.19,0.38 -0.59,0.72 -0.77,0.49 -0.92,-0.01 0.12,0.64 0.35,0.12 -0.12,0.31 -0.23,-0.21 0.09,0.49 -0.37,1.74 -0.45,0.16 -0.21,0.48 -1.06,0.55 -0.25,0.58 -2.57,-0.29 -1.68,0.71 0,0 -0.71,0.02 -0.02,0.27 -0.32,0.13 0.04,0.76 0.58,0.53 0,0 -0.87,0.29 -0.18,0.42 0,0 -0.09,0.19 -0.12,0.58 -0.27,-0.16 -0.87,-0.56 -0.97,-0.17 -0.44,-0.18 -0.85,-0.59 z"
     title="Đồng Nai"
     id="VN-39"
 />
</svg>
