<?xml version="1.0" encoding="UTF-8" standalone="no"?>
<!-- Created for MapSVG plugin: http://mapsvg.com -->
<svg
   xmlns:mapsvg="http://mapsvg.com"
   xmlns:dc="http://purl.org/dc/elements/1.1/"
   xmlns:rdf="http://www.w3.org/1999/02/22-rdf-syntax-ns#"
   xmlns:svg="http://www.w3.org/2000/svg"
   xmlns="http://www.w3.org/2000/svg"
   mapsvg:geoViewBox="102.143498 23.393563 109.460943 8.562136"
   width="381.07504"
   height="800.61719"
>
  <path
     d="m 349.02847,536.70323 0.32,0.79 0.69,0.38 -0.09,0.6 1.4,-0.32 0.44,0.16 0.18,-0.2 0.74,0.06 0.61,0.51 0.84,0.27 0.52,0.59 1.8,-0.07 0.26,-0.34 1.57,-0.46 1.26,-2.01 1.57,0.06 0.56,-0.25 0.71,-0.82 0.54,0.12 -0.25,-0.35 0.23,-0.57 -0.12,-0.54 0.6,-0.55 -0.43,-0.6 0.07,-0.33 0.16,-0.17 0.48,0.18 0.64,0.61 0.41,-0.24 -0.08,-1.12 0.28,-1.21 1.34,-0.27 0.41,-0.52 0.5,-0.11 0.44,0.77 0.96,0.12 0.35,0.47 0,0 0.04,0.82 -0.41,0.63 0.83,1.72 1.31,1.53 0.65,0.45 0.36,0.05 0.16,-0.2 0.51,0.44 -0.37,-0.08 -0.11,0.46 -0.51,0.23 -0.18,0.51 0.17,0.71 0.4,0.26 -0.28,0.14 -0.66,-0.35 0.05,-0.65 0.12,-0.6 -1.36,-0.95 -0.19,-0.79 -1.49,-2.87 -0.35,-0.35 -0.35,1.3 0.85,0.47 1.27,2.3 0.3,0.3 -0.1,0.61 0.51,0.39 -0.38,1.2 2.05,0.87 0.43,-0.26 -0.19,-0.71 0.53,0.26 0.05,0.86 -0.33,-0.29 -0.44,0.59 0.26,0.96 0.81,0.96 0.56,-0.08 0.19,-0.49 0.39,0.32 0.06,0.35 -0.2,0.1 -0.19,-0.21 -0.34,0.3 0.16,0.85 -0.48,0.3 0.05,1.31 -0.46,-0.1 -0.25,0.58 -0.23,-0.16 -0.08,-0.5 -1.02,0.09 -0.19,0.19 -0.51,-0.86 0.33,-0.38 0.6,0 0.4,-0.7 0.34,0.07 0.11,-0.5 -0.3,-0.34 -0.4,0.04 -0.65,-0.9 -0.77,-0.2 -0.48,-0.22 -0.71,0.35 0.24,0.47 -0.74,1.25 0.44,0.85 0.55,0.19 -0.32,0.26 -0.29,-0.11 -0.39,0.44 0.61,0.23 -0.17,0.84 -0.35,0.04 -0.35,-0.35 -0.07,0.3 0.53,0.45 0.61,-0.18 0.48,0.21 0.25,1.15 0.48,0.46 0.33,0.09 0.29,-0.17 -0.02,-0.25 0.31,-0.07 0.98,0.11 0.12,0.41 -0.32,0.24 0.46,0.87 -0.29,0.11 -0.49,-0.23 -0.28,0.65 0.52,1.82 -0.27,0.12 -0.4,-0.88 -0.37,-0.18 -0.13,-0.38 -0.38,0.37 0.42,0.8 -0.59,0.45 0.25,0.55 0.17,0.31 -0.01,1 0.39,0.22 0.2,0.32 0.36,0.38 0.24,-0.86 -0.47,-1.1 0.05,-0.64 0.53,0.06 0.34,-0.44 0.74,0.69 0.43,1.12 -0.74,0.27 -0.06,0.6 0.27,0.52 -0.75,0.69 0.11,1.07 0.32,0.5 -0.41,0.91 0.13,1.69 2,2.95 2.22,4.03 1.21,1.47 1.65,1.71 -0.1,0.5 0.65,0.97 0.72,0.3 0.13,0.84 -0.21,0.44 -0.15,0.59 0.03,1 -0.72,0.14 -0.52,0.5 -0.43,-0.06 0.94,-1.21 -0.04,-0.51 -0.41,-0.04 -0.55,0.22 -0.91,0.56 0.12,0.42 -0.56,0.39 -0.14,0.42 0,0 -1.19,-1.33 -0.22,0.47 -0.66,0.16 -0.41,0.5 -0.58,-0.06 -0.54,0.66 -0.24,-0.39 -0.38,0.23 -0.39,-0.11 -0.75,0.48 0,0 0,0 0,0 -0.85,0 -0.73,-0.3 -1.42,1.35 -1.03,-0.92 -2.15,0.17 -1.37,2.38 -0.82,-0.75 -0.42,-0.12 -0.46,1.32 -0.9,0.71 0.09,0.48 -0.3,0.39 -0.34,0.02 -0.64,-0.52 -0.39,0.45 -1.06,-0.05 -0.08,0.47 -0.68,0.04 -0.64,0.37 0.35,0.34 -1.38,0.82 0,0 -0.05,-0.77 -0.33,-0.32 -0.16,-0.84 0.36,-0.66 -0.27,-0.82 0.08,-0.55 -0.76,-0.37 0.22,-0.56 -0.22,-0.17 -0.1,-0.74 -0.35,-0.08 -0.4,0.32 -0.46,0.04 -0.17,0.28 -0.48,-0.27 -1.33,0.05 -0.7,-0.29 -1.4,-0.06 -0.34,-0.52 -0.54,-0.31 -0.18,-1.23 -1.07,-0.67 -0.41,0.02 -0.29,-0.41 -0.55,0.06 -0.47,0.34 -0.21,-0.16 -0.4,-1.19 -0.48,-0.33 -0.17,-0.91 -0.43,-0.36 -0.6,-1.17 -1.61,-0.48 -0.26,0.46 -0.6,0.13 -0.14,-0.26 0.25,-0.86 -0.65,-0.37 -0.12,-0.45 -0.57,-0.08 -0.3,-0.42 -0.03,-0.23 0.44,-0.22 0,0 0.62,-1 1.08,-0.04 2.17,-0.81 -0.31,-3.25 0.5,-1.17 0.47,-0.2 -0.09,-0.22 -0.42,-0.09 0.13,-0.5 0.8,-0.13 -0.02,-0.49 0.48,0.29 0.25,-0.32 0.24,0.32 0.09,-0.59 0.33,0.03 0.06,0.32 0.47,-0.7 0.52,0.29 0.19,-0.56 0.53,0.12 0.26,-0.15 -0.18,-0.32 0.35,-0.62 0.2,0.13 -0.02,-0.54 0.33,-0.2 -0.37,-0.43 0.19,-0.43 -0.11,-0.37 0.72,-0.48 0.36,-1.08 -0.11,-0.83 0.27,-0.94 -0.25,-0.47 -0.42,0.1 -0.31,-0.39 0,0 -0.4,-0.7 0,0 -0.36,-0.91 -1.6,-1.75 -0.24,-1.78 0.18,-0.15 0,0 0,-0.44 0,0 -0.08,-1.82 -0.52,-0.86 -0.33,-0.07 0.31,-0.58 -0.06,-0.43 -0.75,0.35 -1.01,0.07 -0.19,0.31 -0.26,-0.25 -0.35,0.32 -0.53,-0.02 -0.41,-0.29 -0.7,-0.04 0.07,-0.54 -0.62,-0.63 0.54,-0.82 0.04,-0.88 0.7,-0.07 0.45,-1.58 0.24,-0.39 0.35,0.06 0.06,-0.58 1,0.26 0.35,-0.46 0.31,0.07 0.25,-0.47 0.36,-0.03 1.13,0.06 0.67,0.65 0.84,0.05 0.17,-0.41 z"
     title="Phú Yên"
     id="VN-32"
 />
</svg>
