<?xml version="1.0" encoding="UTF-8" standalone="no"?>
<!-- Created for MapSVG plugin: http://mapsvg.com -->
<svg
   xmlns:mapsvg="http://mapsvg.com"
   xmlns:dc="http://purl.org/dc/elements/1.1/"
   xmlns:rdf="http://www.w3.org/1999/02/22-rdf-syntax-ns#"
   xmlns:svg="http://www.w3.org/2000/svg"
   xmlns="http://www.w3.org/2000/svg"
   mapsvg:geoViewBox="102.143498 23.393563 109.460943 8.562136"
   width="381.07504"
   height="800.61719"
>
  <path
     d="m 279.07847,489.31323 1.12,-0.14 0.47,0.2 0.28,-0.16 1.04,0.49 0.41,-0.09 0.7,0.52 0.5,0.1 0.42,-0.24 0.41,0.29 0.64,-0.26 0.38,-0.73 0.88,0.1 0.43,-0.4 0.87,-0.14 0.57,-0.47 0.77,0.54 0.38,0.62 -0.27,0.64 0.45,0.44 -0.53,0.63 1,0.63 0.36,1.68 0.56,0 0.35,0.66 -0.6,1.38 -0.51,0.18 0.05,0.58 -1.04,-0.08 -0.82,0.52 -0.25,1.69 0.56,0.6 -0.04,1.14 0.29,0.44 -0.06,0.96 -0.29,0.3 0.62,0.33 1.36,0.03 1.79,0.68 0.15,-0.56 0.52,-0.33 0.24,0.16 0.3,-0.52 1.21,0.69 0.55,-0.06 0.57,-1.02 0.5,-0.09 -0.05,-1.8 0.68,-0.4 1.18,0.01 0.2,-0.38 1.19,0.31 1.02,0.88 0.69,1.05 0.55,0.06 0.29,-0.25 0.61,0.85 1.14,-0.88 1.01,-0.02 0.3,0.29 0.38,-0.02 0.13,-0.56 0.4,-0.07 -0.04,-0.25 0.82,-1.1 1.06,0.62 0.68,-2.15 0.78,-0.49 -0.01,-0.46 -0.5,-0.29 0.02,-0.19 1.32,-0.26 0.02,-0.3 0.41,-0.13 -0.21,-0.4 0.34,-0.54 1.05,0.43 0.26,-0.25 0.49,-0.01 -0.38,0.36 0.28,0.32 0.36,-0.09 -0.16,-0.18 0.25,-0.05 0.22,-0.49 0.51,-0.29 1.01,-0.03 0.15,-0.28 0.32,0.05 -0.01,-0.21 0.25,0.11 0.31,-0.63 0.6,-0.25 0.61,0.09 0.68,-0.37 0.34,0.3 1.19,0.24 1.11,-0.27 -0.26,-0.81 0.35,-0.68 0.48,-0.19 0.8,-1.04 0.19,-0.85 2.24,-2.39 0,0 0.29,-0.37 0,0 0.34,-0.08 0.1,-0.78 -0.71,-0.3 0.2,-0.91 -0.77,-0.8 -0.11,-0.39 0.03,-0.48 0.51,-0.24 0.42,-0.86 0.9,0.04 0.1,-0.17 0.44,0.27 0.72,1.46 1.25,0.83 2.74,0.61 1.8,-0.64 0.19,-1.22 0.79,-0.58 0,0 0.07,0.21 0.62,-0.03 0.72,0.53 -0.03,0.18 1.2,0.53 -0.03,0.82 0.56,0.7 0.35,0.09 0.24,-0.56 0.52,-0.07 0,0 0.1,0.74 0.28,0.31 -0.3,0.39 0.38,0.61 -0.28,0.48 0.42,0.56 -0.11,0.35 0.32,0.23 -0.17,1.24 -0.45,0.3 -0.57,-0.18 -0.22,-0.35 -0.35,0.12 -0.44,-0.24 0.61,1.06 -0.18,0.23 0.08,0.55 0.35,0.43 -0.16,0.23 1.01,2.14 -0.54,0.88 0.51,0.38 0.36,1.12 0.36,0.34 -0.24,0.49 0.21,0.78 0.71,0.89 -0.25,0.35 -0.01,0.78 0.66,0.81 -0.16,0.58 0.57,0.54 -0.11,0.84 0.32,0.24 0.06,0.51 -0.37,0.46 0.15,0.36 -0.56,0.69 0.64,0.23 -0.09,0.62 0.85,1.51 -0.07,0.28 0.36,0.06 0.09,0.43 0.65,0.56 0.49,1.64 0.63,0.68 1.04,0.38 0.15,0.45 0.01,0.52 -0.28,0.5 0.62,1.29 -0.64,0.67 0.28,0.61 -0.25,0.65 0.17,0.48 -0.31,-0.07 -0.16,0.27 -0.14,1.88 1.06,0.93 0.38,1.34 1.32,1.16 -0.22,0.16 0.21,0.4 -0.14,0 0.03,0.76 0.33,0.7 1.08,0.35 0.32,0.48 -0.18,0.87 0.2,0.76 0.27,0.07 0.1,1.14 -0.46,0.85 0.31,0.82 -0.98,0.6 0.4,1.13 0.03,1.24 1.02,2.17 -0.14,0.46 0.62,0.93 -0.03,0.8 0,0 -0.36,0.25 -0.84,-0.05 -0.67,-0.65 -1.13,-0.06 -0.35,0.03 -0.25,0.47 -0.31,-0.08 -0.36,0.46 -1,-0.26 -0.06,0.59 -0.35,-0.06 -0.24,0.39 -0.45,1.57 -0.7,0.08 -0.04,0.87 -0.54,0.82 0.62,0.64 -0.07,0.53 0.7,0.04 0.41,0.29 0.53,0.02 0.35,-0.32 0.26,0.24 0.2,-0.3 1.01,-0.07 0.75,-0.35 0.05,0.43 -0.31,0.58 0.34,0.07 0.52,0.86 0.08,1.82 0,0 0,0.44 0,0 -0.18,0.15 0.24,1.79 1.6,1.75 0.36,0.91 0,0 0.4,0.7 0,0 0.31,0.39 0.42,-0.09 0.26,0.46 -0.26,0.95 0.11,0.82 -0.36,1.08 -0.72,0.48 0.11,0.37 -0.19,0.43 0.37,0.43 -0.33,0.21 0.03,0.54 -0.2,-0.13 -0.35,0.61 0.18,0.32 -0.26,0.16 -0.53,-0.13 -0.19,0.56 -0.52,-0.28 -0.47,0.7 -0.06,-0.32 -0.32,-0.03 -0.09,0.58 -0.24,-0.32 -0.25,0.32 -0.48,-0.3 0.02,0.5 -0.8,0.13 -0.13,0.51 0.42,0.09 0.09,0.22 -0.47,0.2 -0.51,1.17 0.32,3.25 -2.17,0.81 -1.09,0.04 -0.62,1 0,0 -0.28,0.1 -0.48,-0.45 -0.57,0.27 -0.58,-0.6 -1.62,0.17 -1.16,-1.18 -0.74,0.07 -0.49,0.45 -1.58,-0.66 -1.28,-0.12 -0.1,-0.61 0.53,-0.92 -0.11,-0.43 -1,-0.69 -0.17,-0.52 -0.42,-0.22 0.22,-0.38 -0.29,-0.31 -1.36,-0.46 -0.21,-0.4 0.67,-0.71 -0.28,-0.01 0.07,-0.37 -0.24,-0.2 0.13,-0.54 -1.4,-0.96 -0.7,-0.95 -0.37,-1.25 0.31,-0.28 -0.25,-0.36 0.2,-0.35 -0.55,-0.42 -0.15,-0.53 -1,0.06 0,0 -0.61,-0.53 0,0 -0.24,-0.02 0.05,-1.11 -0.24,-0.37 0.2,-0.39 -0.54,-0.65 -0.33,-0.03 -0.13,-0.74 -0.39,-0.15 0.06,-0.38 -0.51,0.07 -1.12,-0.49 -1.41,-0.17 -0.37,-0.58 -0.91,-0.6 -0.31,0.21 -0.79,0.02 -0.23,-0.24 -0.95,0 -0.36,0.24 -0.21,-0.44 -0.3,0.17 -0.29,-0.28 -1.06,-0.27 -0.18,-0.41 -0.49,-0.16 -0.19,-0.36 -0.52,0.08 -0.31,-0.42 -1.04,-0.11 -0.69,-0.37 -0.27,0.28 -0.87,0.13 -0.48,0.49 -0.08,-0.25 -0.31,0.26 -0.21,-0.53 -0.62,0.11 -0.19,-0.28 -0.42,0.62 -0.5,-0.09 -0.13,0.36 -0.33,0.03 -0.25,0.42 -0.65,0.34 -0.63,-0.52 -0.7,-0.11 -0.19,0.14 0.07,0.33 -0.4,0.14 -0.77,0.05 -0.48,-0.27 -0.37,0.66 -1.14,-0.34 -0.72,-0.5 -1.05,0.23 -0.54,-0.48 -1.29,0.23 -0.65,-0.59 -1.16,0.4 -0.8,-0.04 -0.2,0.29 0.12,0.37 -0.41,-0.02 -1.41,0.9 -0.11,-0.38 -0.56,0.13 -0.17,0.34 -1.02,-0.15 -0.63,-0.43 -0.36,0.23 -0.31,-0.27 -0.57,0.23 -0.19,0.45 -0.22,-0.09 -0.55,0.34 -0.17,0.4 -0.44,-0.02 -0.68,0.41 -0.06,0.81 -0.42,-0.17 -0.09,0.35 -0.44,0.09 -0.05,0.31 -0.67,0.15 -0.47,0.4 0,0 1.18,-2.92 -0.54,-7.44 -0.15,-1.32 -2.34,-5.12 -0.12,-2.2 -0.95,-1.45 -0.94,-2.77 -2.3,-1.64 -1,-0.25 -0.94,-0.8 0.54,-1.15 -0.32,-0.64 0.56,-0.61 0.37,-1.02 -1.01,-0.68 0.85,-1.01 0.14,-1.44 -0.21,-0.26 -0.48,0.01 -0.41,-0.45 0.12,-2.65 -0.51,-0.44 -0.09,-0.46 -2.93,0.43 -1.04,-1.22 -0.43,-0.21 -0.09,-0.65 0.45,-0.36 -0.02,-1.59 0.8,-0.1 0.15,-0.63 -2.19,-0.97 -0.44,-0.49 0.42,-1.47 0.66,-1.23 0.29,-0.78 0.55,-0.56 0.38,0.09 0.62,-1.58 0.44,-0.7 0.59,-0.65 -0.4,-0.73 0.49,-0.82 -0.15,-1.8 -0.83,-1 0,-0.49 0.91,-1.08 0.21,-0.81 1.45,-1.09 0.03,-0.73 0.47,-1.21 0.43,0.3 0.13,0.37 1.43,0 0.08,-1.22 0.43,-0.39 z"
     title="Gia Lai"
     id="VN-30"
 />
</svg>
