<?xml version="1.0" encoding="UTF-8" standalone="no"?>
<!-- Created for MapSVG plugin: http://mapsvg.com -->
<svg
   xmlns:mapsvg="http://mapsvg.com"
   xmlns:dc="http://purl.org/dc/elements/1.1/"
   xmlns:rdf="http://www.w3.org/1999/02/22-rdf-syntax-ns#"
   xmlns:svg="http://www.w3.org/2000/svg"
   xmlns="http://www.w3.org/2000/svg"
   mapsvg:geoViewBox="102.143498 23.393563 109.460943 8.562136"
   width="381.07504"
   height="800.61719"
>
  <path
     d="m 337.46847,484.70323 0.17,-0.36 0.55,0.19 0.1,-0.54 -0.18,-0.41 1.69,-0.79 0.42,-0.9 0.36,0.35 0.5,-0.31 0.27,-0.92 0.25,0 -0.11,0.26 0.22,0.23 1.4,0.84 0.23,-0.35 0.36,0.17 0.53,-0.11 0.28,-0.31 -0.11,-1.02 0.26,-0.51 -0.36,-2.02 0.51,-0.63 0.67,0.41 1.63,-0.01 0.72,-0.35 0.62,-0.93 0.4,0.61 0.27,-0.03 0.08,-0.44 0.3,-0.04 0.49,0.02 1.07,0.52 0.16,-0.21 0.65,-0.06 1.22,-0.85 0.08,0.31 0.52,0.12 0.39,0.38 0.33,-0.19 1.26,1.09 0.85,-0.15 0.34,0.28 0.41,-0.09 0.45,0.26 0.52,1.04 0.39,-0.12 0.56,0.95 -0.15,0.3 0.31,1.13 0.32,0.04 0.29,0.63 1.11,0.73 0,0 -0.52,-0.01 -0.22,0.51 1.36,4.24 -0.13,0.52 0.49,0.06 0.09,-0.23 1.2,2.02 -0.47,1.16 0.68,1.51 -0.27,0.39 -0.06,0.73 1.81,3.18 1.12,1.51 0.42,0.26 -0.4,0.25 0.03,0.46 0.75,1 0.23,0.78 -0.21,0.43 -0.38,-0.15 -0.3,0.36 0.24,1.22 -0.17,0.19 0.39,0.93 0.46,0.46 0.38,1.01 -0.07,0.44 0.16,0.19 0.49,-0.18 0.56,0.27 -0.38,0.6 -0.88,-0.12 -1.58,-2.53 -0.82,0.3 0.23,0.27 0.03,0.55 0.33,0.42 0.06,0.92 0.23,0.3 1.34,0.2 0.26,0.62 0.39,1.13 1.12,2.36 1,1.35 -0.37,0.69 0.57,0.87 -0.16,0.25 -0.26,-0.03 -0.04,0.35 0.28,0.66 0.29,0.15 -0.85,0.43 0.02,0.76 1.35,2.3 0.83,0.61 0.24,-0.07 0.42,0.43 -0.28,0.22 -0.03,1.27 0.35,0.44 -0.15,0.44 0.18,0.33 -0.72,1.3 0.44,1.31 -0.24,1.29 -0.14,0.09 -0.33,-0.46 -1.11,0.31 -0.48,-0.24 0.55,-0.55 -0.36,-0.22 0.01,-0.39 0.23,-0.3 0.34,-0.19 0.77,-0.05 0.06,-1.05 -0.19,-0.13 -0.41,0.87 -0.51,-0.61 -0.36,-0.03 -0.04,-0.22 0.34,-0.32 -0.19,-1.59 -0.3,-0.86 -0.61,-0.86 -0.26,-0.07 -0.23,1.26 0.03,0.3 -0.01,0.3 -0.36,0.15 0.23,0.49 -0.1,0.59 0.1,0.53 0.22,0.87 -0.3,0.74 0.52,0.48 0.3,0.08 0.64,0.3 -1.07,0.15 -0.86,1.08 0.24,0.7 -0.1,0.97 0.26,0.18 0.3,1.26 0.24,0.08 -0.03,0.93 0,0 -0.35,-0.47 -0.96,-0.12 -0.44,-0.77 -0.5,0.12 -0.41,0.53 -1.33,0.27 -0.28,1.21 0.08,1.12 -0.41,0.24 -0.64,-0.61 -0.48,-0.18 -0.16,0.17 -0.07,0.33 0.43,0.6 -0.6,0.55 0.12,0.54 -0.23,0.57 0.25,0.35 -0.54,-0.11 -0.7,0.82 -0.56,0.26 -1.57,-0.06 -1.26,2.01 -1.57,0.46 -0.26,0.34 -1.8,0.07 -0.52,-0.59 -0.84,-0.27 -0.61,-0.51 -0.74,-0.06 -0.18,0.2 -0.44,-0.16 -1.4,0.32 0.1,-0.6 -0.69,-0.38 -0.32,-0.79 0,0 0.03,-0.8 -0.62,-0.93 0.14,-0.46 -1.03,-2.17 -0.02,-1.24 -0.4,-1.13 0.98,-0.6 -0.31,-0.81 0.46,-0.85 -0.09,-1.13 -0.28,-0.07 -0.2,-0.76 0.18,-0.87 -0.32,-0.48 -1.07,-0.35 -0.34,-0.7 -0.03,-0.76 0.15,0 -0.21,-0.4 0.22,-0.16 -1.31,-1.16 -0.39,-1.34 -1.06,-0.94 0.14,-1.87 0.16,-0.27 0.31,0.07 -0.17,-0.48 0.25,-0.65 -0.28,-0.61 0.64,-0.67 -0.61,-1.29 0.28,-0.5 -0.01,-0.52 -0.15,-0.45 -1.04,-0.38 -0.62,-0.68 -0.49,-1.63 -0.65,-0.57 -0.1,-0.42 -0.36,-0.06 0.07,-0.29 -0.84,-1.51 0.09,-0.61 -0.65,-0.23 0.57,-0.69 -0.15,-0.36 0.37,-0.46 -0.06,-0.51 -0.32,-0.23 0.12,-0.84 -0.57,-0.54 0.16,-0.58 -0.65,-0.81 0,-0.77 0.25,-0.35 -0.7,-0.89 -0.22,-0.78 0.24,-0.48 -0.36,-0.34 -0.36,-1.12 -0.51,-0.38 0.55,-0.88 -1.02,-2.14 0.16,-0.24 -0.35,-0.43 -0.08,-0.54 0.19,-0.24 -0.62,-1.06 0.45,0.25 0.34,-0.13 0.22,0.36 0.57,0.18 0.45,-0.3 0.18,-1.23 -0.32,-0.23 0.11,-0.34 -0.42,-0.56 0.28,-0.49 -0.38,-0.61 0.3,-0.39 -0.28,-0.31 -0.2,-0.87 z"
     title="Bình Định"
     id="VN-31"
 />
</svg>
