<?xml version="1.0" encoding="UTF-8" standalone="no"?>
<!-- Created for MapSVG plugin: http://mapsvg.com -->
<svg
   xmlns:mapsvg="http://mapsvg.com"
   xmlns:dc="http://purl.org/dc/elements/1.1/"
   xmlns:rdf="http://www.w3.org/1999/02/22-rdf-syntax-ns#"
   xmlns:svg="http://www.w3.org/2000/svg"
   xmlns="http://www.w3.org/2000/svg"
   mapsvg:geoViewBox="102.143498 23.393563 109.460943 8.562136"
   width="381.07504"
   height="800.61719"
>
  <path
     d="m 370.91847,607.58323 0.26,0.22 1.04,-0.13 0.54,0.89 0.28,-0.05 0.34,-0.71 0.24,0.37 0.39,-0.01 -0.08,1.04 0.39,0.44 -0.48,0.13 -0.02,0.23 -0.5,0.03 -0.3,-0.2 -0.64,-0.13 -0.48,-0.12 0.33,0.67 -0.59,0.07 -0.56,-0.34 -0.17,-0.46 -1.4,-0.74 -0.19,-0.74 -0.49,-0.15 0.19,-0.34 0.3,0.01 0.66,0.44 0.37,0.59 0.24,-1.18 0.33,0.17 z m 2.8,-21.43 0.45,0.01 0.76,0.54 0.37,0.03 0.47,-0.35 1.08,0.43 0.05,1.03 0.61,0.66 0.03,1.11 0.8,0.76 -0.23,0.37 -0.49,0.08 -0.81,-0.68 0.01,-0.24 -0.56,0 -0.49,-0.63 -1.28,-0.63 -0.01,-0.65 -0.39,-0.34 -0.46,0.05 -0.24,0.28 -0.51,-0.44 -0.31,-0.47 0.05,-0.48 0.77,-0.55 0.33,0.11 z m -17.17,-3.69 1.38,-0.82 -0.35,-0.34 0.64,-0.37 0.68,-0.04 0.08,-0.47 1.06,0.05 0.39,-0.45 0.64,0.52 0.34,-0.02 0.3,-0.39 -0.09,-0.48 0.9,-0.71 0.46,-1.32 0.42,0.12 0.82,0.75 1.38,-2.38 2.15,-0.17 1.03,0.92 1.42,-1.35 0.73,0.3 0.84,0.01 0.76,-0.48 0.4,0.11 0.38,-0.23 0.24,0.4 0.54,-0.66 0.58,0.06 0.41,-0.5 0.67,-0.16 0.22,-0.46 1.19,1.33 0,0 -1.53,0.58 -0.18,0.7 0.13,0.43 0.02,0.89 1.06,2.91 0.84,1.48 0.51,0.63 0.19,0.31 0.49,0.91 0.34,0.43 0.74,-0.18 0.12,0.41 0.53,-0.22 0.37,0.49 -0.14,0.33 -0.12,0.11 -0.9,0.18 -0.15,0.31 0.11,0.55 -0.18,0.33 0.23,0.67 -0.11,0.33 -0.32,0.38 0.15,0.19 0.16,0.51 0.25,0.35 -0.02,0.63 -0.4,0.26 -0.25,-0.7 -0.63,-0.07 -0.19,-0.48 0.14,-0.91 -0.44,0.06 -0.14,-0.29 -0.25,0.08 -0.48,-1.19 0.19,-0.21 0.83,-0.06 0.02,-0.25 0.19,-0.63 -0.34,-1.09 -0.5,-0.7 -0.3,0.26 0.1,0.55 -1.27,-0.2 -0.12,0.33 0.23,0.48 -0.13,0.56 -0.38,0.08 -0.35,-0.4 -0.17,-0.51 -0.71,0.57 -0.47,-0.6 0.79,-0.24 0.57,-1.43 0.25,0.36 0.46,-0.11 0.59,-1.18 -1.23,-2.49 -0.03,-2.04 -0.33,-0.18 -1.05,0.38 -0.11,0.53 0.2,0.3 -0.52,0.65 -0.7,0.28 -0.25,-0.1 -0.49,0.46 -0.25,0.63 -0.98,0.77 -0.23,0.58 -0.26,0.27 -0.19,0.44 -0.64,0.01 -0.75,0.44 -0.93,1.39 -0.06,1.03 -0.29,-0.03 -0.46,0.38 -0.24,0.64 0.37,1.15 -0.09,1.28 -0.23,0.44 0.52,0.72 -0.18,0.35 -0.16,0.34 -0.08,0.35 0.5,0.4 0.55,-0.19 -0.09,-1.64 0.31,-0.36 0.14,-0.15 0.55,-0.71 0.19,0.36 0.41,-0.01 0.07,0.62 -0.42,0.1 -0.33,1.7 0.47,1.6 0.8,0.27 1.06,0.94 0.71,0.15 0.4,0.37 -0.15,0.87 -0.31,0.23 0.03,1.27 0.34,0.53 0.72,0.33 0.7,-0.04 0.42,0.55 0.39,-0.07 0.24,0.65 -0.8,0.56 0.23,0.4 -0.09,0.27 -0.99,-0.82 -0.39,0.43 -0.11,1.48 -0.31,0.35 -0.5,-0.09 -0.36,-0.59 -0.48,0.08 -0.37,-0.26 -0.02,-0.49 0.22,-0.16 -0.95,-1.06 -0.15,-0.55 -0.9,-0.61 -0.94,-1.13 -1.64,-1.09 -0.19,0.6 -0.3,0.49 -0.66,0.35 -0.28,0.3 0.43,0.12 0.06,0.59 0.32,0.39 0.32,0.09 0.11,-0.24 0.99,0.5 0.34,-0.05 0.16,0.54 -0.29,1.5 0.1,0.62 0.19,0.66 0.5,0.6 1.64,1.03 -0.42,0.55 -1.03,-0.05 -0.6,0.66 -0.06,0.45 0.24,0.23 -0.43,0.66 -0.04,1.08 0.3,0.84 0.71,0.57 -0.12,0.45 -0.56,0.18 -0.36,-0.38 -0.78,-0.17 -0.09,0.22 -0.01,0.1 1.44,0.86 -0.02,0.65 -0.36,0.14 -0.11,0.33 1.1,0.57 0.19,0.32 0.02,0.45 -0.48,0.22 -0.14,0.75 -0.85,0.44 -0.01,1.15 0.4,1.6 1.99,3.86 0.62,0.7 0.32,-0.18 0.56,0.2 0.04,1.04 0.35,0.26 -0.04,0.33 -0.11,0.49 -0.52,0.03 -0.34,0.55 0.18,1.1 0.23,0.25 0.1,0.32 0.4,0.25 0.3,0.42 -0.51,1.09 -0.73,-0.35 -0.44,0.72 -0.12,-0.68 -0.76,-0.82 -1.49,0.06 0.12,-1.47 0.4,-1.08 0.12,-0.62 -0.57,-0.6 0.45,-0.27 0.05,-1.11 -0.37,-0.91 -0.28,-2.41 -0.88,-0.89 -0.62,-2.32 0.47,-0.48 -0.5,-0.44 -0.45,-0.04 -0.49,0.73 0.89,1.37 -0.04,0.74 -0.12,0.51 0.1,0.46 0.35,0.4 0.7,0.27 0.49,0.56 0.17,0.53 -0.39,0.96 0.33,0.66 -0.34,0.48 0.13,0.44 -0.74,0.98 -0.09,0.48 -1.66,1.9 -0.24,0 -0.3,-0.46 -0.52,0.12 -0.34,1.09 -0.43,-0.14 -0.44,1.46 0.47,1.49 0.74,0.75 0.75,0.14 0.84,-1.19 0.1,-0.77 0.46,-0.44 0.32,-0.03 0.64,-0.68 0.18,0.26 -0.59,0.74 0.18,0.35 -0.34,0.44 0.39,0.66 -0.23,0.34 0.06,0.34 0.72,0.31 0,0 -3.17,0.37 -1.33,-0.13 -0.77,-0.48 -0.2,-0.52 -0.71,-0.48 -0.87,-1.35 -0.58,-1.98 -0.58,-0.56 -0.87,-0.08 -0.78,-0.69 -0.8,0.46 -0.43,0 -1.28,-0.53 -0.5,-0.67 -0.62,0.06 -0.42,-0.22 -0.58,-0.62 -1.23,0.28 -0.57,-0.67 -0.39,0.07 -0.38,-0.48 -0.74,0.17 -0.28,-0.82 0.65,-0.82 -0.15,-1.16 -1.02,-0.24 -0.65,-0.47 -0.19,-0.44 -1,-0.26 0.43,-0.75 -0.37,-0.63 -0.08,-0.77 -0.27,-0.17 0.17,-0.43 -0.24,-0.77 -0.45,-0.69 0.37,-1.87 -0.82,-0.28 -0.39,0.62 -0.29,-0.26 -0.88,0.11 -0.81,-0.32 0,0 -1.03,-1.54 0.61,-1.42 -0.19,-0.39 -0.7,-0.47 -0.27,-0.56 0.33,-0.55 -0.28,-1.68 0.31,-0.64 -0.33,-0.49 -0.61,-0.12 -0.18,-0.33 -0.27,0.06 0,0 0.23,-0.38 -0.34,-1.35 0.63,-1.29 -0.29,-0.36 0.1,-0.49 -0.43,-0.19 -0.21,-0.46 0.32,-0.74 -0.57,-0.51 1.51,-1.88 0.13,-0.71 0.78,-0.51 0.98,0.34 0.63,-0.13 0.24,-0.92 0.6,-0.03 0.82,-0.39 0.82,0.43 0.28,0.88 0.72,-0.16 1.33,1.1 1.62,0.54 0,-0.71 0.32,-0.22 0.1,-0.48 -0.98,-0.8 0.72,-0.64 0.21,-0.47 -0.21,-0.56 0.4,-0.82 0.61,-0.47 0.14,-0.78 -0.19,-0.8 2.28,-1.51 0.74,0.44 0.81,0 0.85,-1.34 -0.43,-0.59 0.38,-0.62 0.08,-1.32 -0.19,-0.44 0.55,-0.46 -0.18,-0.63 0.17,-0.39 z"
     title="Khánh Hòa"
     id="VN-34"
 />
</svg>
