<?xml version="1.0" encoding="UTF-8" standalone="no"?>
<!-- Created for MapSVG plugin: http://mapsvg.com -->
<svg
   xmlns:mapsvg="http://mapsvg.com"
   xmlns:dc="http://purl.org/dc/elements/1.1/"
   xmlns:rdf="http://www.w3.org/1999/02/22-rdf-syntax-ns#"
   xmlns:svg="http://www.w3.org/2000/svg"
   xmlns="http://www.w3.org/2000/svg"
   mapsvg:geoViewBox="102.143498 23.393563 109.460943 8.562136"
   width="381.07504"
   height="800.61719"
>
  <path
     d="m 189.27847,670.95323 1.45,3.03 2.97,3.9 -0.85,1.74 0.08,0.17 2.54,0.98 1.96,0.27 -0.31,-1.26 1.36,-1.08 -0.27,-0.28 -0.31,-1.49 3.44,3.24 3.18,2.3 1.29,0.23 3.5,-0.22 1.37,1.21 -0.18,-2.7 -1.25,-2.03 -0.04,-0.44 -1.3,-1.5 0.69,-1.35 -0.3,-0.44 -0.08,-1.44 0.54,-0.31 0.56,0.24 0,0 -0.01,0.56 0.21,0.24 0.5,0.03 3.22,-1.3 1.73,0.32 0.53,-0.26 0.2,-0.39 -0.27,-0.62 -0.6,-0.4 0.06,-0.3 0.15,-0.13 0.22,0.26 0.68,-0.53 0.46,-0.01 1.3,0.56 0.95,0.67 0.12,0.43 0.27,-0.2 0.29,0.36 0,0 0.85,1.16 2.03,-0.21 2.16,1.68 4.14,2.13 -1.52,5.91 -2.1,1.71 1.23,1.4 0.74,0.17 0.4,0.5 0.57,-0.34 0.49,0.32 -0.13,0.47 0.35,1.08 0.88,0.14 0.15,0.93 -0.23,0.53 0.36,0.03 0.07,0.4 0.62,-0.36 0.4,0.39 0.15,-0.35 1.06,0.27 0.29,-0.45 0.97,0.61 -0.17,0.34 0.42,-0.05 0.03,0.81 0.21,0.1 0.41,-0.1 0.23,-0.44 0.37,0.1 0.16,-0.56 0.48,0.18 0,0 0.09,0.03 0,0 0.66,-0.34 0.28,-0.55 0.28,0.41 0.51,-0.28 1.11,0.42 0.46,0.56 0.13,0.34 -0.22,0.03 0.14,0.28 -0.22,0.36 0.27,0.33 -0.47,-0.1 -0.25,0.31 0.07,0.5 0.44,0.86 0.42,-0.33 0.14,0.2 -0.2,0.27 0.53,0.06 -0.2,0.76 0.34,1.9 -0.7,1.49 0,0 -1.84,1.75 0,0 -0.9,1.25 0,0 -0.27,0.08 0,0 -0.66,-0.13 -0.24,-0.45 0,0 0.02,-0.82 0,0 -0.14,-0.66 -0.31,-0.3 -0.6,0.16 -0.22,0.41 0,0 -0.16,0.75 0,0 -0.94,0.59 0,0 -0.87,0.54 0,0 -0.59,-0.02 0.02,0.59 0,0 0.03,0.2 0,0 0.04,0.22 -0.5,0.18 0,0 -1.04,0.09 -0.06,-0.62 0,0 -0.48,0 0,0 -0.14,-0.25 -0.44,0.46 -0.43,-0.67 -0.54,0.47 -0.44,-0.2 -0.57,0.68 -0.58,0.26 -0.09,0.35 -0.25,-0.04 -0.08,0.39 -0.78,-0.12 -0.46,0.21 -0.11,-0.25 -0.31,0.05 0.05,-0.25 0.29,0.15 0.3,-0.21 -0.42,-0.43 -1.1,-0.07 -0.13,0.23 -0.17,-0.06 -0.22,-0.84 -0.32,-0.29 0.63,-0.06 1.33,-1.02 -0.57,-0.27 -0.02,-0.43 -1.27,-0.81 0.03,-0.32 -0.75,-0.19 -0.57,0.76 -0.66,-0.14 -0.46,-0.42 0.17,-0.33 -0.27,-0.19 0.16,-0.43 -0.28,-0.26 0.15,-0.33 -1.11,-0.6 0.01,-0.84 -0.41,-0.07 -1.06,-1.27 -0.49,0.24 -1.25,-1.12 -4.24,0.42 -5.48,0.18 0.16,2.77 -8.36,-0.71 0,0 -1.63,-0.11 -3.98,-5.27 -1.52,-0.82 -1.26,-0.24 -9.59,-9.02 0.79,-0.06 -0.03,-0.16 -1.46,-3.01 -3.56,-1.64 -0.83,-1.62 0,0 0.51,0.25 1.47,-0.14 0.81,-0.37 5.51,-1.35 1.95,-0.93 1.34,-1.06 z"
     title="Long An"
     id="VN-41"
 />
</svg>
