<?xml version="1.0" encoding="UTF-8" standalone="no"?>
<!-- Created for MapSVG plugin: http://mapsvg.com -->
<svg
   xmlns:mapsvg="http://mapsvg.com"
   xmlns:dc="http://purl.org/dc/elements/1.1/"
   xmlns:rdf="http://www.w3.org/1999/02/22-rdf-syntax-ns#"
   xmlns:svg="http://www.w3.org/2000/svg"
   xmlns="http://www.w3.org/2000/svg"
   mapsvg:geoViewBox="102.143498 23.393563 109.460943 8.562136"
   width="381.07504"
   height="800.61719"
>
  <path
     d="m 202.57847,709.46323 -0.33,1.29 0.35,0.14 0.11,0.65 -0.2,0.08 0.19,0.36 0.97,0.33 2.45,0.22 1.18,0.6 0.83,0.72 0.12,0.56 0.41,0.38 0.85,0.49 0.46,0.61 0.62,-0.06 1.9,1.81 3.35,4.88 0,0 -1.49,-1.22 -1.03,-0.46 -0.7,0.63 0.07,0.58 -0.22,0.1 0.1,0.45 -0.22,0.25 0.46,0.07 0.05,0.99 -1.12,0.79 -0.37,-0.08 -0.45,-0.77 -0.25,-0.08 -2.07,0.45 -0.8,-0.34 -0.16,3.25 -1,1.24 -1.35,-1.11 -0.52,0.77 -1.12,-0.1 0.02,0.28 -0.5,0.26 -0.34,0.5 -0.53,-0.01 -0.4,-0.27 -0.37,0.45 0.09,0.41 -0.93,0.6 -0.6,0.11 -1.1,-0.93 -0.47,-0.06 1.34,2.01 0,0 -3.12,-2.47 -0.79,-0.09 -0.54,-0.34 0,0 -2.72,-2.4 0,0 -3.09,-4.39 -5.32,-3.5 0,0 0.18,-0.55 2.15,-3.16 -0.12,-0.11 1.17,0.51 0.89,1.01 0.53,-0.59 1.37,1.78 1.41,0.35 1.06,-0.07 0.13,-0.53 0.99,0.3 0.2,-0.63 -0.22,-0.12 0.32,-1.08 0.99,0.19 0.21,-0.32 0.72,-0.05 0.34,-0.97 -0.34,-0.76 -0.61,-0.46 0.03,-0.53 -0.59,0.03 -0.3,-0.72 -0.37,-0.29 0.85,-0.66 0,0 0.36,0.09 1.3,-0.48 2.6,-2.31 0.55,-0.17 0.42,0.08 z"
     title="Vĩnh Long"
     id="VN-49"
 />
</svg>
