<?xml version="1.0" encoding="UTF-8" standalone="no"?>
<!-- Created for MapSVG plugin: http://mapsvg.com -->
<svg
   xmlns:mapsvg="http://mapsvg.com"
   xmlns:dc="http://purl.org/dc/elements/1.1/"
   xmlns:rdf="http://www.w3.org/1999/02/22-rdf-syntax-ns#"
   xmlns:svg="http://www.w3.org/2000/svg"
   xmlns="http://www.w3.org/2000/svg"
   mapsvg:geoViewBox="102.143498 23.393563 109.460943 8.562136"
   width="381.07504"
   height="800.61719"
>
  <path
     d="m 171.28847,673.97323 0.98,0.95 0.67,-0.47 0.72,0.13 0.54,0.62 0.48,-0.18 0,0 0.83,1.62 3.56,1.64 1.47,3.01 0.03,0.15 -0.79,0.06 9.6,9.02 1.26,0.24 1.51,0.82 3.98,5.27 1.64,0.12 0,0 0,2.2 -4.28,4.56 -0.79,2.21 -1.48,-0.23 0.18,1.47 -0.13,1.05 0.67,0.23 -0.42,0.46 0.75,0.22 0.12,0.37 1.86,0.33 1.04,0.84 0,0 -0.85,0.66 0.37,0.3 0.3,0.71 0.6,-0.03 -0.04,0.53 0.61,0.46 0.34,0.76 -0.34,0.97 -0.71,0.05 -0.21,0.31 -0.99,-0.18 -0.32,1.07 0.22,0.13 -0.2,0.63 -0.98,-0.3 -0.13,0.53 -1.06,0.07 -1.41,-0.35 -1.36,-1.78 -0.54,0.58 -0.89,-1.01 -1.17,-0.51 0.12,0.11 -2.15,3.16 -0.18,0.55 0,0 -1.15,-0.75 -0.65,-0.91 -1.07,-0.94 0,0 -0.18,-0.21 0,0 -0.26,-0.98 -1.03,-1.73 -2.52,-2.45 -1.94,-1.13 -0.95,-0.94 0,0 -0.4,-0.49 0.2,-0.6 0.46,-0.45 1.05,-0.44 0,-0.35 0.43,-0.33 -0.26,-1.27 0.29,-0.02 0.12,-0.39 0.39,-0.28 0.69,-0.19 -0.31,-0.23 0.11,-0.43 0.33,-0.25 1,0.26 -0.16,-2.52 -0.74,-1.73 -0.93,-1.16 -1.33,-0.76 -1.4,0.28 -0.34,0.33 -1.83,-0.91 -1.51,0.13 -1.25,-0.98 -1.21,-0.38 -1.33,-3.22 -0.04,-1.91 0.34,-2.27 -0.67,-0.31 -2.01,0.34 -0.96,-0.34 -0.08,-0.48 1.27,-0.86 0.12,-0.47 -0.27,-0.27 -1.31,-0.09 -0.62,-0.35 -0.18,-0.6 0.08,-1.05 -1.58,-0.18 -1.1,-2.44 -1.06,-1.12 -0.02,-2.02 0,0 0.65,0.06 2.03,0.95 1.36,-0.21 0.51,0.44 0.58,0.08 2.76,1.44 0.36,-0.4 0.38,-0.6 0.33,-0.43 1.06,-0.86 0.4,-0.87 1.06,-0.6 0.97,-2.21 0.29,-0.08 z"
     title="Đồng Tháp"
     id="VN-45"
 />
</svg>
