<?xml version="1.0" encoding="UTF-8" standalone="no"?>
<!-- Created for MapSVG plugin: http://mapsvg.com -->
<svg
   xmlns:mapsvg="http://mapsvg.com"
   xmlns:dc="http://purl.org/dc/elements/1.1/"
   xmlns:rdf="http://www.w3.org/1999/02/22-rdf-syntax-ns#"
   xmlns:svg="http://www.w3.org/2000/svg"
   xmlns="http://www.w3.org/2000/svg"
   mapsvg:geoViewBox="102.143498 23.393563 109.460943 8.562136"
   width="381.07504"
   height="800.61719"
>
  <path
     d="m 235.33847,790.06323 0.28,0.53 -0.38,0.2 0.12,0.32 -0.08,0.37 -0.11,0.16 -0.89,-0.1 -0.33,0.77 1.15,1.28 -0.41,0.11 -0.4,-0.4 -0.56,-0.07 -0.33,0.65 -0.31,-0.16 -1.2,0.97 0.82,1.65 -1.92,-0.26 -0.65,0.36 -0.39,0.57 -0.4,-0.83 -0.35,-0.16 -0.08,-0.75 0.41,0.11 0.19,-0.31 0.39,0.68 0.85,-0.1 -0.81,-1.14 0.05,-0.36 0.4,-0.53 0.28,0.06 0.32,-0.78 0.51,0.02 -0.06,-0.58 0.25,-0.4 0.68,-0.2 0.28,-0.31 0.37,0.2 0.29,-0.35 -0.09,-0.32 1.49,-0.6 0.22,-0.28 0.4,-0.02 z m 26.21,-88.45 -0.12,-0.79 0.51,0.25 0.2,0.29 0.64,0.29 0.33,0.34 0.35,0.53 -0.55,0.19 -0.36,-0.13 -0.58,0.92 -0.39,0.06 -0.49,1.18 -1.53,0.69 -1.18,0.95 -1.24,1.96 -0.58,-0.67 0.07,-0.67 -0.69,-0.55 0.12,-0.52 -0.36,-0.42 0.1,-0.58 0.35,-0.04 0.46,0.41 0.53,-0.69 0.97,-0.09 0.39,-0.8 0.44,-0.16 0.23,0.23 0.29,-0.38 0.79,-0.07 0.13,-0.29 -1.27,0.09 -0.13,0.18 -0.26,-1.04 0.54,-0.32 -0.22,-0.61 0.79,-0.1 0.27,0.25 0.3,-0.74 0.3,0.04 0.13,0.45 -0.25,0.18 0.97,0.18 z m -4.81,-1.46 0.58,-0.12 0.39,0.13 -0.09,0.37 0.32,0.42 0.67,-0.79 0.29,0.69 -0.13,0.72 -0.46,0.23 -0.2,0.5 -0.74,-0.03 -0.29,0.26 -1.39,-0.82 -0.71,-1.02 1.76,-0.54 z m -1.78,0.11 -0.78,-0.09 -0.04,0.53 -0.36,-0.44 0.13,-0.42 -0.22,-0.66 -0.46,0.07 -0.35,-0.47 0.52,-0.36 0.26,-0.56 0.67,-0.9 -0.13,-0.6 -0.69,-0.26 0.77,-1.45 0.02,-0.54 -0.52,-1.12 -0.52,-0.19 -0.21,-0.42 -0.24,-0.2 0.33,-0.45 0.64,0.28 -0.14,-0.67 1.68,-0.71 2.57,0.29 0.25,-0.58 1.06,-0.55 0.21,-0.48 0.45,-0.16 0.37,-1.74 -0.09,-0.49 0.23,0.21 0.12,-0.31 -0.35,-0.12 -0.12,-0.64 0.92,0.01 0.77,-0.49 0.59,-0.72 1.19,-0.38 0.16,-0.01 -0.01,0.85 0.77,0.09 0.52,-0.36 0.7,0.21 -0.01,0.16 2.92,0.09 0.22,1.36 -0.17,-0.06 -0.04,0.6 0.26,0.22 -0.24,0.67 0.34,0.41 -0.41,0.51 0.93,0.82 0.73,-0.47 0.65,0.14 0,0 0.24,-0.13 0,0 0.27,-0.45 -0.25,-0.13 0.22,-0.44 -0.29,-0.48 0.52,-0.46 0.15,-0.69 0.56,-0.19 0.62,-1.04 0.45,-0.23 0.47,-0.7 0.67,-0.21 0,0 0.21,0.04 0,0 0.07,-0.09 0,0 0.07,-0.11 0,0 0.32,-0.56 0,0 0.21,-0.08 0,0 0.39,-0.63 0.55,-0.22 0.26,0.1 0.22,0.6 0.71,-0.13 0.67,1.29 0.61,0.09 0.47,-0.3 0,0 -0.24,1.39 0.44,0.1 1.22,1.13 0.52,0.86 0.12,0.63 -0.34,0.7 1.67,4.08 0.55,0.56 -0.19,0.4 0.09,0.46 0,0 -1.9,1.64 -1.55,2.29 -2.39,0.24 -1.29,1.51 -4.66,0.09 -2.51,1.69 -2.34,2.44 -0.16,0.42 -0.82,0.13 -1.25,-1.44 -2.1,0.22 0.64,-0.48 0.2,-0.51 0.58,0.22 0.35,-0.15 0.13,-0.29 -0.14,-1.01 -0.19,-0.28 -0.26,0.32 -1.2,-1.05 -0.53,-0.12 -0.51,-0.5 -1.03,0.18 -0.29,0.1 -0.5,0.03 -0.46,-0.44 -0.81,-0.54 -0.38,0.32 -0.3,-0.01 -0.56,0.1 -0.42,-0.34 -0.36,0.38 -0.68,0.01 -0.39,0.22 z"
     title="Bà Rịa–Vũng Tàu"
     id="VN-43"
 />
</svg>
