<?xml version="1.0" encoding="UTF-8" standalone="no"?>
<!-- Created for MapSVG plugin: http://mapsvg.com -->
<svg
   xmlns:mapsvg="http://mapsvg.com"
   xmlns:dc="http://purl.org/dc/elements/1.1/"
   xmlns:rdf="http://www.w3.org/1999/02/22-rdf-syntax-ns#"
   xmlns:svg="http://www.w3.org/2000/svg"
   xmlns="http://www.w3.org/2000/svg"
   mapsvg:geoViewBox="102.143498 23.393563 109.460943 8.562136"
   width="381.07504"
   height="800.61719"
>
  <path
     d="m 197.74847,696.96323 8.36,0.71 -0.16,-2.77 5.48,-0.18 4.24,-0.42 1.25,1.12 0.49,-0.24 1.06,1.27 0.41,0.07 -0.01,0.84 1.11,0.6 -0.15,0.33 0.28,0.26 -0.16,0.43 0.27,0.19 -0.17,0.33 0.46,0.42 0.66,0.14 0.57,-0.76 0.75,0.19 -0.03,0.32 1.27,0.81 0.02,0.43 0.57,0.27 -1.33,1.02 -0.63,0.06 0.32,0.29 0.22,0.84 0.17,0.06 0.13,-0.23 1.1,0.07 0.42,0.43 -0.3,0.21 -0.29,-0.15 -0.05,0.25 0.31,-0.05 0.11,0.25 0.46,-0.21 0.78,0.12 0.08,-0.39 0.25,0.04 0.09,-0.35 0.58,-0.26 0.57,-0.68 0.44,0.2 0.54,-0.47 0.43,0.67 0.44,-0.46 0.14,0.25 0,0 0.48,0 0,0 0.06,0.62 1.04,-0.09 0,0 0.53,-0.19 -0.07,-0.21 0,0 -0.03,-0.2 0,0 -0.1,-0.51 0.67,-0.06 0,0 0.87,-0.54 0,0 0.94,-0.59 0,0 0.16,-0.75 0,0 0.31,-0.48 0.41,-0.1 0.32,0.16 0.23,0.81 0,0 -0.02,0.82 0,0 0.18,0.4 0.72,0.18 0,0 0.27,-0.08 0,0 0.9,-1.25 0,0 1.84,-1.75 0,0 1.36,2.29 1.37,1.61 0,0 -0.46,0.44 0.32,0.38 -0.05,5.85 -0.31,0.61 -0.77,0.69 -0.55,0.17 -0.24,0.52 1.34,0.94 0.46,0.88 -1.16,0.92 -0.75,0.21 -0.29,-0.19 -0.25,0.36 0,0 -4.55,-2.05 -5.82,-1.58 -0.79,-0.7 -2.44,-1.33 -1.34,0 -2.26,-1.39 -1.36,-0.35 -0.69,0.04 -3.14,1.05 -0.98,-0.5 -3.33,0.54 -1.05,0.27 -3.37,1.59 -1.67,-0.08 -1.29,0.35 -2.37,-1.1 0,0 0,0 0,0 -2.08,-1.59 -0.42,-0.08 -0.55,0.17 -2.6,2.31 -1.3,0.48 -0.36,-0.09 0,0 -1.04,-0.84 -1.86,-0.33 -0.12,-0.37 -0.76,-0.21 0.43,-0.47 -0.67,-0.23 0.13,-1.05 -0.19,-1.46 1.49,0.23 0.79,-2.2 4.28,-4.56 z"
     title="Tiền Giang"
     id="VN-46"
 />
</svg>
