<?xml version="1.0" encoding="UTF-8" standalone="no"?>
<!-- Created for MapSVG plugin: http://mapsvg.com -->
<svg
   xmlns:mapsvg="http://mapsvg.com"
   xmlns:dc="http://purl.org/dc/elements/1.1/"
   xmlns:rdf="http://www.w3.org/1999/02/22-rdf-syntax-ns#"
   xmlns:svg="http://www.w3.org/2000/svg"
   xmlns="http://www.w3.org/2000/svg"
   mapsvg:geoViewBox="102.143498 23.393563 109.460943 8.562136"
   width="381.07504"
   height="800.61719"
>
  <path
     d="m 154.85847,674.85323 -0.02,0.69 -0.75,1.08 0.18,0.22 2.56,-0.2 1.67,0.6 0,0 0.02,2.02 1.06,1.12 1.1,2.44 1.58,0.18 -0.08,1.05 0.18,0.6 0.62,0.35 1.31,0.09 0.27,0.27 -0.12,0.47 -1.27,0.86 0.08,0.48 0.96,0.35 2.01,-0.34 0.67,0.31 -0.34,2.27 0.05,1.91 1.33,3.22 1.21,0.39 1.25,0.98 1.51,-0.13 1.83,0.91 0.35,-0.33 1.4,-0.28 1.33,0.76 0.93,1.16 0.74,1.73 0.17,2.53 -1,-0.25 -0.33,0.25 -0.1,0.44 0.31,0.23 -0.68,0.19 -0.39,0.28 -0.11,0.39 -0.29,0.02 0.26,1.27 -0.43,0.33 0,0.35 -1.05,0.44 -0.46,0.45 -0.2,0.6 0.4,0.49 0,0 -0.43,0.08 -0.51,0.68 -2.64,0.41 0.77,1.75 -5.47,1.86 -1.21,-2.01 -0.33,0.19 -0.27,-0.43 -1.78,2.02 -0.32,-0.38 -0.34,0.33 -1.22,1.61 0,0 -0.18,-0.22 -1.13,1.56 -4.19,-3.67 -5.53,-3.38 -8.03,-1.99 -2.01,-2.64 0.12,-0.12 -1.61,-3.1 -1,-1.04 0.24,-0.86 -0.23,-0.78 0,0 4.67,-0.18 1.51,-1.35 1.92,-3.32 1.19,-1.42 7.36,-4.37 -0.32,-1.84 -0.86,-1.08 -0.64,-0.36 -0.07,-0.6 -0.32,-0.39 0.11,-0.86 -1.12,-2.35 -0.4,-1.44 0.79,-0.54 -0.13,-0.55 0.58,-0.28 -0.15,-0.5 0.23,-0.27 0.69,-0.38 0.59,0.09 0.25,-1.05 1.46,-0.28 0.24,0.21 z"
     title="An Giang"
     id="VN-44"
 />
</svg>
