<?xml version="1.0" encoding="UTF-8" standalone="no"?>
<!-- Created for MapSVG plugin: http://mapsvg.com -->
<svg
   xmlns:mapsvg="http://mapsvg.com"
   xmlns:dc="http://purl.org/dc/elements/1.1/"
   xmlns:rdf="http://www.w3.org/1999/02/22-rdf-syntax-ns#"
   xmlns:svg="http://www.w3.org/2000/svg"
   xmlns="http://www.w3.org/2000/svg"
   mapsvg:geoViewBox="102.143498 23.393563 109.460943 8.562136"
   width="381.07504"
   height="800.61719"
>
  <path
     d="m 96.628471,701.45323 0.54,0.23 1.19,1.72 0.53,-0.1 0.85,0.7 1.159999,1.66 -0.11,0.34 0.19,0.54 -0.33,0.29 -0.07,0.64 0.4,1.45 -0.3,1.62 0.35,1.71 -0.55,1.57 -0.769999,0.74 -0.69,2.57 -0.58,0.63 -0.06,0.41 0.32,0.7 -0.56,0.73 -0.01,0.74 -0.39,0.38 0.28,0.49 0.23,-0.23 0.82,0.54 -0.03,0.42 -0.23,0.02 -0.17,0.35 0.2,0.67 -0.29,0.02 -0.19,0.37 0.62,1.06 0.29,-0.03 0.22,0.25 -0.01,0.23 -0.71,-0.58 -0.36,0.31 -0.33,-0.38 -0.32,-0.03 -0.45,0.42 -0.52,-1.85 -0.51,-0.2 -0.18,-1.94 -1.49,-6.93 -0.52,-1.33 -0.99,-1.11 -0.72,-1.27 0.18,-0.29 -0.23,0.22 -0.42,-0.26 -0.67,0.29 -0.99,-0.91 -0.53,-0.01 -0.17,0.27 -0.93,-2.81 -0.52,-0.38 0.3,-0.82 2.23,0.33 2.04,0.63 0.31,-0.08 0.75,-0.92 0.31,-1.19 1.05,-0.46 0.32,-1.54 0.59,-0.52 0.63,-0.09 z m 35.889999,-4.51 3.39,1.01 1.32,-0.03 0,0 0.23,0.78 -0.24,0.86 1,1.04 1.61,3.1 -0.12,0.12 2.02,2.64 8.03,1.99 5.53,3.38 4.19,3.67 1.13,-1.56 0.18,0.22 0,0 -0.25,0.4 3.73,3.29 0.3,-0.26 0.39,0.46 0.32,-0.31 1.86,2.09 0.2,0.98 0.4,0.48 8.72,8.08 0,0 0.37,0.35 -1.19,2.61 0.23,0.2 -3.38,1.91 -1.29,0.34 0.31,1.24 -0.58,0.27 0.03,0.22 -0.19,-0.12 -0.07,0.36 -0.19,-0.22 0.08,0.27 -0.28,-0.07 0.13,0.27 -0.28,-0.19 -0.06,0.28 0.22,0.09 -0.46,0.05 0.11,0.5 0.4,0.06 -0.14,0.5 -0.46,-0.06 -0.5,0.3 -0.15,0.47 -0.96,0.31 -0.8,0.9 -1.48,0.61 0.49,0.72 0.06,0.57 0.7,0 0.19,0.38 0.86,-0.2 -0.14,0.7 1.21,-0.05 0.69,0.46 -0.27,0.24 0.27,0.19 -0.39,1.1 -0.46,-0.17 -0.72,0.56 -0.15,0.97 0,0 -0.14,0.13 0,0 -0.03,0.34 0,0 -0.31,-0.24 -0.95,-0.01 0.12,-0.37 -0.29,-0.23 -0.05,-0.45 -0.65,0.7 -1.03,-0.42 -0.29,-1.09 -0.6,-0.44 -0.29,0.58 -0.01,1.35 0.47,0.82 0.89,0.62 -0.25,0.85 0.84,-0.13 -0.07,0.71 0.38,0.91 -0.51,0.15 0.19,0.42 -0.4,0.34 0,0.41 -0.3,-0.23 -0.25,0.2 -0.26,-0.16 -0.33,0.86 -0.15,1.52 0.19,1.41 0.61,1.11 0.24,0.1 0.44,1.52 -0.54,-0.1 -0.41,-0.43 -0.32,0.22 0,0 -0.76,-0.48 -0.95,-0.11 -13.46,-8.35 -0.51,0.98 -0.81,-0.23 -0.77,-0.62 -0.89,1.22 -1.52,-1.54 -1.82,3.54 -1.88,-1.86 -0.55,-0.07 0,0 1.19,-9.49 1.52,-5.99 0.4,-0.9 0.45,-0.39 1.27,0.26 1.49,-0.39 2.9,-3.11 1.47,-1.24 1.23,-0.66 0.87,0.05 0.61,1.69 0.29,-0.09 0.29,-0.6 0.18,-0.96 -1.19,-3.09 -0.37,-0.28 -4.39,-4.55 -1.75,0 -2.98,0.66 -0.9,-0.22 -1.08,-1.09 -0.84,-1.68 -1.39,-1.88 -1.2,-1.21 -1.52,-0.92 -1.7,-0.44 -1.28,0.53 -1.76,1.55 -1.34,1.75 -0.1,0.74 -0.22,0.16 -1.5,-0.58 -0.39,0.34 -0.36,-0.06 -0.12,-0.16 0.53,-0.78 -1.05,-1.31 0.36,-0.38 -0.62,-0.63 0.42,-0.52 -0.58,-2.1 -0.68,-1.04 -0.85,-0.76 -0.43,-0.1 -0.45,0.7 -0.22,0.03 0.16,-0.63 -0.33,-0.73 0.25,-0.35 -0.27,-0.7 -0.75,-1.14 -1.37,-1.43 -0.17,-0.2 -0.19,-0.29 -0.39,0 -0.64,0.69 -0.91,0.16 0.19,-0.44 -0.12,-0.52 0.48,-0.88 -0.66,-1.15 2.04,-0.42 1.1,1.24 1.06,-1.05 0.37,-1.04 0.81,-0.09 0.42,-0.43 0.42,-1.88 1.21,-0.61 0.29,-1.3 0.64,-0.22 0.85,0.3 1.53,-0.1 0.01,-0.56 2.04,0.11 z"
     title="Kiên Giang"
     id="VN-47"
 />
</svg>
