<?xml version="1.0" encoding="UTF-8" standalone="no"?>
<!-- Created for MapSVG plugin: http://mapsvg.com -->
<svg
   xmlns:mapsvg="http://mapsvg.com"
   xmlns:dc="http://purl.org/dc/elements/1.1/"
   xmlns:rdf="http://www.w3.org/1999/02/22-rdf-syntax-ns#"
   xmlns:svg="http://www.w3.org/2000/svg"
   xmlns="http://www.w3.org/2000/svg"
   mapsvg:geoViewBox="102.143498 23.393563 109.460943 8.562136"
   width="381.07504"
   height="800.61719"
>
  <path
     d="m 195.15847,115.91323 -0.61,-0.65 0,0 0.34,-0.46 0,0 0.55,0.19 0.55,-0.38 -0.02,-0.15 -0.67,0.03 0.88,-1.36 0.26,0.23 1.22,-0.03 0.25,-1.02 -0.27,-0.41 0.68,-0.45 0.07,0.31 0.22,-0.03 -0.21,-0.64 0.33,-1.29 0.2,0.02 0.71,1.23 0.32,0.18 0.32,-0.12 0.24,0.46 0.53,-0.11 0.6,0.19 0.15,0.42 0.47,0.07 -0.1,-0.27 0.36,-0.5 -0.03,-0.31 -0.43,-1 0.34,-0.35 0.84,-0.19 0.17,-1.06 -0.16,-0.03 0,0 -0.21,-0.15 0,0 -0.19,-0.42 0.45,-0.47 -0.6,-0.58 0.36,-1.15 0,0 -0.13,-0.19 0,0 0.61,-1.35 -0.13,-0.36 0.17,-0.31 -0.35,-0.45 -0.88,-0.21 0.13,-0.5 0.66,-0.47 0,0 0.16,-0.07 0,0 0.42,-1.2 0.52,-0.1 0.59,-0.750001 1.1,-0.37 1.43,0.5 0,0 0.51,-0.22 0,0 0.91,-0.23 0,0 0.41,-0.05 0,0 0.6,0.840001 0.57,0.31 0,0 -0.82,0.52 -0.05,4.56 2.19,0.87 1.4,0.12 0.38,0.72 0.26,-0.31 0.37,0.03 0,0 0.23,-0.2 0,0 0.68,-0.17 0.72,0.13 -0.29,1.02 0.21,0.27 -0.14,0.87 0.32,-0.19 -0.07,0.36 0.35,0.34 0.16,-0.18 0.39,0.22 -0.09,-0.31 0.33,-0.21 0.29,0.41 0.64,-0.14 0.22,0.63 -0.44,1.23 0.27,0.31 0,0 0.3,0.2 0,0 0.29,0.39 0.29,-0.21 0.27,0.3 0.2,-0.09 0,0 0.35,0.08 0,0 0.25,-0.18 0.55,0.3 0.52,-0.2 0,0 0.41,-0.44 0.26,0 0,0 0.74,-0.12 0.04,-0.47 -0.53,-0.59 0.68,-0.6 0.75,-0.03 0.31,-0.32 0.31,0.41 0.45,-0.17 0.57,0.13 0.48,-0.6 0.49,-0.06 0.62,-1.87 0.79,-0.24 0.61,-0.73 -0.71,-1.37 0.74,-0.63 0.3,-1.26 0.75,-0.65 0.77,-1.29 0.4,-0.09 0.33,-0.41 1.02,0.22 1.29,-0.52 1.05,0.4 0.48,-0.32 0.57,0.17 0.75,-0.31 1.69,0.88 -0.15,1.21 0.54,0.59 0.84,0.3 0.37,0.57 0.48,0.18 0.67,0.06 0.15,-0.2 0,-0.48 0.16,-0.06 -0.3,-0.42 0.21,-0.48 1.39,-0.37 0.34,0.59 0.68,0.39 0.81,-0.18 1.13,0.16 0.37,1.01 0.76,0.47 -0.3,0.6 -0.36,-0.17 -0.12,0.48 -0.54,0.25 0.29,0.97 0.34,-0.28 0.07,0.24 0.78,-0.1 1.08,0.39 0.14,0.74 0.52,0.36 -0.5,0.6 -0.05,0.45 1.04,1.18 0.28,0.01 0.5,-0.58 0.19,0.23 -0.07,0.61 0.83,-0.51 0.46,0.64 0.81,-0.72 0.91,-0.2 0.28,0.54 0.63,0.47 -0.68,0.43 0.03,0.33 -0.31,0.37 0.4,1.33 -0.29,0.98 1.59,0.82 0.22,0.73 0.52,0.35 0,0 0.08,0.57 -0.71,0.88 -0.49,0.25 -1.19,0.07 -0.79,0.51 0.19,0.77 0.38,0.25 0.09,0.4 -0.42,1.07 0.07,0.69 -0.49,0.11 -0.66,1.05 -0.04,0.83 -0.41,0.13 -0.25,0.8 -0.37,0.3 -1.02,-0.86 -1.23,0.29 -0.51,-0.24 -0.5,0.53 -0.62,-0.14 -0.31,-0.68 -1.5,0.02 -0.02,1.34 0.39,0.64 -0.76,-0.2 -1.34,0.39 -1.23,-0.17 -0.27,-0.22 -1.04,0.01 -0.59,-0.29 -0.59,0.11 -1.25,-0.6 -0.82,0.17 -0.16,-0.2 -1.39,-0.2 -0.57,-0.36 -0.16,0.68 -0.33,-0.2 -1.13,0.06 -0.23,-0.48 -0.87,0.07 0.09,-0.32 -0.43,-0.43 -0.8,0.18 -0.52,-0.32 -0.71,0.14 -0.78,-1.71 -0.45,-0.15 -0.62,0.22 -0.31,-0.16 0,0 -0.49,-0.2 -0.18,-0.5 -0.12,0.45 -0.64,-0.07 -0.42,0.22 -0.4,-0.17 0,0 -0.16,-0.2 -0.17,0.13 0,0 -1.46,-0.01 -0.08,0.4 -0.29,0.05 -0.23,0.83 -2,0.68 -0.17,0.77 -0.34,0.13 0.12,0.31 -1.15,0.01 0.06,0.45 -1.18,-1.11 0.09,-0.37 -0.58,-0.05 -0.21,0.72 0.69,1.74 -0.47,0.95 -0.76,0.52 0,0 -0.48,-0.45 -0.92,-0.16 -0.33,-0.7 -0.48,-0.33 0.07,-0.73 -0.19,-0.32 -0.64,0.11 -0.71,0.52 -0.71,0.02 0.31,-0.91 -1.28,-0.37 -0.9,0.29 -0.43,-0.27 -0.94,-1.5 -0.61,-0.34 -0.64,0.01 -0.37,0.93 -1.62,-0.43 -0.24,-0.2 -0.07,-0.54 -0.53,0.08 -0.99,-0.57 -0.65,0.7 0.24,0.6 -0.31,0.12 -0.35,-0.76 0.08,-1.65 -1.29,-0.76 -0.6,0.02 -0.33,-0.29 -0.33,0.55 0.24,0.95 -0.54,0.3 -0.24,0.47 -0.62,-0.4 -0.38,0.17 -0.27,-0.43 -0.58,0.09 -0.27,-0.27 0.11,-0.28 0,0 0.05,-0.21 -0.83,-1.31 0.01,-0.91 0.44,-0.38 -0.82,-0.16 0,0 0.06,-0.49 0,0 -0.41,0.22 -0.43,-0.14 -0.18,-0.25 0.11,-0.89 z"
     title="Bắc Giang"
     id="VN-54"
 />
</svg>
