<?xml version="1.0" encoding="UTF-8" standalone="no"?>
<!-- Created for MapSVG plugin: http://mapsvg.com -->
<svg
   xmlns:mapsvg="http://mapsvg.com"
   xmlns:dc="http://purl.org/dc/elements/1.1/"
   xmlns:rdf="http://www.w3.org/1999/02/22-rdf-syntax-ns#"
   xmlns:svg="http://www.w3.org/2000/svg"
   xmlns="http://www.w3.org/2000/svg"
   mapsvg:geoViewBox="102.143498 23.393563 109.460943 8.562136"
   width="381.07504"
   height="800.61719"
>
  <path
     d="m 202.57847,709.46323 2.38,1.1 1.28,-0.35 1.67,0.08 3.37,-1.58 1.05,-0.27 3.33,-0.54 0.98,0.49 3.14,-1.05 0.7,-0.03 1.36,0.35 2.26,1.39 1.34,-0.01 2.44,1.34 0.79,0.69 5.82,1.58 4.55,2.06 0,0 -0.28,0.4 1.48,0.88 1,0.28 0.71,0.9 -0.07,0.79 -0.4,0.26 0.46,1.18 -0.46,0.83 -1.82,2.1 -0.65,0.38 -0.23,-0.06 0.49,-0.87 -1.14,0.95 -0.89,0.22 -0.47,-0.14 -0.11,-0.13 0.35,-0.22 0.28,-0.61 -0.14,-0.51 -0.15,0.06 0.02,0.31 -0.94,0.82 0.67,1.5 -0.06,0.31 -0.79,0.7 -0.39,-0.04 -0.16,0.52 -0.85,0.99 -0.67,0.18 -0.62,-0.33 -0.51,0.04 -1.63,-0.85 -0.5,0.73 1.51,1.14 1.47,0.41 1.6,1.02 0.54,1.31 1.04,1.02 -0.19,0.7 -1.39,2 -0.35,0.09 -0.12,-0.36 -0.43,0.38 -0.35,0.95 -0.45,0.45 -0.9,0.08 -6.5,-6.38 -0.72,-0.5 -0.51,0.09 0,0 -2.22,-1.01 0,0 -1.26,-0.94 0,0 -0.95,-0.49 -1.13,-1.11 0,0 -1.6,-0.69 0,0 -0.86,-0.69 -0.92,-1.19 0,0 -3.35,-4.88 -1.91,-1.81 -0.62,0.06 -0.46,-0.6 -0.85,-0.49 -0.4,-0.38 -0.12,-0.56 -0.83,-0.72 -1.18,-0.6 -2.45,-0.22 -0.97,-0.33 -0.19,-0.35 0.2,-0.08 -0.11,-0.65 -0.35,-0.14 0.29,-1.35 z"
     title="Bến Tre"
     id="VN-50"
 />
</svg>
