<?xml version="1.0" encoding="UTF-8" standalone="no"?>
<!-- Created for MapSVG plugin: http://mapsvg.com -->
<svg
   xmlns:mapsvg="http://mapsvg.com"
   xmlns:dc="http://purl.org/dc/elements/1.1/"
   xmlns:rdf="http://www.w3.org/1999/02/22-rdf-syntax-ns#"
   xmlns:svg="http://www.w3.org/2000/svg"
   xmlns="http://www.w3.org/2000/svg"
   mapsvg:geoViewBox="102.143498 23.393563 109.460943 8.562136"
   width="381.07504"
   height="800.61719"
>
  <path
     d="m 249.57847,656.38323 0.77,-1.03 -0.72,-1.21 -0.81,-0.19 -0.25,0.13 -0.11,-0.2 -0.5,0.17 -0.22,0.64 -0.89,0 -0.72,0.76 -0.13,0.32 0.29,0.61 -0.52,-0.09 0.06,-0.21 -0.49,0.05 -0.04,-0.83 0.37,-0.58 -0.35,-0.34 0.21,-0.12 -0.24,-0.2 -0.06,-0.36 0.21,-0.06 -0.16,-0.76 -0.78,0.06 -0.8,-0.44 -0.74,0.4 -0.6,-0.31 -0.71,0.05 0,-0.94 -0.57,-0.07 -0.24,-0.26 0,-0.71 0.12,-0.45 0.82,-0.28 0.95,-1.04 -0.17,-1.66 -0.3,-0.36 -0.31,-0.06 -1.91,0.8 -0.18,0.44 0.33,0.91 -0.77,0.53 -0.07,0.4 -0.72,0.03 -0.04,0.44 0,0 -0.4,0.09 0,0 0.04,0.38 -0.74,1.01 -0.38,-0.26 -0.53,0.24 -0.73,-0.3 0.3,0.87 -0.17,0.15 0.17,0.19 -0.1,0.69 0,0 -0.16,0.45 0,0 -0.67,0 0,0 -0.32,-0.07 0,0 -2.01,-0.29 -0.19,-1.24 -0.55,-0.01 -1.52,0.55 0,0 -0.49,0.32 -0.5,-0.13 0,0 -0.68,-0.71 0,0 0.18,-0.33 0,0 0.22,-0.73 -0.38,-0.98 0.43,-0.66 0.48,-0.13 0,0 0.6,-0.52 0.08,-0.43 0,0 -0.83,-1.1 -0.47,0.58 -0.32,0.05 -0.77,-0.59 -0.58,-0.14 -1.29,-1.1 -0.75,0.23 -2.11,-0.26 -0.53,0.34 0,0 -0.13,-0.66 0.37,-0.16 0.17,-1.57 0.58,-0.35 0.55,0.3 0.99,-0.27 1,-1.23 -0.34,-0.46 0.25,-0.09 -0.4,-0.82 0.2,-0.45 -0.55,-0.36 0.05,-0.16 -0.4,-0.01 -0.29,-0.5 0.05,-0.84 -0.32,-0.3 0.04,-0.31 -0.3,-0.15 0.11,-0.21 -0.23,-0.14 -0.06,-0.51 0,0 0.18,-1.07 -0.81,-0.8 -1.22,-3.18 1.04,-2.23 0.7,-0.84 -0.5,-0.84 0.11,-0.92 0.44,-0.47 0.96,-0.06 -2.86,-5.61 1.05,0.06 0.49,-0.72 0.71,-0.13 0.5,0.34 0.2,0.47 1.09,0.23 1.44,-0.57 0.98,0.27 -0.35,0.37 5.1,-0.31 0.59,-0.01 0.35,0.45 0.75,0 -0.54,-0.83 0.38,-0.41 1.04,0.6 0.4,0.68 1.85,-0.26 1.47,-2.07 -0.04,-0.57 0.47,-0.27 0.23,-0.66 0.44,-0.62 0.7,-0.86 -0.02,-0.35 0.62,-0.52 1.03,0.17 0.5,-0.21 0.61,0.6 0.56,-0.13 0.32,0.36 1.7,-0.3 0.72,0.38 0.7,-0.04 0.24,0.25 1.48,-0.27 0.31,-0.37 2.22,-0.69 0.36,-0.38 0.46,-0.42 -0.32,-0.32 0.12,-0.37 0.49,-0.29 0.7,-0.01 0.54,-0.56 0.53,-0.35 0.37,-0.28 -0.12,-0.3 0.34,-0.64 0.22,0.19 0.82,-0.29 0.03,-0.35 -0.48,-0.37 0.23,-0.48 0.92,0.27 0.24,-0.93 0.52,-0.76 0.65,-0.57 0.96,-0.3 -0.11,-0.79 0.41,-1.02 0.34,-0.65 0.82,-0.12 0.93,-0.47 0.27,-0.42 0.8,-0.05 0,0 1.12,7.74 0.01,0.78 -0.3,0.44 0.3,0.58 0.64,0.1 -0.51,1.53 0.09,3.05 0.55,-0.63 0.17,0.27 -0.16,0.44 0.34,-0.05 0.18,0.34 0.48,0.03 0.35,0.33 0.1,-0.18 0.3,0.19 0.11,-0.24 0.12,0.28 0.18,-0.29 0.34,0.1 0.08,-0.26 0.22,0.31 -0.08,0.31 1.54,0.29 0.81,0.79 0.28,0.79 0.33,0.28 0.08,0.73 0.25,0.12 -0.26,0.25 0.26,0.39 -0.26,0.07 1.55,0.86 1.09,1.75 0.24,1.13 0.63,0.09 0.39,0.32 0.06,0.77 -0.29,0 -0.28,0.39 0.06,0.29 -0.17,-0.09 -0.05,0.38 -0.42,0.46 0.19,0.67 -0.37,0.36 -0.21,-0.15 -0.19,0.29 0.28,0.9 -0.52,0.67 0,0 -0.19,-0.31 -0.78,0.15 -0.48,0.47 -0.33,-0.05 -0.18,0.47 -1.37,0.17 -0.58,0.46 -0.71,0.07 -0.26,0.53 -0.36,0 -0.2,0.25 -0.09,1.39 -0.28,0.32 0.34,0.31 -0.99,1.34 0.38,0.61 -0.24,0.36 0.15,0.33 0.84,0.29 0.88,0.71 -0.19,0.59 0.31,0.4 -0.49,0.74 0.17,0.38 0.59,0.34 -0.1,0.16 -0.4,-0.13 0.42,0.84 1.17,0.05 0.21,0.42 0,0 -0.75,0.34 -9.65,2.07 -0.85,1.01 -1.24,0.15 -0.06,0.62 -1.04,0.7 -0.41,0.76 0,0.66 0.24,0.03 0.28,0.51 -0.41,0.29 0.02,0.44 -0.67,0.47 0.27,0.32 -0.21,0.44 0.2,0.18 -0.41,0.22 -0.61,-0.17 0.05,0.2 -0.36,0.09 0.31,0.2 -0.3,0.04 0.13,0.27 -0.21,0.26 -0.21,-0.03 0.02,0.2 -0.3,-0.11 -0.43,0.38 -0.33,-0.05 0.16,0.42 -0.55,0.11 -0.02,0.34 -0.21,-0.03 0.09,0.24 -0.17,-0.09 -0.14,0.2 -0.09,-0.3 -0.39,0.19 0.01,-0.18 -0.4,-0.01 0.37,0.47 -0.1,0.53 -0.85,-0.25 0.05,0.17 -0.52,0.22 -0.01,0.46 -0.49,-0.33 -0.75,-0.18 z"
     title="Bình Phước"
     id="VN-58"
 />
</svg>
