<?xml version="1.0" encoding="UTF-8" standalone="no"?>
<!-- Created for MapSVG plugin: http://mapsvg.com -->
<svg
   xmlns:mapsvg="http://mapsvg.com"
   xmlns:dc="http://purl.org/dc/elements/1.1/"
   xmlns:rdf="http://www.w3.org/1999/02/22-rdf-syntax-ns#"
   xmlns:svg="http://www.w3.org/2000/svg"
   xmlns="http://www.w3.org/2000/svg"
   mapsvg:geoViewBox="102.143498 23.393563 109.460943 8.562136"
   width="381.07504"
   height="800.61719"
>
  <path
     d="m 144.74847,793.45323 -3.69,0.06 -1.11,-1.15 -0.39,-1 2.66,-0.65 0.65,-1.6 0.7,-0.44 0.29,-1.25 -0.17,-0.07 -0.27,0.59 -0.52,0.28 -3.92,1.26 -1.1,-0.97 -0.55,-1.34 1.02,-5.15 0.11,-5.68 0.05,-1.7 0.27,-3.54 -0.06,-2.88 0.66,-3.74 0.77,-14.75 0.55,0.07 1.89,1.86 1.82,-3.54 1.53,1.54 0.89,-1.22 0.77,0.62 0.81,0.23 0.51,-0.98 13.46,8.36 0.95,0.11 0.76,0.48 0,0 -2.43,2.79 0.49,1.08 1.89,1.8 -1.87,1.49 -0.94,1.33 -0.37,0.09 -0.01,0.55 0.39,0.25 0.01,0.45 0.67,0.11 0.44,1.06 0.69,-0.22 0.3,0.9 -0.71,0.32 -0.24,0.94 -0.49,0.33 -0.29,1.19 0.19,0.42 -0.28,0.21 0.43,0.47 0.49,-0.16 0.58,0.51 1.24,-0.26 1.06,0.94 0.85,0.28 0.33,-0.31 0.83,0.07 0.05,0.43 1.03,0.28 0.79,-0.51 0.17,0.35 0.74,0.48 0.01,0.4 0.42,0.32 -0.08,0.6 0,0 -0.29,0.87 -0.88,1.22 -0.3,1.64 -1.79,4.16 -1.44,2.37 -0.33,0.36 -2.85,3.04 -2.09,0.53 -0.72,0.12 -1.62,0.84 -0.23,0.71 -0.41,0.17 -1.37,1.46 -0.61,1.03 -0.04,0.81 -1.05,1.13 -1.83,0.62 -0.56,-0.12 -2.84,1.31 -1.56,0.12 -0.9,0.54 -6.45,1.19 -0.52,-0.09 -1.24,-0.74 -2.9,-0.65 -1.58,-0.78 -0.24,-1.44 0.68,-0.71 0.92,0.13 0.41,0.68 0.35,-0.16 -0.08,-0.2 2.31,-0.78 0.86,0.14 -1.37,-0.94 -0.22,-1.22 0.11,-0.97 0.61,-0.66 2.28,1.77 3.63,0.04 0.43,-0.33 z"
     title="Cà Mau"
     id="VN-59"
 />
</svg>
