<?xml version="1.0" encoding="UTF-8" standalone="no"?>
<!-- Created for MapSVG plugin: http://mapsvg.com -->
<svg
   xmlns:mapsvg="http://mapsvg.com"
   xmlns:dc="http://purl.org/dc/elements/1.1/"
   xmlns:rdf="http://www.w3.org/1999/02/22-rdf-syntax-ns#"
   xmlns:svg="http://www.w3.org/2000/svg"
   xmlns="http://www.w3.org/2000/svg"
   mapsvg:geoViewBox="102.143498 23.393563 109.460943 8.562136"
   width="381.07504"
   height="800.61719"
>
  <path
     d="m 199.85847,731.28323 -1.34,-2.01 0.47,0.06 1.1,0.93 0.6,-0.1 0.93,-0.61 -0.09,-0.4 0.37,-0.45 0.4,0.27 0.53,0.01 0.34,-0.5 0.5,-0.26 -0.02,-0.28 1.11,0.1 0.53,-0.77 1.35,1.11 1,-1.24 0.16,-3.25 0.8,0.34 2.07,-0.46 0.25,0.08 0.45,0.77 0.37,0.08 1.12,-0.79 -0.05,-0.99 -0.46,-0.07 0.22,-0.25 -0.1,-0.46 0.23,-0.1 -0.07,-0.58 0.7,-0.63 1.02,0.45 1.5,1.23 0,0 0.92,1.19 0.86,0.69 0,0 1.6,0.69 0,0 1.13,1.11 0.95,0.49 0,0 1.26,0.94 0,0 2.22,1.01 0,0 -0.04,0.27 1.45,1 1.75,2.14 1.24,1.03 -0.29,0.54 -0.94,0.35 -0.69,-1.06 -2.25,-2.19 -0.82,-0.52 -0.56,0.57 1.58,1.56 2.02,2.68 0.45,0.26 0.04,2.1 1.08,0.83 0.32,0 0.9,0.34 0.43,0.47 0,1.94 0.39,0.43 0.06,0.79 -0.9,2.73 -1.65,2.32 -1.36,1.04 -2.54,1.02 -2.05,0.51 -0.9,-0.17 -1.12,0.22 -0.34,-0.23 -0.16,-0.59 -0.18,-0.2 -1.04,-1.3 -0.94,-0.71 -1.99,-1.11 -0.44,0.46 0,0 -1.35,-0.76 -2.31,-1.97 -5.29,-5.45 -1.98,-1.23 -0.93,-1.25 -2.4,-2.36 -1.18,-1.85 z"
     title="Trà Vinh"
     id="VN-51"
 />
</svg>
