<?xml version="1.0" encoding="UTF-8" standalone="no"?>
<!-- Created for MapSVG plugin: http://mapsvg.com -->
<svg
   xmlns:mapsvg="http://mapsvg.com"
   xmlns:dc="http://purl.org/dc/elements/1.1/"
   xmlns:rdf="http://www.w3.org/1999/02/22-rdf-syntax-ns#"
   xmlns:svg="http://www.w3.org/2000/svg"
   xmlns="http://www.w3.org/2000/svg"
   mapsvg:geoViewBox="102.143498 23.393563 109.460943 8.562136"
   width="381.07504"
   height="800.61719"
>
  <path
     d="m 197.52847,120.52323 -0.11,0.28 0.27,0.27 0.58,-0.09 0.27,0.43 0.38,-0.17 0.62,0.4 0.24,-0.47 0.54,-0.3 -0.24,-0.95 0.33,-0.55 0.33,0.29 0.6,-0.02 1.29,0.76 -0.08,1.65 0.35,0.76 0.31,-0.12 -0.24,-0.6 0.65,-0.7 0.99,0.57 0.53,-0.08 0.07,0.54 0.24,0.2 1.62,0.43 0.37,-0.93 0.64,-0.01 0.61,0.34 0.94,1.5 0.43,0.27 0.9,-0.29 1.28,0.37 -0.31,0.91 0.71,-0.02 0.71,-0.52 0.64,-0.11 0.19,0.32 -0.07,0.73 0.48,0.33 0.33,0.7 0.92,0.16 0.48,0.45 0,0 -0.19,0.85 0.43,1.92 0.42,0.75 -0.95,1.11 0.08,0.89 -1.04,0.91 -0.12,0.78 -0.31,0.22 -1.05,-0.54 -0.1,0.38 -1.23,-0.28 -0.02,0.33 -1.5,0.6 -0.23,-0.1 -1.04,0.65 -0.22,-0.36 0.28,-0.62 -0.94,-0.11 -0.66,-0.69 -0.31,0.12 -0.24,0.85 0,0 -0.63,0.02 0.03,-0.7 -0.34,-0.21 -0.35,0.14 -0.64,-0.54 -0.69,0.64 -0.52,-0.3 -0.47,0.03 -0.36,-0.38 -1.11,0.78 -0.45,-0.1 -0.2,-0.42 -0.3,0.22 -0.53,-0.08 0,0 -0.13,-0.36 0.6,-0.26 -0.28,-0.02 -0.03,-0.55 0.27,-0.17 -0.13,-0.22 0.27,-0.07 0.41,-0.63 -0.33,-0.81 -0.35,-0.11 0.07,-0.38 -0.11,0.09 -0.37,-0.63 -0.3,0.3 -1.32,-0.18 -0.31,-0.31 -0.22,-0.74 -0.91,0.41 -0.3,-1.22 -0.68,-0.61 0.13,-0.21 -0.42,0.1 -0.15,-0.38 0.46,-0.53 0.14,0.11 0.1,-0.41 -0.35,-0.8 0.18,-0.37 -0.32,-0.37 0.35,-0.8 -0.53,-0.49 -0.33,-0.03 0.44,-1.31 -0.25,-0.48 -0.28,0.12 -0.07,-0.16 0.13,-0.38 0.67,0.05 0.73,-0.78 z"
     title="Bắc Ninh"
     id="VN-56"
 />
</svg>
