<?xml version="1.0" encoding="UTF-8" standalone="no"?>
<!-- Created for MapSVG plugin: http://mapsvg.com -->
<svg
   xmlns:mapsvg="http://mapsvg.com"
   xmlns:dc="http://purl.org/dc/elements/1.1/"
   xmlns:rdf="http://www.w3.org/1999/02/22-rdf-syntax-ns#"
   xmlns:svg="http://www.w3.org/2000/svg"
   xmlns="http://www.w3.org/2000/svg"
   mapsvg:geoViewBox="102.143498 23.393563 109.460943 8.562136"
   width="381.07504"
   height="800.61719"
>
  <path
     d="m 176.38847,43.033229 0.49,-0.19 -0.01,-0.8 0.3,-0.34 1.21,-0.49 0.6,0.09 0.31,-0.66 0.53,0.35 0.45,-0.01 -0.16,-0.97 0.4,-0.33 0.45,-0.08 0.08,-0.23 1.46,0.08 0.82,-1.41 0.48,-0.09 0.98,0.41 0.25,-0.63 0.29,0.5 0.5,-0.67 0.54,0.1 0.29,-0.44 0.65,-0.14 0.56,0.77 0.4,0.02 0.05,0.34 -0.37,0.45 0.37,0.79 0.96,0.36 -0.2,0.43 -1.2,1.08 -0.58,1.26 -0.58,0.25 0.01,0.38 0.61,0.22 0.05,0.39 0.63,0.69 -0.43,0.77 0.31,0.44 0.76,-0.09 0.59,0.59 0.08,0.28 -0.43,0.4 0.14,0.33 -0.28,0.22 0.3,0.09 -0.1,0.22 0.75,-0.07 0.9,1.5 0.89,0.25 0.54,-0.37 0.07,0.59 0.38,0.03 1.52,-0.31 0.3,0.38 1.18,0.41 0.33,0.65 0.37,-0.01 0.74,-1.43 0.4,-0.36 0.73,-0.04 0.47,0.29 0.52,-0.27 0.25,-0.46 1.7,-0.69 0.21,-0.36 1.71,-0.46 0.45,-0.84 0.95,0.46 0.79,-0.2 0.05,0.32 -0.42,0.38 -0.01,0.43 0.66,0.03 0.44,0.31 -0.12,0.55 0.42,0.13 -0.31,0.31 0.37,0.41 -0.07,0.34 0.97,0.36 -0.23,1.48 0.21,0.61 -1.32,1.57 0.38,0.52 -0.07,1.16 0.29,0.7 0.23,0.14 0.61,-0.18 0.92,0.43 0.97,-0.86 0.48,0.13 0.03,0.3 0.51,0.06 -0.04,0.5 0.38,0.12 0,0 0.07,0.53 1.11,0.64 0.48,0.65 0.07,0.51 -0.54,0.55 0,0 -0.16,0.31 0,0 -0.32,1.04 0.27,0.65 0.37,0.63 0.25,0.15 0.21,-0.14 0.2,0.43 0.53,0.21 0.53,0.66 0.1,0.59 -0.49,1.94 -0.3,0.08 -0.55,0.73 0,0.56 0.65,1.04 -0.41,0.51 -0.48,0.18 -1.04,1.3 -0.27,-0.05 -0.54,0.83 0.22,0.64 -0.45,0.4 -0.38,-0.06 -0.34,0.5 -0.29,1.17 -1.76,-0.2 -0.47,0.69 -0.32,-0.19 -0.41,0.26 0.13,1.48 -0.38,0.49 0.81,1.22 -0.18,0.93 0.35,0.23 0.06,0.87 -0.17,0.86 -0.41,0.09 0,0 -0.29,0.1 0,0 0,0.44 0.68,0.07 -0.69,0.69 0,0 -0.28,-0.24 -1.76,0.02 -0.35,-0.27 -0.31,-0.78 -0.88,-0.42 -0.9,1.69 -0.61,0.27 -0.68,-0.26 0,0 -0.57,-0.11 0,0 -0.34,0.24 0.04,0.57 -0.55,0.19 -0.04,0.44 -0.68,0.61 -0.86,0.38 -1.01,0.03 -1.5,2.04 -0.41,0.16 -0.58,-0.17 0,0 0.11,0.39 -0.21,0.33 0,0 -2.39,0.12 -0.55,0.72 -0.24,1.44 -0.68,0.04 -0.38,-0.36 -0.6,-0.12 -0.38,-0.34 0.1,-0.36 -0.23,-0.34 0.62,-1.51 -0.08,-0.5 0.26,-0.45 -0.16,-0.53 0.57,-0.24 -0.44,-0.38 -0.07,-0.75 -0.37,-0.27 0.71,-1.12 -0.21,-0.25 0.07,-0.78 -0.76,-0.85 0.16,-0.96 -0.4,-0.36 -0.23,-1.17 -0.63,-0.33 -0.41,0.2 -0.5,-0.51 -0.77,0.09 -0.67,-0.85 -1.32,-0.53 -0.37,1.02 -0.46,0.33 -0.64,-0.2 -0.23,0.45 -0.81,0.03 -0.45,0.37 0,0 -0.4,-0.03 0,0 -0.6,0.1 -0.34,0.51 -0.44,1.48 0.18,0.34 -0.46,0.13 0.16,0.49 -1.03,0.01 0,0 -0.22,-0.29 -0.98,-0.28 -0.4,-0.77 -0.44,-0.31 -0.22,0.15 -0.05,-0.3 -0.32,-0.14 0.04,-0.86 -0.6,-0.2 -0.35,-2.02 -0.65,-0.6 -0.07,-0.54 -0.56,-0.36 0.34,-0.37 -0.07,-0.47 0.35,-0.44 -0.52,-0.37 -0.1,-0.63 0.34,-0.54 0.3,-0.09 -0.03,-0.59 0.38,-0.51 0.6,-0.25 -0.01,-0.39 -0.89,-0.34 -0.37,0.15 -0.35,-0.46 0.09,-0.67 -0.21,-0.46 -0.2,0.15 -0.31,-0.22 -1,-1.43 0.19,-0.05 0.05,-0.59 0.29,-0.14 -0.27,-0.51 0.14,-0.85 -0.16,-0.24 0.94,-0.52 0.49,0.19 0.5,-0.48 -0.66,-0.58 1.66,-0.54 -0.68,-0.83 0.19,-0.48 0.78,-0.18 -0.07,-1.18 0.93,-0.41 0.15,-1 -0.18,-0.54 0.33,-0.76 -0.08,-0.6 0.9,-0.4 1.45,0.21 0.4,-0.86 -0.61,0.51 -0.34,-0.1 -0.14,-0.49 0.21,-0.42 -0.29,-0.53 0.39,-0.03 0.19,-1.36 2,-1.49 -0.35,-1.07 0.33,-0.81 -0.36,-1.15 -0.68,-0.89 -0.77,-0.15 -0.23,-0.62 -0.36,-0.18 -0.28,-0.69 0.13,-0.61 -1.04,-1.12 z"
     title="Bắc Kạn"
     id="VN-53"
 />
</svg>
