<?xml version="1.0" encoding="UTF-8" standalone="no"?>
<!-- Created for MapSVG plugin: http://mapsvg.com -->
<svg
   xmlns:mapsvg="http://mapsvg.com"
   xmlns:dc="http://purl.org/dc/elements/1.1/"
   xmlns:rdf="http://www.w3.org/1999/02/22-rdf-syntax-ns#"
   xmlns:svg="http://www.w3.org/2000/svg"
   xmlns="http://www.w3.org/2000/svg"
   mapsvg:geoViewBox="102.143498 23.393563 109.460943 8.562136"
   width="381.07504"
   height="800.61719"
>
  <path
     d="m 200.90847,150.37323 0.74,0.2 0.63,0.56 0.3,0.97 0,0 -0.2,1.41 0.41,1.09 0.62,0.68 0,0 0.34,0.4 0.99,0.28 1.21,-0.74 1.09,-0.04 0,0 0.52,0.58 0.07,1.77 1.36,0.52 0.71,1.04 0.4,1.51 -0.05,1.32 0.24,0.58 0,0 -0.58,0.63 -1.29,0.26 -0.42,-0.58 0.07,-0.86 -0.55,-0.25 -0.8,0.16 -0.21,0.33 -0.55,0.18 0.12,0.31 -0.2,0.17 0.35,0.56 -0.25,0.72 -0.45,-0.08 -0.38,-0.46 0,0 -0.26,0.2 0,0 -0.25,-0.38 -0.48,0.17 -0.36,-0.41 -0.76,0.13 -0.07,1.08 -0.71,0.28 0.07,0.28 -0.53,1.3 0.42,0.84 -0.74,0.13 -0.62,-0.22 -0.08,0.4 -0.23,0.03 -0.33,-0.51 0.26,-1.29 -0.61,-0.18 -0.07,-0.49 -0.19,-0.06 -0.21,1.01 -0.47,-0.14 -0.5,0.59 -0.35,0.09 0.11,0.55 -0.43,0.28 -0.78,-0.06 -0.17,0.18 0.17,0.96 0.5,0.18 -0.12,0.42 0,0 -0.64,0.27 -0.57,-0.76 -0.12,0.24 -0.36,-0.04 -2.31,-2.92 0,0 -0.19,-0.41 -0.1,-2.45 -0.73,-0.13 -0.69,-0.48 -0.25,-0.31 -0.02,-0.62 -0.55,0.39 -0.21,-0.11 -0.21,-0.67 -0.31,0.06 -0.59,-1.49 -0.53,-0.6 -0.26,-0.87 0,0 1.43,-0.18 0.27,-1.36 0.54,-0.62 -0.32,-0.3 0.5,-0.45 -0.18,-0.54 0.16,-0.36 1.01,-0.74 -0.76,-0.7 0.15,-0.23 0.91,0.28 0.94,0.8 1.07,0.11 0.91,-0.49 0,-0.96 0.49,0.23 0.73,-0.59 1.23,-0.34 0.18,0.31 -0.09,1.19 0.7,0.25 0.01,-0.51 0.97,-0.33 0.07,-0.46 0.32,-0.37 0.44,-0.09 -0.07,0.22 0.31,0.02 -0.31,-0.65 0.33,-0.15 -0.13,-0.28 z"
     title="Hà Nam"
     id="VN-63"
 />
</svg>
