<?xml version="1.0" encoding="UTF-8" standalone="no"?>
<!-- Created for MapSVG plugin: http://mapsvg.com -->
<svg
   xmlns:mapsvg="http://mapsvg.com"
   xmlns:dc="http://purl.org/dc/elements/1.1/"
   xmlns:rdf="http://www.w3.org/1999/02/22-rdf-syntax-ns#"
   xmlns:svg="http://www.w3.org/2000/svg"
   xmlns="http://www.w3.org/2000/svg"
   mapsvg:geoViewBox="102.143498 23.393563 109.460943 8.562136"
   width="381.07504"
   height="800.61719"
>
  <path
     d="m 230.20847,174.12323 0.8,0.83 -0.48,0.29 0.65,0.61 0.17,0.68 -0.72,1.1 -0.71,0.25 -0.74,-0.55 0.16,-1.56 -0.14,-0.53 0.24,-0.67 0.77,-0.45 z m -32.85,-5.17 0.12,-0.42 -0.5,-0.18 -0.16,-0.96 0.17,-0.17 0.79,0.05 0.43,-0.28 -0.11,-0.55 0.35,-0.09 0.5,-0.59 0.47,0.14 0.21,-1.01 0.19,0.05 0.08,0.49 0.61,0.18 -0.26,1.3 0.33,0.51 0.22,-0.04 0.08,-0.39 0.63,0.22 0.74,-0.13 -0.42,-0.84 0.54,-1.3 -0.07,-0.28 0.71,-0.28 0.08,-1.08 0.76,-0.13 0.36,0.41 0.49,-0.18 0.25,0.38 0,0 0.26,-0.2 0,0 0.39,0.46 0.45,0.08 0.25,-0.71 -0.36,-0.56 0.2,-0.18 -0.12,-0.31 0.55,-0.18 0.21,-0.33 0.81,-0.16 0.55,0.25 -0.07,0.86 0.42,0.59 1.29,-0.26 0.58,-0.63 0,0 0.34,0.27 1.11,0.1 0.71,0.57 -0.14,1.01 -0.64,1.13 0.52,0.99 2.84,0.43 0.58,0.5 -0.09,0.77 -1.53,1.35 -0.09,0.71 0.43,0.78 0.92,-0.05 2.27,-1.79 0,0 0.88,-0.86 0,0 0.91,1.35 2.24,0.87 1.57,1.94 0.68,0.48 0.99,0.25 0.66,-0.1 0.53,-0.22 0.7,-0.74 0.65,-0.01 0.87,-0.43 1.71,1.78 0,0 0.25,0.54 -0.77,0.46 -0.25,0.63 0.13,0.61 -0.29,0.7 -0.53,0.41 -0.52,0.14 0.03,-0.57 -1.11,0.66 -3.03,0.35 -0.71,0.35 -1.1,0.16 -2.56,1.58 -0.85,1.06 -0.9,0.67 -0.71,1.15 -1.21,1.18 -4.64,5.6 -0.26,0.1 -0.78,1.33 -1.01,0.68 -0.75,-0.08 -0.64,0.6 -0.26,0.54 0.11,0.18 0.36,-0.11 0.17,0.55 0.33,-0.36 0.19,0.08 -0.33,0.83 -0.59,-0.23 -0.6,0.2 0,0.35 -0.24,0.18 -0.55,0.12 -0.53,-0.16 0,0 0.38,-1.18 -0.37,-2.04 0.85,-2.69 0.14,-1.48 1.34,-0.96 0.45,-2.12 0.99,-1.52 -0.31,-3.26 -0.48,-1.88 -0.39,-0.2 -2,0.59 -0.52,-2 -0.33,-0.09 -0.54,1.08 -0.59,0.61 -0.67,0.36 -0.61,-0.11 -0.62,-0.56 -0.14,-0.46 0.94,-0.2 -0.13,-0.59 -0.3,-0.21 -0.81,0.29 -1.04,-0.06 -1.26,-0.65 0.16,-1.53 -1.02,-1.28 0,0 -1.16,-0.56 0,0 -0.36,-0.25 0.67,-0.56 0.28,-0.81 -0.85,-0.15 -0.17,-0.64 z"
     title="Nam Định"
     id="VN-67"
 />
</svg>
