<?xml version="1.0" encoding="UTF-8" standalone="no"?>
<!-- Created for MapSVG plugin: http://mapsvg.com -->
<svg
   xmlns:mapsvg="http://mapsvg.com"
   xmlns:dc="http://purl.org/dc/elements/1.1/"
   xmlns:rdf="http://www.w3.org/1999/02/22-rdf-syntax-ns#"
   xmlns:svg="http://www.w3.org/2000/svg"
   xmlns="http://www.w3.org/2000/svg"
   mapsvg:geoViewBox="102.143498 23.393563 109.460943 8.562136"
   width="381.07504"
   height="800.61719"
>
  <path
     d="m 200.81847,134.01323 0.53,0.08 0.3,-0.22 0.2,0.42 0.45,0.1 1.11,-0.78 0.36,0.38 0.47,-0.03 0.52,0.3 0.69,-0.64 0.64,0.54 0.35,-0.14 0.34,0.21 -0.03,0.7 0.63,-0.02 0,0 0.53,0.5 -0.2,0.29 0.1,0.52 0.74,-0.01 0.43,0.52 -0.41,0.36 0.14,0.6 -0.23,0.26 0.36,0.64 -0.52,0.2 -0.48,0.55 0.13,0.55 0.45,0.32 -0.02,0.35 -0.28,1.31 -0.25,0.39 -0.55,0.14 0.19,0.28 -0.28,0.74 0.35,0.08 0.49,0.63 -0.12,0.39 -0.37,0.19 0.55,0.47 0.52,0.89 0.31,0.11 0.41,-0.27 0.32,0.46 0.23,0.01 -0.1,0.21 0.35,0.52 0.62,-0.14 0.55,0.77 0.65,0.09 0.13,0.98 -0.35,0.09 0.63,0.73 0.2,0.7 0.85,0.52 0.25,0.49 1.08,0.12 0,0 -0.18,0.27 -1.2,0.5 -0.55,0.63 -0.82,0.24 0,0 0.43,0.67 -0.3,0.08 0,0 -0.87,-0.14 -1.43,-0.79 -0.29,0.64 -0.32,0.09 -0.89,-0.76 -0.49,-0.01 -0.53,0.59 -0.84,0.31 0.03,0.33 0.4,0.01 0.51,0.45 0.01,0.26 -0.41,0.35 0,0 -1.09,0.04 -1.21,0.74 -0.99,-0.28 -0.34,-0.4 0,0 -0.59,-0.63 -0.42,-1.01 0.18,-1.54 0,0 -0.3,-0.97 -0.63,-0.56 -0.74,-0.2 0,0 -1.55,0.21 -0.46,-1.35 0.27,-0.52 -0.14,-2.15 -0.34,-0.33 -1.61,-0.4 -0.54,-0.64 -0.41,-1.77 0.3,-0.67 0.86,-0.52 0.14,-0.75 -0.3,-0.52 -1.72,-1.01 -0.09,-0.34 0.19,-0.35 0,0 0.73,-0.75 -0.25,-0.42 0.35,-0.6 -0.57,-0.5 0.02,-0.43 0.58,-1.19 0.85,0.09 0.35,0.34 0.86,-0.04 0.49,0.29 -0.14,-1.47 0.54,0.01 -0.02,-0.4 0.29,-0.12 0.38,0.14 0.36,-0.26 z"
     title="Hưng Yên"
     id="VN-66"
 />
</svg>
