<?xml version="1.0" encoding="UTF-8" standalone="no"?>
<!-- Created for MapSVG plugin: http://mapsvg.com -->
<svg
   xmlns:mapsvg="http://mapsvg.com"
   xmlns:dc="http://purl.org/dc/elements/1.1/"
   xmlns:rdf="http://www.w3.org/1999/02/22-rdf-syntax-ns#"
   xmlns:svg="http://www.w3.org/2000/svg"
   xmlns="http://www.w3.org/2000/svg"
   mapsvg:geoViewBox="102.143498 23.393563 109.460943 8.562136"
   width="381.07504"
   height="800.61719"
>
  <path
     d="m 177.63847,80.803229 1.03,-0.01 -0.16,-0.49 0.46,-0.13 -0.18,-0.34 0.44,-1.48 0.34,-0.51 0.6,-0.1 0,0 0.4,0.03 0,0 0.45,-0.37 0.81,-0.03 0.23,-0.45 0.64,0.2 0.46,-0.33 0.37,-1.02 1.32,0.53 0.67,0.85 0.77,-0.09 0.5,0.51 0.41,-0.2 0.63,0.33 0.23,1.17 0.4,0.36 -0.16,0.96 0.76,0.85 -0.07,0.78 0.21,0.25 -0.71,1.12 0.37,0.27 0.07,0.75 0.44,0.38 -0.57,0.24 0.16,0.53 -0.26,0.45 0.08,0.5 -0.62,1.51 0.23,0.34 -0.1,0.36 0.38,0.34 0.6,0.12 0.38,0.36 0.68,-0.04 0.24,-1.44 0.55,-0.72 2.39,-0.12 0,0 0.2,-0.31 -0.1,-0.41 0,0 0.58,0.17 0.41,-0.16 1.5,-2.04 1.01,-0.03 0.86,-0.38 0.68,-0.61 0.04,-0.44 0.55,-0.19 -0.04,-0.57 0.34,-0.24 0,0 0.57,0.11 0,0 0.68,0.26 0.61,-0.27 0.9,-1.69 0.88,0.42 0.31,0.78 0.35,0.27 1.76,-0.02 0.28,0.24 0,0 1.72,0.96 -0.22,1.16 -0.74,0.51 0.12,1.1 -0.25,0.57 0.06,0.61 0.32,0.35 -0.55,0.14 0.03,0.48 -0.35,0.09 -0.3,0.54 0.63,0.99 -0.06,0.7 0.25,0.19 0,0 0.03,0.3 0.39,0.02 0,0 0.92,-0.2 0.63,1.32 0.97,0.37 0.04,0.26 0,0 0.68,0.36 0,0 0.67,0.1 0.12,0.33 0.75,0.38 0,0 0.36,0.1 0.38,-0.34 0.51,0.33 0.14,0.49 -0.23,0.57 0,0 -0.05,0.52 -0.43,0.41 0.07,0.65 -1.78,1.88 0.05,0.49 0.3,0.24 -0.16,0.34 0.13,0.36 -0.66,0.900001 0,0 -0.57,-0.31 -0.6,-0.840001 0,0 -0.41,0.05 0,0 -0.91,0.23 0,0 -0.51,0.22 0,0 -1.43,-0.5 -1.1,0.37 -0.59,0.750001 -0.52,0.1 -0.42,1.2 0,0 -0.16,0.07 0,0 -0.66,0.47 -0.13,0.5 0.88,0.21 0.35,0.45 -0.17,0.31 0.13,0.36 -0.61,1.35 0,0 0.13,0.19 0,0 -0.36,1.15 0.6,0.58 -0.45,0.47 0.19,0.42 0,0 0.21,0.15 0,0 0.16,0.03 -0.17,1.06 -0.84,0.19 -0.34,0.35 0.43,1 0.03,0.31 -0.36,0.5 0.1,0.27 -0.47,-0.07 -0.15,-0.42 -0.6,-0.19 -0.53,0.11 -0.24,-0.46 -0.32,0.12 -0.32,-0.18 -0.71,-1.23 -0.2,-0.02 -0.33,1.29 0.21,0.64 -0.22,0.03 -0.07,-0.31 -0.68,0.45 0.27,0.41 -0.25,1.02 -1.22,0.03 -0.26,-0.23 -0.88,1.36 0.67,-0.03 0.02,0.15 -0.55,0.38 -0.55,-0.19 0,0 -0.34,0.46 0,0 0.61,0.65 0,0 -1.11,-0.19 -0.14,0.14 -0.29,-0.59 -0.25,-0.04 -0.12,-0.3 0.18,-0.07 -0.33,-0.18 -0.07,-0.41 0.1,-0.75 0.32,0.14 -0.16,-0.53 -0.89,-0.05 -0.38,0.24 -0.09,-0.15 0,0 -0.07,-0.03 0,0 -1.44,-0.5 -0.69,0.56 -0.17,0.86 0,0 0,0.01 0,0 -0.49,-0.08 -0.12,-0.54 -0.69,-0.43 0.33,-0.61 -0.55,-1.19 -0.47,-0.3 -0.9,0.39 -0.41,-0.33 0.18,-0.99 -0.57,0.17 -0.49,-0.6 -0.36,0.1 -0.53,-0.22 -0.6,-0.83 -1.24,0.01 -0.38,-0.66 -0.67,-0.54 0.17,-0.76 -0.84,-0.31 -0.36,-0.38 -0.41,-1.3 -1.05,-0.37 -1.41,-1.96 -0.74,-0.18 0,0 -0.34,-0.42 -0.48,-0.07 -0.63,-1.08 -0.94,-0.910001 0.18,-0.76 -0.51,-0.64 -0.57,-1.69 0.39,-0.37 0.06,-0.45 -0.53,-0.49 0.63,-0.32 0.74,-1.47 0.62,-0.39 -0.36,-0.76 0.45,-0.28 0.42,-0.69 -0.51,-0.36 -0.82,0.21 -0.3,-0.24 0.18,-1.02 -0.25,-0.63 0.04,-1.3 0.15,-0.23 0.5,-0.05 0.54,0.34 0.59,-0.48 0.02,-0.95 -0.53,-1.35 0.32,-0.62 1,-0.2 0.07,-0.71 0.4,-0.24 -0.19,-2.19 z"
     title="Thái Nguyên"
     id="VN-69"
 />
</svg>
