<?xml version="1.0" encoding="UTF-8" standalone="no"?>
<!-- Created for MapSVG plugin: http://mapsvg.com -->
<svg
   xmlns:mapsvg="http://mapsvg.com"
   xmlns:dc="http://purl.org/dc/elements/1.1/"
   xmlns:rdf="http://www.w3.org/1999/02/22-rdf-syntax-ns#"
   xmlns:svg="http://www.w3.org/2000/svg"
   xmlns="http://www.w3.org/2000/svg"
   mapsvg:geoViewBox="102.143498 23.393563 109.460943 8.562136"
   width="381.07504"
   height="800.61719"
>
  <path
     d="m 176.44847,729.36323 0.5,-1.14 0.19,0.05 0.55,-0.98 -0.26,-0.11 0.61,-1.36 0.35,0.16 0.25,-0.54 0.59,0.26 -0.09,0.31 1.83,1.98 0.49,-0.22 0.23,-0.52 0.49,-0.07 0.25,-0.78 0.6,0.23 -0.02,0.27 0.74,0.08 -0.72,0.77 0.61,0.56 1.23,-0.81 0.49,0.06 0.02,-0.26 0.5,-0.02 0.51,-0.88 1.88,0.94 0.86,0.19 0.1,-0.18 2.12,-0.38 1.34,-0.99 0,0 2.72,2.4 0,0 -0.7,0.71 0,0 -0.13,0.32 0,0 -0.41,0.52 0.05,0.41 -0.27,0.5 0.15,0.54 -0.97,2.98 0,0 -0.22,0.9 0,0 0.34,0.09 -0.62,2.95 -6.93,4.22 -2.12,1.85 -0.1,-0.45 -0.39,0.33 -0.54,0.06 -0.14,0.47 -0.6,0.34 -0.93,0.18 -0.1,-0.35 -0.45,0.11 -0.59,0.59 -0.02,0.3 -0.41,-0.5 -0.58,-0.12 -0.36,0.61 -0.35,-0.16 -0.28,0.53 -0.52,-0.03 -0.06,0.56 0,0 -0.58,-0.58 -0.7,0.13 -0.01,0.3 -0.35,-0.03 -0.1,0.28 -0.42,-0.11 -0.01,-0.26 -0.56,0.02 -0.22,0.46 -0.71,-0.13 0.12,-0.29 -0.37,-0.36 -0.43,0.53 -0.3,-0.18 -0.34,0.18 -0.19,-0.52 -0.31,0.1 -0.56,-0.3 -0.09,0.3 -0.54,0.12 -0.11,-0.49 -0.31,0.23 -0.56,-0.03 -0.17,0.52 -0.33,-0.1 -0.44,0.24 -0.38,-0.58 0,0 0.15,-0.97 0.72,-0.56 0.46,0.17 0.4,-1.1 -0.27,-0.19 0.27,-0.24 -0.69,-0.46 -1.21,0.06 0.14,-0.7 -0.86,0.2 -0.19,-0.39 -0.7,0 -0.06,-0.57 -0.49,-0.72 1.47,-0.61 0.8,-0.91 0.96,-0.31 0.16,-0.47 0.5,-0.3 0.46,0.06 0.14,-0.5 -0.4,-0.06 -0.11,-0.5 0.46,-0.04 -0.22,-0.09 0.06,-0.28 0.28,0.19 -0.13,-0.27 0.28,0.07 -0.08,-0.27 0.19,0.22 0.07,-0.36 0.19,0.12 -0.03,-0.22 0.58,-0.27 -0.31,-1.24 1.29,-0.34 3.38,-1.92 -0.23,-0.2 1.2,-2.61 z"
     title="Hậu Giang"
     id="VN-73"
 />
</svg>
