<?xml version="1.0" encoding="UTF-8" standalone="no"?>
<!-- Created for MapSVG plugin: http://mapsvg.com -->
<svg
   xmlns:mapsvg="http://mapsvg.com"
   xmlns:dc="http://purl.org/dc/elements/1.1/"
   xmlns:rdf="http://www.w3.org/1999/02/22-rdf-syntax-ns#"
   xmlns:svg="http://www.w3.org/2000/svg"
   xmlns="http://www.w3.org/2000/svg"
   mapsvg:geoViewBox="102.143498 23.393563 109.460943 8.562136"
   width="381.07504"
   height="800.61719"
>
  <path
     d="m 174.51847,708.06323 0.96,0.93 1.94,1.14 2.52,2.45 1.03,1.73 0.26,0.98 0,0 0.18,0.21 0,0 1.07,0.93 0.65,0.91 1.15,0.75 0,0 5.32,3.5 3.09,4.39 0,0 -1.34,0.99 -2.12,0.38 -0.1,0.18 -0.86,-0.19 -1.88,-0.94 -0.51,0.88 -0.5,0.02 -0.02,0.26 -0.49,-0.06 -1.23,0.81 -0.61,-0.56 0.72,-0.77 -0.74,-0.08 0.02,-0.27 -0.6,-0.23 -0.25,0.78 -0.49,0.07 -0.23,0.52 -0.49,0.22 -1.83,-1.98 0.09,-0.31 -0.59,-0.26 -0.25,0.54 -0.35,-0.16 -0.61,1.36 0.26,0.11 -0.55,0.98 -0.19,-0.05 -0.5,1.14 0,0 -8.72,-8.08 -0.4,-0.47 -0.2,-0.98 -1.85,-2.09 -0.33,0.31 -0.39,-0.46 -0.29,0.25 -3.74,-3.29 0.26,-0.39 0,0 1.21,-1.61 0.34,-0.33 0.32,0.38 1.78,-2.02 0.27,0.43 0.33,-0.19 1.21,2.01 5.47,-1.86 -0.77,-1.75 2.63,-0.4 0.51,-0.68 z"
     title="Cần Thơ"
     id="VN-CT"
 />
</svg>
