<?xml version="1.0" encoding="UTF-8" standalone="no"?>
<!-- Created for MapSVG plugin: http://mapsvg.com -->
<svg
   xmlns:mapsvg="http://mapsvg.com"
   xmlns:dc="http://purl.org/dc/elements/1.1/"
   xmlns:rdf="http://www.w3.org/1999/02/22-rdf-syntax-ns#"
   xmlns:svg="http://www.w3.org/2000/svg"
   xmlns="http://www.w3.org/2000/svg"
   mapsvg:geoViewBox="102.143498 23.393563 109.460943 8.562136"
   width="381.07504"
   height="800.61719"
>
  <path
     d="m 295.36847,403.56323 0.07,-0.36 0,0 0.25,-0.26 -0.16,-0.42 0,0 0.57,-1 1.22,-0.95 0.17,-2.1 0.82,-0.42 0,0 -0.14,-0.91 0,0 -0.27,-0.27 0.53,-0.33 -0.09,-0.41 0.58,-0.14 0.16,-0.37 0.28,0.07 0.82,-0.56 0.96,0.96 1.37,0.46 0.71,-0.27 0.99,-1.07 0.89,0.48 0.49,0.61 1.12,0.13 1.16,0.66 0.28,-0.27 1.48,0.21 0.42,-0.35 1,0.29 1.93,-1.31 0.81,0.13 1.15,-0.39 0,0 0.02,0.6 -0.84,-0.04 -0.26,0.36 -0.92,0.18 -0.26,1.23 0.19,0.27 -0.29,0.1 -0.39,-0.22 -0.25,0.38 0.14,0.7 -0.84,0.28 0.01,0.87 0.56,0.26 -0.16,0.17 0.12,0.28 1.43,1.35 1.06,0.52 0.93,0.12 0.55,-0.33 0.44,-0.37 0.49,-0.03 0.45,-0.21 0.4,-0.55 -0.15,-0.53 -1.01,-0.55 -0.2,0.27 -0.24,-0.36 0.39,-0.34 0.46,-0.49 0.29,-0.54 0.65,-0.42 0.61,0.15 0.64,0.97 0.88,-0.13 0.94,0.76 0.23,-0.11 0.11,-0.93 0.41,-0.07 0.91,1.23 0,0.19 -0.88,0.04 -0.49,0.25 -0.24,0.87 -0.59,-0.52 -1.39,0.57 -0.4,-0.39 -0.4,0.27 -0.26,0.61 -0.1,1.09 0.22,1.17 1.99,4.12 0,0 -1,0.39 -0.08,-0.38 -0.37,0.07 -0.24,-0.48 -0.52,0 -0.85,0.67 0,0.25 -0.3,0.05 -0.11,0.52 -0.31,-0.06 -0.31,0.29 -0.42,-0.73 0.18,-0.29 -0.47,-0.17 -0.33,0.19 -0.34,-0.21 -0.28,1.37 -0.52,-0.11 -0.18,-0.52 -0.6,-0.09 -0.36,1.06 -0.46,0.16 -1.48,-0.94 -1.49,1.22 -0.66,-0.07 -0.4,-0.38 -1.01,-0.06 -1.09,0.26 -0.76,0.47 -1.01,0.14 -1.91,-1.62 0.34,-0.5 0.04,-0.52 1.25,-1.09 0.15,-1.27 -0.73,-0.44 -0.05,-0.43 -0.55,-0.46 0.15,-1.5 -1.13,0.37 -1.93,1.27 -0.44,-0.36 -0.06,-0.38 -0.94,-0.26 -0.61,-0.51 -1.17,0.09 -0.42,0.31 -0.75,-0.26 z"
     title="Đà Nẵng"
     id="VN-DN"
 />
</svg>
