<?xml version="1.0" encoding="UTF-8" standalone="no"?>
<!-- Created for MapSVG plugin: http://mapsvg.com -->
<svg
   xmlns:mapsvg="http://mapsvg.com"
   xmlns:dc="http://purl.org/dc/elements/1.1/"
   xmlns:rdf="http://www.w3.org/1999/02/22-rdf-syntax-ns#"
   xmlns:svg="http://www.w3.org/2000/svg"
   xmlns="http://www.w3.org/2000/svg"
   mapsvg:geoViewBox="102.143498 23.393563 109.460943 8.562136"
   width="381.07504"
   height="800.61719"
>
  <path
     d="m 189.55847,114.06323 0.17,-0.86 0.69,-0.56 1.44,0.5 0,0 0.07,0.03 0,0 0.09,0.15 0.38,-0.24 0.89,0.05 0.16,0.53 -0.32,-0.14 -0.1,0.75 0.07,0.41 0.33,0.18 -0.18,0.07 0.12,0.3 0.25,0.04 0.29,0.59 0.14,-0.14 1.11,0.19 0,0 0.37,0.09 -0.11,0.89 0.18,0.25 0.43,0.14 0.41,-0.22 0,0 -0.06,0.49 0,0 0.82,0.16 -0.44,0.38 -0.01,0.91 0.83,1.31 -0.05,0.21 0,0 -0.23,-0.1 -0.73,0.78 -0.67,-0.05 -0.13,0.38 0.07,0.16 0.28,-0.12 0.25,0.48 -0.44,1.31 0.33,0.03 0.53,0.49 -0.35,0.8 0.32,0.37 -0.18,0.37 0.35,0.8 -0.1,0.41 -0.14,-0.11 -0.46,0.53 0.15,0.38 0.42,-0.1 -0.13,0.21 0.68,0.61 0.3,1.22 0.91,-0.41 0.22,0.74 0.31,0.31 1.32,0.18 0.3,-0.3 0.37,0.63 0.11,-0.09 -0.07,0.38 0.35,0.11 0.33,0.81 -0.41,0.63 -0.27,0.07 0.13,0.22 -0.27,0.17 0.03,0.55 0.28,0.02 -0.6,0.26 0.13,0.36 0,0 -0.49,-0.06 -0.36,0.26 -0.38,-0.14 -0.29,0.12 0.02,0.4 -0.54,-0.01 0.14,1.47 -0.49,-0.29 -0.86,0.04 -0.35,-0.34 -0.85,-0.09 -0.58,1.19 -0.02,0.43 0.57,0.5 -0.35,0.6 0.25,0.42 -0.73,0.75 0,0 -0.36,-0.2 -0.2,0.15 -0.49,-0.34 -0.2,0.32 -0.8,-0.03 -0.3,0.32 0.09,0.32 -0.82,-0.4 -0.05,-0.41 -0.3,0.07 -0.02,0.4 -0.28,0.25 -0.14,-0.34 -0.46,0.04 -0.69,-0.55 -0.59,-0.16 0,-0.62 0.52,-0.49 -0.68,-0.36 0.16,0 0.18,-0.75 0.48,-0.19 -0.61,-0.27 -0.12,-0.3 0.52,-0.32 -0.25,-0.29 0.06,-0.34 -0.82,-0.13 -0.14,0.23 -0.61,0.01 -0.19,0.29 -0.25,-0.11 -0.08,-0.43 -1.07,-0.39 0,-0.68 -0.26,-0.52 0.42,-0.31 0,-0.74 -0.26,-0.07 -0.04,-0.41 -0.28,-0.16 0.06,-0.73 -0.6,-0.58 0.56,-0.56 -0.09,-0.93 0.8,-0.49 -0.34,-0.27 -0.16,-0.57 0,0 0.19,0.05 0.61,-0.86 0.26,0.3 0.03,-0.17 0.75,-0.01 0.32,-0.47 -0.07,-1.92 0.61,0.04 0.38,-0.29 -0.15,-0.76 -0.9,-0.52 -0.12,-0.46 -0.4,-0.01 -0.16,-0.49 -1.29,-0.6 -0.15,-0.26 -0.13,-0.13 0.07,-0.46 -0.3,-0.13 0,-0.81 0.32,-0.19 -0.21,-0.19 0.38,-0.13 0.19,-0.65 0.29,-0.02 0.05,-0.3 0.56,-0.14 1.2,-2.34 0.44,-0.3 -0.02,-0.93 0,0 z"
     title="Hà Nội"
     id="VN-HN"
 />
</svg>
