<svg preserveAspectRatio="none" width="100%" height="100%" overflow="visible" style="display: block;" viewBox="0 0 1231.55 19.8827" fill="none" xmlns="http://www.w3.org/2000/svg">
<path id="Line 7" d="M0 9.94135C0 13.9178 3.22355 17.1413 7.2 17.1413C11.1765 17.1413 14.4 13.9178 14.4 9.94135C14.4 5.9649 11.1765 2.74135 7.2 2.74135C3.22355 2.74135 0 5.9649 0 9.94135ZM1231.15 10.8959C1231.68 10.3687 1231.68 9.51396 1231.15 8.98675L1222.56 0.395406C1222.04 -0.131803 1221.18 -0.131803 1220.65 0.395406C1220.13 0.922613 1220.13 1.77739 1220.65 2.30459L1228.29 9.94135L1220.65 17.5781C1220.13 18.1053 1220.13 18.9601 1220.65 19.4873C1221.18 20.0145 1222.04 20.0145 1222.56 19.4873L1231.15 10.8959ZM7.2 9.94135V11.2913H1230.2V9.94135V8.59135H7.2V9.94135Z" fill="var(--stroke-0, #D71920)"/>
</svg>
